<?xml version="1.0" encoding="UTF-8"?>
<svg height="252.80mm" viewBox="0.0 0.0 398.00 252.80" width="398.00mm" xmlns="http://www.w3.org/2000/svg" xmlns:cc="http://creativecommons.org/ns#" xmlns:dc="http://purl.org/dc/elements/1.1/" xmlns:inkscape="http://www.inkscape.org/namespaces/inkscape" xmlns:rdf="http://www.w3.org/1999/02/22-rdf-syntax-ns#" xmlns:svg="http://www.w3.org/2000/svg" xmlns:xlink="http://www.w3.org/1999/xlink">
<!--
ElectronicsBox - Closed box with screw on top and mounting holes

Created with Boxes.py (https://festi.info/boxes.py)
Creation date: 2024-03-27 11:09:08
Command line (remove spaces between dashes): boxes ElectronicsBox - -x=180 - -h=33 - -outside=0 - -triangle=20 - -d1=1 - -d2=2 - -d3=2 - -outsidemounts=0 - -thickness=3.5 - -burn=0.15
Url: http://www.festi.info/boxes.py/ElectronicsBox?FingerJoint_angle=90.0&FingerJoint_style=rectangular&FingerJoint_surroundingspaces=2.0&FingerJoint_bottom_lip=0.0&FingerJoint_edge_width=1.0&FingerJoint_extra_length=0.0&FingerJoint_finger=2.0&FingerJoint_play=0.0&FingerJoint_space=2.0&FingerJoint_width=1.0&x=180&y=100&h=33&outside=0&triangle=20&d1=1&d2=2&d3=2&outsidemounts=0&holedist=7.0&thickness=3.5&format=svg&tabs=0.0&qr_code=0&debug=0&labels=0&labels=1&reference=100&inner_corners=loop&burn=0.15&language=fr&render=1
Url short: http://www.festi.info/boxes.py/ElectronicsBox?x=180&h=33&outside=0&triangle=20&d1=1&d2=2&d3=2&outsidemounts=0&thickness=3.5&burn=0.15
SettingsUrl: http://www.festi.info/boxes.py/ElectronicsBox?FingerJoint_angle=90.0&FingerJoint_style=rectangular&FingerJoint_surroundingspaces=2.0&FingerJoint_bottom_lip=0.0&FingerJoint_edge_width=1.0&FingerJoint_extra_length=0.0&FingerJoint_finger=2.0&FingerJoint_play=0.0&FingerJoint_space=2.0&FingerJoint_width=1.0&x=180&y=100&h=33&outside=0&triangle=20&d1=1&d2=2&d3=2&outsidemounts=0&holedist=7.0&thickness=3.5&format=svg&tabs=0.0&qr_code=0&debug=0&labels=0&labels=1&reference=100&inner_corners=loop&burn=0.15&language=fr
SettingsUrl short: http://www.festi.info/boxes.py/ElectronicsBox?x=180&h=33&outside=0&triangle=20&d1=1&d2=2&d3=2&outsidemounts=0&thickness=3.5&burn=0.15
-->
<title>ElectronicsBox</title>
<metadata>
<rdf:RDF><cc:Work>
<dc:title>Box - ElectronicsBox</dc:title>
<dc:date>2024-03-27 11:09:08</dc:date>
<dc:source>http://www.festi.info/boxes.py/ElectronicsBox?FingerJoint_angle=90.0&amp;FingerJoint_style=rectangular&amp;FingerJoint_surroundingspaces=2.0&amp;FingerJoint_bottom_lip=0.0&amp;FingerJoint_edge_width=1.0&amp;FingerJoint_extra_length=0.0&amp;FingerJoint_finger=2.0&amp;FingerJoint_play=0.0&amp;FingerJoint_space=2.0&amp;FingerJoint_width=1.0&amp;x=180&amp;y=100&amp;h=33&amp;outside=0&amp;triangle=20&amp;d1=1&amp;d2=2&amp;d3=2&amp;outsidemounts=0&amp;holedist=7.0&amp;thickness=3.5&amp;format=svg&amp;tabs=0.0&amp;qr_code=0&amp;debug=0&amp;labels=0&amp;labels=1&amp;reference=100&amp;inner_corners=loop&amp;burn=0.15&amp;language=fr&amp;render=1</dc:source>
<dc:source>http://www.festi.info/boxes.py/ElectronicsBox?x=180&amp;h=33&amp;outside=0&amp;triangle=20&amp;d1=1&amp;d2=2&amp;d3=2&amp;outsidemounts=0&amp;thickness=3.5&amp;burn=0.15</dc:source>
<dc:description>Closed box with screw on top and mounting holes

Created with Boxes.py (https://festi.info/boxes.py)
Command line: boxes ElectronicsBox --FingerJoint_angle=90.0 --FingerJoint_style=rectangular --FingerJoint_surroundingspaces=2.0 --FingerJoint_bottom_lip=0.0 --FingerJoint_edge_width=1.0 --FingerJoint_extra_length=0.0 --FingerJoint_finger=2.0 --FingerJoint_play=0.0 --FingerJoint_space=2.0 --FingerJoint_width=1.0 --x=180 --y=100 --h=33 --outside=0 --triangle=20 --d1=1 --d2=2 --d3=2 --outsidemounts=0 --holedist=7.0 --thickness=3.5 --format=svg --tabs=0.0 --qr_code=0 --debug=0 --labels=0 --labels=1 --reference=100 --inner_corners=loop --burn=0.15
Command line short: boxes ElectronicsBox --x=180 --h=33 --outside=0 --triangle=20 --d1=1 --d2=2 --d3=2 --outsidemounts=0 --thickness=3.5 --burn=0.15
Url: http://www.festi.info/boxes.py/ElectronicsBox?FingerJoint_angle=90.0&amp;FingerJoint_style=rectangular&amp;FingerJoint_surroundingspaces=2.0&amp;FingerJoint_bottom_lip=0.0&amp;FingerJoint_edge_width=1.0&amp;FingerJoint_extra_length=0.0&amp;FingerJoint_finger=2.0&amp;FingerJoint_play=0.0&amp;FingerJoint_space=2.0&amp;FingerJoint_width=1.0&amp;x=180&amp;y=100&amp;h=33&amp;outside=0&amp;triangle=20&amp;d1=1&amp;d2=2&amp;d3=2&amp;outsidemounts=0&amp;holedist=7.0&amp;thickness=3.5&amp;format=svg&amp;tabs=0.0&amp;qr_code=0&amp;debug=0&amp;labels=0&amp;labels=1&amp;reference=100&amp;inner_corners=loop&amp;burn=0.15&amp;language=fr&amp;render=1
Url short: http://www.festi.info/boxes.py/ElectronicsBox?x=180&amp;h=33&amp;outside=0&amp;triangle=20&amp;d1=1&amp;d2=2&amp;d3=2&amp;outsidemounts=0&amp;thickness=3.5&amp;burn=0.15
SettingsUrl: http://www.festi.info/boxes.py/ElectronicsBox?FingerJoint_angle=90.0&amp;FingerJoint_style=rectangular&amp;FingerJoint_surroundingspaces=2.0&amp;FingerJoint_bottom_lip=0.0&amp;FingerJoint_edge_width=1.0&amp;FingerJoint_extra_length=0.0&amp;FingerJoint_finger=2.0&amp;FingerJoint_play=0.0&amp;FingerJoint_space=2.0&amp;FingerJoint_width=1.0&amp;x=180&amp;y=100&amp;h=33&amp;outside=0&amp;triangle=20&amp;d1=1&amp;d2=2&amp;d3=2&amp;outsidemounts=0&amp;holedist=7.0&amp;thickness=3.5&amp;format=svg&amp;tabs=0.0&amp;qr_code=0&amp;debug=0&amp;labels=0&amp;labels=1&amp;reference=100&amp;inner_corners=loop&amp;burn=0.15&amp;language=fr
SettingsUrl short: http://www.festi.info/boxes.py/ElectronicsBox?x=180&amp;h=33&amp;outside=0&amp;triangle=20&amp;d1=1&amp;d2=2&amp;d3=2&amp;outsidemounts=0&amp;thickness=3.5&amp;burn=0.15
</dc:description>
</cc:Work></rdf:RDF></metadata>
<g id="p-0" style="fill:none;stroke-linecap:round;stroke-linejoin:round;">
  <path d="M 18.800 242.800 H 118.800 V 232.800 H 18.800 V 242.800 Z" stroke="rgb(0,0,0)" stroke-width="0.30"/>
  <text dominant-baseline="hanging" font-size="8px" style="font-family: sans-serif ; font-weight: normal; font-style: normal; fill: rgb(255,0,0)" text-anchor="middle" transform="matrix( 1.000 0.000 0.000 1.000 68.800 233.800 )">100.00mm, burn:0.15mm</text>
</g>
<g id="p-1" style="fill:none;stroke-linecap:round;stroke-linejoin:round;">
  <path d="M 32.300 193.950 H 28.950 C 28.800 193.950 28.950 194.100 28.950 193.950 V 190.750 C 28.950 190.600 28.800 190.750 28.950 190.750 H 35.650 C 35.800 190.750 35.650 190.600 35.650 190.750 V 193.950 C 35.650 194.100 35.800 193.950 35.650 193.950 H 32.300 Z" stroke="rgb(0,0,255)" stroke-width="0.30"/>
  <path d="M 192.300 190.750 H 195.650 C 195.800 190.750 195.650 190.600 195.650 190.750 V 193.950 C 195.650 194.100 195.800 193.950 195.650 193.950 H 188.950 C 188.800 193.950 188.950 194.100 188.950 193.950 V 190.750 C 188.950 190.600 188.800 190.750 188.950 190.750 H 192.300 Z" stroke="rgb(0,0,255)" stroke-width="0.30"/>
  <text dominant-baseline="hanging" font-size="4px" style="font-family: sans-serif ; font-weight: normal; font-style: normal; fill: rgb(255,0,0)" text-anchor="middle" transform="matrix( 1.000 0.000 0.000 1.000 112.300 207.000 )">Wall 1</text><path d="M 22.300 227.250 H 31.650 C 31.800 227.250 31.650 227.100 31.650 227.250 V 230.600 C 31.650 230.683 31.717 230.750 31.800 230.750 H 38.800 C 38.883 230.750 38.950 230.683 38.950 230.600 V 227.250 C 38.950 227.100 38.800 227.250 38.950 227.250 H 45.650 C 45.800 227.250 45.650 227.100 45.650 227.250 V 230.600 C 45.650 230.683 45.717 230.750 45.800 230.750 H 52.800 C 52.883 230.750 52.950 230.683 52.950 230.600 V 227.250 C 52.950 227.100 52.800 227.250 52.950 227.250 H 59.650 C 59.800 227.250 59.650 227.100 59.650 227.250 V 230.600 C 59.650 230.683 59.717 230.750 59.800 230.750 H 66.800 C 66.883 230.750 66.950 230.683 66.950 230.600 V 227.250 C 66.950 227.100 66.800 227.250 66.950 227.250 H 73.650 C 73.800 227.250 73.650 227.100 73.650 227.250 V 230.600 C 73.650 230.683 73.717 230.750 73.800 230.750 H 80.800 C 80.883 230.750 80.950 230.683 80.950 230.600 V 227.250 C 80.950 227.100 80.800 227.250 80.950 227.250 H 87.650 C 87.800 227.250 87.650 227.100 87.650 227.250 V 230.600 C 87.650 230.683 87.717 230.750 87.800 230.750 H 94.800 C 94.883 230.750 94.950 230.683 94.950 230.600 V 227.250 C 94.950 227.100 94.800 227.250 94.950 227.250 H 101.650 C 101.800 227.250 101.650 227.100 101.650 227.250 V 230.600 C 101.650 230.683 101.717 230.750 101.800 230.750 H 108.800 C 108.883 230.750 108.950 230.683 108.950 230.600 V 227.250 C 108.950 227.100 108.800 227.250 108.950 227.250 H 115.650 C 115.800 227.250 115.650 227.100 115.650 227.250 V 230.600 C 115.650 230.683 115.717 230.750 115.800 230.750 H 122.800 C 122.883 230.750 122.950 230.683 122.950 230.600 V 227.250 C 122.950 227.100 122.800 227.250 122.950 227.250 H 129.650 C 129.800 227.250 129.650 227.100 129.650 227.250 V 230.600 C 129.650 230.683 129.717 230.750 129.800 230.750 H 136.800 C 136.883 230.750 136.950 230.683 136.950 230.600 V 227.250 C 136.950 227.100 136.800 227.250 136.950 227.250 H 143.650 C 143.800 227.250 143.650 227.100 143.650 227.250 V 230.600 C 143.650 230.683 143.717 230.750 143.800 230.750 H 150.800 C 150.883 230.750 150.950 230.683 150.950 230.600 V 227.250 C 150.950 227.100 150.800 227.250 150.950 227.250 H 157.650 C 157.800 227.250 157.650 227.100 157.650 227.250 V 230.600 C 157.650 230.683 157.717 230.750 157.800 230.750 H 164.800 C 164.883 230.750 164.950 230.683 164.950 230.600 V 227.250 C 164.950 227.100 164.800 227.250 164.950 227.250 H 171.650 C 171.800 227.250 171.650 227.100 171.650 227.250 V 230.600 C 171.650 230.683 171.717 230.750 171.800 230.750 H 178.800 C 178.883 230.750 178.950 230.683 178.950 230.600 V 227.250 C 178.950 227.100 178.800 227.250 178.950 227.250 H 185.650 C 185.800 227.250 185.650 227.100 185.650 227.250 V 230.600 C 185.650 230.683 185.717 230.750 185.800 230.750 H 192.800 C 192.883 230.750 192.950 230.683 192.950 230.600 V 227.250 C 192.950 227.100 192.800 227.250 192.950 227.250 H 202.300 H 205.800 C 205.883 227.250 205.950 227.183 205.950 227.100 V 217.600 C 205.950 217.517 205.883 217.450 205.800 217.450 H 202.450 C 202.300 217.450 202.450 217.600 202.450 217.450 V 210.750 C 202.450 210.600 202.300 210.750 202.450 210.750 H 205.800 C 205.883 210.750 205.950 210.683 205.950 210.600 V 203.600 C 205.950 203.517 205.883 203.450 205.800 203.450 H 202.450 C 202.300 203.450 202.450 203.600 202.450 203.450 V 196.750 C 202.450 196.600 202.300 196.750 202.450 196.750 H 205.800 C 205.883 196.750 205.950 196.683 205.950 196.600 V 187.100 C 205.950 187.017 205.883 186.950 205.800 186.950 H 202.300 H 22.300 H 18.800 C 18.717 186.950 18.650 187.017 18.650 187.100 V 196.600 C 18.650 196.683 18.717 196.750 18.800 196.750 H 22.150 C 22.300 196.750 22.150 196.600 22.150 196.750 V 203.450 C 22.150 203.600 22.300 203.450 22.150 203.450 H 18.800 C 18.717 203.450 18.650 203.517 18.650 203.600 V 210.600 C 18.650 210.683 18.717 210.750 18.800 210.750 H 22.150 C 22.300 210.750 22.150 210.600 22.150 210.750 V 217.450 C 22.150 217.600 22.300 217.450 22.150 217.450 H 18.800 C 18.717 217.450 18.650 217.517 18.650 217.600 V 227.100 C 18.650 227.183 18.717 227.250 18.800 227.250 H 22.300" stroke="rgb(0,0,0)" stroke-width="0.30"/>
</g><script xmlns="" id="bw-fido2-page-script"/>
<g id="p-2" style="fill:none;stroke-linecap:round;stroke-linejoin:round;">
  <path d="M 221.350 193.950 H 218.000 C 217.850 193.950 218.000 194.100 218.000 193.950 V 190.750 C 218.000 190.600 217.850 190.750 218.000 190.750 H 224.700 C 224.850 190.750 224.700 190.600 224.700 190.750 V 193.950 C 224.700 194.100 224.850 193.950 224.700 193.950 H 221.350 Z" stroke="rgb(0,0,255)" stroke-width="0.30"/>
  <path d="M 301.350 190.750 H 304.700 C 304.850 190.750 304.700 190.600 304.700 190.750 V 193.950 C 304.700 194.100 304.850 193.950 304.700 193.950 H 298.000 C 297.850 193.950 298.000 194.100 298.000 193.950 V 190.750 C 298.000 190.600 297.850 190.750 298.000 190.750 H 301.350 Z" stroke="rgb(0,0,255)" stroke-width="0.30"/>
  <text dominant-baseline="hanging" font-size="4px" style="font-family: sans-serif ; font-weight: normal; font-style: normal; fill: rgb(255,0,0)" text-anchor="middle" transform="matrix( 1.000 0.000 0.000 1.000 261.350 207.000 )">Wall 2</text><path d="M 211.350 227.250 H 222.700 C 222.850 227.250 222.700 227.100 222.700 227.250 V 230.600 C 222.700 230.683 222.767 230.750 222.850 230.750 H 229.850 C 229.933 230.750 230.000 230.683 230.000 230.600 V 227.250 C 230.000 227.100 229.850 227.250 230.000 227.250 H 236.700 C 236.850 227.250 236.700 227.100 236.700 227.250 V 230.600 C 236.700 230.683 236.767 230.750 236.850 230.750 H 243.850 C 243.933 230.750 244.000 230.683 244.000 230.600 V 227.250 C 244.000 227.100 243.850 227.250 244.000 227.250 H 250.700 C 250.850 227.250 250.700 227.100 250.700 227.250 V 230.600 C 250.700 230.683 250.767 230.750 250.850 230.750 H 257.850 C 257.933 230.750 258.000 230.683 258.000 230.600 V 227.250 C 258.000 227.100 257.850 227.250 258.000 227.250 H 264.700 C 264.850 227.250 264.700 227.100 264.700 227.250 V 230.600 C 264.700 230.683 264.767 230.750 264.850 230.750 H 271.850 C 271.933 230.750 272.000 230.683 272.000 230.600 V 227.250 C 272.000 227.100 271.850 227.250 272.000 227.250 H 278.700 C 278.850 227.250 278.700 227.100 278.700 227.250 V 230.600 C 278.700 230.683 278.767 230.750 278.850 230.750 H 285.850 C 285.933 230.750 286.000 230.683 286.000 230.600 V 227.250 C 286.000 227.100 285.850 227.250 286.000 227.250 H 292.700 C 292.850 227.250 292.700 227.100 292.700 227.250 V 230.600 C 292.700 230.683 292.767 230.750 292.850 230.750 H 299.850 C 299.933 230.750 300.000 230.683 300.000 230.600 V 227.250 C 300.000 227.100 299.850 227.250 300.000 227.250 H 311.350 C 311.433 227.250 311.500 227.183 311.500 227.100 V 217.750 C 311.500 217.600 311.350 217.750 311.500 217.750 H 314.850 C 314.933 217.750 315.000 217.683 315.000 217.600 V 210.600 C 315.000 210.517 314.933 210.450 314.850 210.450 H 311.500 C 311.350 210.450 311.500 210.600 311.500 210.450 V 203.750 C 311.500 203.600 311.350 203.750 311.500 203.750 H 314.850 C 314.933 203.750 315.000 203.683 315.000 203.600 V 196.600 C 315.000 196.517 314.933 196.450 314.850 196.450 H 311.500 C 311.350 196.450 311.500 196.600 311.500 196.450 V 187.100 C 311.500 187.017 311.433 186.950 311.350 186.950 H 211.350 C 211.267 186.950 211.200 187.017 211.200 187.100 V 196.450 C 211.200 196.600 211.350 196.450 211.200 196.450 H 207.850 C 207.767 196.450 207.700 196.517 207.700 196.600 V 203.600 C 207.700 203.683 207.767 203.750 207.850 203.750 H 211.200 C 211.350 203.750 211.200 203.600 211.200 203.750 V 210.450 C 211.200 210.600 211.350 210.450 211.200 210.450 H 207.850 C 207.767 210.450 207.700 210.517 207.700 210.600 V 217.600 C 207.700 217.683 207.767 217.750 207.850 217.750 H 211.200 C 211.350 217.750 211.200 217.600 211.200 217.750 V 227.100 C 211.200 227.183 211.267 227.250 211.350 227.250" stroke="rgb(0,0,0)" stroke-width="0.30"/>
</g>
<g id="p-3" style="fill:none;stroke-linecap:round;stroke-linejoin:round;">
  <path d="M 221.350 148.400 H 218.000 C 217.850 148.400 218.000 148.550 218.000 148.400 V 145.200 C 218.000 145.050 217.850 145.200 218.000 145.200 H 224.700 C 224.850 145.200 224.700 145.050 224.700 145.200 V 148.400 C 224.700 148.550 224.850 148.400 224.700 148.400 H 221.350 Z" stroke="rgb(0,0,255)" stroke-width="0.30"/>
  <path d="M 301.350 145.200 H 304.700 C 304.850 145.200 304.700 145.050 304.700 145.200 V 148.400 C 304.700 148.550 304.850 148.400 304.700 148.400 H 298.000 C 297.850 148.400 298.000 148.550 298.000 148.400 V 145.200 C 298.000 145.050 297.850 145.200 298.000 145.200 H 301.350 Z" stroke="rgb(0,0,255)" stroke-width="0.30"/>
  <text dominant-baseline="hanging" font-size="4px" style="font-family: sans-serif ; font-weight: normal; font-style: normal; fill: rgb(255,0,0)" text-anchor="middle" transform="matrix( 1.000 0.000 0.000 1.000 261.350 161.450 )">Wall 4</text><path d="M 211.350 181.700 H 222.700 C 222.850 181.700 222.700 181.550 222.700 181.700 V 185.050 C 222.700 185.133 222.767 185.200 222.850 185.200 H 229.850 C 229.933 185.200 230.000 185.133 230.000 185.050 V 181.700 C 230.000 181.550 229.850 181.700 230.000 181.700 H 236.700 C 236.850 181.700 236.700 181.550 236.700 181.700 V 185.050 C 236.700 185.133 236.767 185.200 236.850 185.200 H 243.850 C 243.933 185.200 244.000 185.133 244.000 185.050 V 181.700 C 244.000 181.550 243.850 181.700 244.000 181.700 H 250.700 C 250.850 181.700 250.700 181.550 250.700 181.700 V 185.050 C 250.700 185.133 250.767 185.200 250.850 185.200 H 257.850 C 257.933 185.200 258.000 185.133 258.000 185.050 V 181.700 C 258.000 181.550 257.850 181.700 258.000 181.700 H 264.700 C 264.850 181.700 264.700 181.550 264.700 181.700 V 185.050 C 264.700 185.133 264.767 185.200 264.850 185.200 H 271.850 C 271.933 185.200 272.000 185.133 272.000 185.050 V 181.700 C 272.000 181.550 271.850 181.700 272.000 181.700 H 278.700 C 278.850 181.700 278.700 181.550 278.700 181.700 V 185.050 C 278.700 185.133 278.767 185.200 278.850 185.200 H 285.850 C 285.933 185.200 286.000 185.133 286.000 185.050 V 181.700 C 286.000 181.550 285.850 181.700 286.000 181.700 H 292.700 C 292.850 181.700 292.700 181.550 292.700 181.700 V 185.050 C 292.700 185.133 292.767 185.200 292.850 185.200 H 299.850 C 299.933 185.200 300.000 185.133 300.000 185.050 V 181.700 C 300.000 181.550 299.850 181.700 300.000 181.700 H 311.350 C 311.433 181.700 311.500 181.633 311.500 181.550 V 172.200 C 311.500 172.050 311.350 172.200 311.500 172.200 H 314.850 C 314.933 172.200 315.000 172.133 315.000 172.050 V 165.050 C 315.000 164.967 314.933 164.900 314.850 164.900 H 311.500 C 311.350 164.900 311.500 165.050 311.500 164.900 V 158.200 C 311.500 158.050 311.350 158.200 311.500 158.200 H 314.850 C 314.933 158.200 315.000 158.133 315.000 158.050 V 151.050 C 315.000 150.967 314.933 150.900 314.850 150.900 H 311.500 C 311.350 150.900 311.500 151.050 311.500 150.900 V 141.550 C 311.500 141.467 311.433 141.400 311.350 141.400 H 211.350 C 211.267 141.400 211.200 141.467 211.200 141.550 V 150.900 C 211.200 151.050 211.350 150.900 211.200 150.900 H 207.850 C 207.767 150.900 207.700 150.967 207.700 151.050 V 158.050 C 207.700 158.133 207.767 158.200 207.850 158.200 H 211.200 C 211.350 158.200 211.200 158.050 211.200 158.200 V 164.900 C 211.200 165.050 211.350 164.900 211.200 164.900 H 207.850 C 207.767 164.900 207.700 164.967 207.700 165.050 V 172.050 C 207.700 172.133 207.767 172.200 207.850 172.200 H 211.200 C 211.350 172.200 211.200 172.050 211.200 172.200 V 181.550 C 211.200 181.633 211.267 181.700 211.350 181.700" stroke="rgb(0,0,0)" stroke-width="0.30"/>
</g>
<g id="p-4" style="fill:none;stroke-linecap:round;stroke-linejoin:round;">
  <path d="M 32.300 148.400 H 28.950 C 28.800 148.400 28.950 148.550 28.950 148.400 V 145.200 C 28.950 145.050 28.800 145.200 28.950 145.200 H 35.650 C 35.800 145.200 35.650 145.050 35.650 145.200 V 148.400 C 35.650 148.550 35.800 148.400 35.650 148.400 H 32.300 Z" stroke="rgb(0,0,255)" stroke-width="0.30"/>
  <path d="M 192.300 145.200 H 195.650 C 195.800 145.200 195.650 145.050 195.650 145.200 V 148.400 C 195.650 148.550 195.800 148.400 195.650 148.400 H 188.950 C 188.800 148.400 188.950 148.550 188.950 148.400 V 145.200 C 188.950 145.050 188.800 145.200 188.950 145.200 H 192.300 Z" stroke="rgb(0,0,255)" stroke-width="0.30"/>
  <text dominant-baseline="hanging" font-size="4px" style="font-family: sans-serif ; font-weight: normal; font-style: normal; fill: rgb(255,0,0)" text-anchor="middle" transform="matrix( 1.000 0.000 0.000 1.000 112.300 161.450 )">Wall 3</text><path d="M 22.300 181.700 H 31.650 C 31.800 181.700 31.650 181.550 31.650 181.700 V 185.050 C 31.650 185.133 31.717 185.200 31.800 185.200 H 38.800 C 38.883 185.200 38.950 185.133 38.950 185.050 V 181.700 C 38.950 181.550 38.800 181.700 38.950 181.700 H 45.650 C 45.800 181.700 45.650 181.550 45.650 181.700 V 185.050 C 45.650 185.133 45.717 185.200 45.800 185.200 H 52.800 C 52.883 185.200 52.950 185.133 52.950 185.050 V 181.700 C 52.950 181.550 52.800 181.700 52.950 181.700 H 59.650 C 59.800 181.700 59.650 181.550 59.650 181.700 V 185.050 C 59.650 185.133 59.717 185.200 59.800 185.200 H 66.800 C 66.883 185.200 66.950 185.133 66.950 185.050 V 181.700 C 66.950 181.550 66.800 181.700 66.950 181.700 H 73.650 C 73.800 181.700 73.650 181.550 73.650 181.700 V 185.050 C 73.650 185.133 73.717 185.200 73.800 185.200 H 80.800 C 80.883 185.200 80.950 185.133 80.950 185.050 V 181.700 C 80.950 181.550 80.800 181.700 80.950 181.700 H 87.650 C 87.800 181.700 87.650 181.550 87.650 181.700 V 185.050 C 87.650 185.133 87.717 185.200 87.800 185.200 H 94.800 C 94.883 185.200 94.950 185.133 94.950 185.050 V 181.700 C 94.950 181.550 94.800 181.700 94.950 181.700 H 101.650 C 101.800 181.700 101.650 181.550 101.650 181.700 V 185.050 C 101.650 185.133 101.717 185.200 101.800 185.200 H 108.800 C 108.883 185.200 108.950 185.133 108.950 185.050 V 181.700 C 108.950 181.550 108.800 181.700 108.950 181.700 H 115.650 C 115.800 181.700 115.650 181.550 115.650 181.700 V 185.050 C 115.650 185.133 115.717 185.200 115.800 185.200 H 122.800 C 122.883 185.200 122.950 185.133 122.950 185.050 V 181.700 C 122.950 181.550 122.800 181.700 122.950 181.700 H 129.650 C 129.800 181.700 129.650 181.550 129.650 181.700 V 185.050 C 129.650 185.133 129.717 185.200 129.800 185.200 H 136.800 C 136.883 185.200 136.950 185.133 136.950 185.050 V 181.700 C 136.950 181.550 136.800 181.700 136.950 181.700 H 143.650 C 143.800 181.700 143.650 181.550 143.650 181.700 V 185.050 C 143.650 185.133 143.717 185.200 143.800 185.200 H 150.800 C 150.883 185.200 150.950 185.133 150.950 185.050 V 181.700 C 150.950 181.550 150.800 181.700 150.950 181.700 H 157.650 C 157.800 181.700 157.650 181.550 157.650 181.700 V 185.050 C 157.650 185.133 157.717 185.200 157.800 185.200 H 164.800 C 164.883 185.200 164.950 185.133 164.950 185.050 V 181.700 C 164.950 181.550 164.800 181.700 164.950 181.700 H 171.650 C 171.800 181.700 171.650 181.550 171.650 181.700 V 185.050 C 171.650 185.133 171.717 185.200 171.800 185.200 H 178.800 C 178.883 185.200 178.950 185.133 178.950 185.050 V 181.700 C 178.950 181.550 178.800 181.700 178.950 181.700 H 185.650 C 185.800 181.700 185.650 181.550 185.650 181.700 V 185.050 C 185.650 185.133 185.717 185.200 185.800 185.200 H 192.800 C 192.883 185.200 192.950 185.133 192.950 185.050 V 181.700 C 192.950 181.550 192.800 181.700 192.950 181.700 H 202.300 H 205.800 C 205.883 181.700 205.950 181.633 205.950 181.550 V 172.050 C 205.950 171.967 205.883 171.900 205.800 171.900 H 202.450 C 202.300 171.900 202.450 172.050 202.450 171.900 V 165.200 C 202.450 165.050 202.300 165.200 202.450 165.200 H 205.800 C 205.883 165.200 205.950 165.133 205.950 165.050 V 158.050 C 205.950 157.967 205.883 157.900 205.800 157.900 H 202.450 C 202.300 157.900 202.450 158.050 202.450 157.900 V 151.200 C 202.450 151.050 202.300 151.200 202.450 151.200 H 205.800 C 205.883 151.200 205.950 151.133 205.950 151.050 V 141.550 C 205.950 141.467 205.883 141.400 205.800 141.400 H 202.300 H 22.300 H 18.800 C 18.717 141.400 18.650 141.467 18.650 141.550 V 151.050 C 18.650 151.133 18.717 151.200 18.800 151.200 H 22.150 C 22.300 151.200 22.150 151.050 22.150 151.200 V 157.900 C 22.150 158.050 22.300 157.900 22.150 157.900 H 18.800 C 18.717 157.900 18.650 157.967 18.650 158.050 V 165.050 C 18.650 165.133 18.717 165.200 18.800 165.200 H 22.150 C 22.300 165.200 22.150 165.050 22.150 165.200 V 171.900 C 22.150 172.050 22.300 171.900 22.150 171.900 H 18.800 C 18.717 171.900 18.650 171.967 18.650 172.050 V 181.550 C 18.650 181.633 18.717 181.700 18.800 181.700 H 22.300" stroke="rgb(0,0,0)" stroke-width="0.30"/>
</g>
<g id="p-5" style="fill:none;stroke-linecap:round;stroke-linejoin:round;">
  <path d="M 30.150 129.000 C 30.150 129.163 30.103 129.322 30.015 129.460 C 29.927 129.597 29.801 129.705 29.653 129.773 C 29.505 129.841 29.340 129.865 29.179 129.841 C 29.018 129.818 28.867 129.749 28.743 129.642 C 28.620 129.536 28.530 129.396 28.484 129.239 C 28.439 129.083 28.439 128.917 28.484 128.761 C 28.530 128.604 28.620 128.464 28.743 128.358 C 28.867 128.251 29.018 128.182 29.179 128.159 C 29.340 128.135 29.505 128.159 29.653 128.227 C 29.801 128.295 29.927 128.403 30.015 128.540 C 30.103 128.678 30.150 128.837 30.150 129.000 Z" stroke="rgb(0,0,255)" stroke-width="0.30"/>
  <text dominant-baseline="hanging" font-size="4px" style="font-family: sans-serif ; font-weight: normal; font-style: normal; fill: rgb(255,0,0)" text-anchor="middle" transform="matrix( 1.000 0.000 0.000 1.000 112.300 84.150 )">Bottom</text><path d="M 22.300 139.650 H 31.800 C 31.883 139.650 31.950 139.583 31.950 139.500 V 136.150 C 31.950 136.000 31.800 136.150 31.950 136.150 H 38.650 C 38.800 136.150 38.650 136.000 38.650 136.150 V 139.500 C 38.650 139.583 38.717 139.650 38.800 139.650 H 45.800 C 45.883 139.650 45.950 139.583 45.950 139.500 V 136.150 C 45.950 136.000 45.800 136.150 45.950 136.150 H 52.650 C 52.800 136.150 52.650 136.000 52.650 136.150 V 139.500 C 52.650 139.583 52.717 139.650 52.800 139.650 H 59.800 C 59.883 139.650 59.950 139.583 59.950 139.500 V 136.150 C 59.950 136.000 59.800 136.150 59.950 136.150 H 66.650 C 66.800 136.150 66.650 136.000 66.650 136.150 V 139.500 C 66.650 139.583 66.717 139.650 66.800 139.650 H 73.800 C 73.883 139.650 73.950 139.583 73.950 139.500 V 136.150 C 73.950 136.000 73.800 136.150 73.950 136.150 H 80.650 C 80.800 136.150 80.650 136.000 80.650 136.150 V 139.500 C 80.650 139.583 80.717 139.650 80.800 139.650 H 87.800 C 87.883 139.650 87.950 139.583 87.950 139.500 V 136.150 C 87.950 136.000 87.800 136.150 87.950 136.150 H 94.650 C 94.800 136.150 94.650 136.000 94.650 136.150 V 139.500 C 94.650 139.583 94.717 139.650 94.800 139.650 H 101.800 C 101.883 139.650 101.950 139.583 101.950 139.500 V 136.150 C 101.950 136.000 101.800 136.150 101.950 136.150 H 108.650 C 108.800 136.150 108.650 136.000 108.650 136.150 V 139.500 C 108.650 139.583 108.717 139.650 108.800 139.650 H 115.800 C 115.883 139.650 115.950 139.583 115.950 139.500 V 136.150 C 115.950 136.000 115.800 136.150 115.950 136.150 H 122.650 C 122.800 136.150 122.650 136.000 122.650 136.150 V 139.500 C 122.650 139.583 122.717 139.650 122.800 139.650 H 129.800 C 129.883 139.650 129.950 139.583 129.950 139.500 V 136.150 C 129.950 136.000 129.800 136.150 129.950 136.150 H 136.650 C 136.800 136.150 136.650 136.000 136.650 136.150 V 139.500 C 136.650 139.583 136.717 139.650 136.800 139.650 H 143.800 C 143.883 139.650 143.950 139.583 143.950 139.500 V 136.150 C 143.950 136.000 143.800 136.150 143.950 136.150 H 150.650 C 150.800 136.150 150.650 136.000 150.650 136.150 V 139.500 C 150.650 139.583 150.717 139.650 150.800 139.650 H 157.800 C 157.883 139.650 157.950 139.583 157.950 139.500 V 136.150 C 157.950 136.000 157.800 136.150 157.950 136.150 H 164.650 C 164.800 136.150 164.650 136.000 164.650 136.150 V 139.500 C 164.650 139.583 164.717 139.650 164.800 139.650 H 171.800 C 171.883 139.650 171.950 139.583 171.950 139.500 V 136.150 C 171.950 136.000 171.800 136.150 171.950 136.150 H 178.650 C 178.800 136.150 178.650 136.000 178.650 136.150 V 139.500 C 178.650 139.583 178.717 139.650 178.800 139.650 H 185.800 C 185.883 139.650 185.950 139.583 185.950 139.500 V 136.150 C 185.950 136.000 185.800 136.150 185.950 136.150 H 192.650 C 192.800 136.150 192.650 136.000 192.650 136.150 V 139.500 C 192.650 139.583 192.717 139.650 192.800 139.650 H 202.300 H 205.800 C 205.883 139.650 205.950 139.583 205.950 139.500 V 136.000 V 124.500 C 205.950 124.417 205.883 124.350 205.800 124.350 H 202.450 C 202.300 124.350 202.450 124.500 202.450 124.350 V 117.650 C 202.450 117.500 202.300 117.650 202.450 117.650 H 205.800 C 205.883 117.650 205.950 117.583 205.950 117.500 V 110.500 C 205.950 110.417 205.883 110.350 205.800 110.350 H 202.450 C 202.300 110.350 202.450 110.500 202.450 110.350 V 103.650 C 202.450 103.500 202.300 103.650 202.450 103.650 H 205.800 C 205.883 103.650 205.950 103.583 205.950 103.500 V 96.500 C 205.950 96.417 205.883 96.350 205.800 96.350 H 202.450 C 202.300 96.350 202.450 96.500 202.450 96.350 V 89.650 C 202.450 89.500 202.300 89.650 202.450 89.650 H 205.800 C 205.883 89.650 205.950 89.583 205.950 89.500 V 82.500 C 205.950 82.417 205.883 82.350 205.800 82.350 H 202.450 C 202.300 82.350 202.450 82.500 202.450 82.350 V 75.650 C 202.450 75.500 202.300 75.650 202.450 75.650 H 205.800 C 205.883 75.650 205.950 75.583 205.950 75.500 V 68.500 C 205.950 68.417 205.883 68.350 205.800 68.350 H 202.450 C 202.300 68.350 202.450 68.500 202.450 68.350 V 61.650 C 202.450 61.500 202.300 61.650 202.450 61.650 H 205.800 C 205.883 61.650 205.950 61.583 205.950 61.500 V 54.500 C 205.950 54.417 205.883 54.350 205.800 54.350 H 202.450 C 202.300 54.350 202.450 54.500 202.450 54.350 V 47.650 C 202.450 47.500 202.300 47.650 202.450 47.650 H 205.800 C 205.883 47.650 205.950 47.583 205.950 47.500 V 36.000 V 32.500 C 205.950 32.417 205.883 32.350 205.800 32.350 H 202.300 H 192.800 C 192.717 32.350 192.650 32.417 192.650 32.500 V 35.850 C 192.650 36.000 192.800 35.850 192.650 35.850 H 185.950 C 185.800 35.850 185.950 36.000 185.950 35.850 V 32.500 C 185.950 32.417 185.883 32.350 185.800 32.350 H 178.800 C 178.717 32.350 178.650 32.417 178.650 32.500 V 35.850 C 178.650 36.000 178.800 35.850 178.650 35.850 H 171.950 C 171.800 35.850 171.950 36.000 171.950 35.850 V 32.500 C 171.950 32.417 171.883 32.350 171.800 32.350 H 164.800 C 164.717 32.350 164.650 32.417 164.650 32.500 V 35.850 C 164.650 36.000 164.800 35.850 164.650 35.850 H 157.950 C 157.800 35.850 157.950 36.000 157.950 35.850 V 32.500 C 157.950 32.417 157.883 32.350 157.800 32.350 H 150.800 C 150.717 32.350 150.650 32.417 150.650 32.500 V 35.850 C 150.650 36.000 150.800 35.850 150.650 35.850 H 143.950 C 143.800 35.850 143.950 36.000 143.950 35.850 V 32.500 C 143.950 32.417 143.883 32.350 143.800 32.350 H 136.800 C 136.717 32.350 136.650 32.417 136.650 32.500 V 35.850 C 136.650 36.000 136.800 35.850 136.650 35.850 H 129.950 C 129.800 35.850 129.950 36.000 129.950 35.850 V 32.500 C 129.950 32.417 129.883 32.350 129.800 32.350 H 122.800 C 122.717 32.350 122.650 32.417 122.650 32.500 V 35.850 C 122.650 36.000 122.800 35.850 122.650 35.850 H 115.950 C 115.800 35.850 115.950 36.000 115.950 35.850 V 32.500 C 115.950 32.417 115.883 32.350 115.800 32.350 H 108.800 C 108.717 32.350 108.650 32.417 108.650 32.500 V 35.850 C 108.650 36.000 108.800 35.850 108.650 35.850 H 101.950 C 101.800 35.850 101.950 36.000 101.950 35.850 V 32.500 C 101.950 32.417 101.883 32.350 101.800 32.350 H 94.800 C 94.717 32.350 94.650 32.417 94.650 32.500 V 35.850 C 94.650 36.000 94.800 35.850 94.650 35.850 H 87.950 C 87.800 35.850 87.950 36.000 87.950 35.850 V 32.500 C 87.950 32.417 87.883 32.350 87.800 32.350 H 80.800 C 80.717 32.350 80.650 32.417 80.650 32.500 V 35.850 C 80.650 36.000 80.800 35.850 80.650 35.850 H 73.950 C 73.800 35.850 73.950 36.000 73.950 35.850 V 32.500 C 73.950 32.417 73.883 32.350 73.800 32.350 H 66.800 C 66.717 32.350 66.650 32.417 66.650 32.500 V 35.850 C 66.650 36.000 66.800 35.850 66.650 35.850 H 59.950 C 59.800 35.850 59.950 36.000 59.950 35.850 V 32.500 C 59.950 32.417 59.883 32.350 59.800 32.350 H 52.800 C 52.717 32.350 52.650 32.417 52.650 32.500 V 35.850 C 52.650 36.000 52.800 35.850 52.650 35.850 H 45.950 C 45.800 35.850 45.950 36.000 45.950 35.850 V 32.500 C 45.950 32.417 45.883 32.350 45.800 32.350 H 38.800 C 38.717 32.350 38.650 32.417 38.650 32.500 V 35.850 C 38.650 36.000 38.800 35.850 38.650 35.850 H 31.950 C 31.800 35.850 31.950 36.000 31.950 35.850 V 32.500 C 31.950 32.417 31.883 32.350 31.800 32.350 H 22.300 H 18.800 C 18.717 32.350 18.650 32.417 18.650 32.500 V 36.000 V 47.500 C 18.650 47.583 18.717 47.650 18.800 47.650 H 22.150 C 22.300 47.650 22.150 47.500 22.150 47.650 V 54.350 C 22.150 54.500 22.300 54.350 22.150 54.350 H 18.800 C 18.717 54.350 18.650 54.417 18.650 54.500 V 61.500 C 18.650 61.583 18.717 61.650 18.800 61.650 H 22.150 C 22.300 61.650 22.150 61.500 22.150 61.650 V 68.350 C 22.150 68.500 22.300 68.350 22.150 68.350 H 18.800 C 18.717 68.350 18.650 68.417 18.650 68.500 V 75.500 C 18.650 75.583 18.717 75.650 18.800 75.650 H 22.150 C 22.300 75.650 22.150 75.500 22.150 75.650 V 82.350 C 22.150 82.500 22.300 82.350 22.150 82.350 H 18.800 C 18.717 82.350 18.650 82.417 18.650 82.500 V 89.500 C 18.650 89.583 18.717 89.650 18.800 89.650 H 22.150 C 22.300 89.650 22.150 89.500 22.150 89.650 V 96.350 C 22.150 96.500 22.300 96.350 22.150 96.350 H 18.800 C 18.717 96.350 18.650 96.417 18.650 96.500 V 103.500 C 18.650 103.583 18.717 103.650 18.800 103.650 H 22.150 C 22.300 103.650 22.150 103.500 22.150 103.650 V 110.350 C 22.150 110.500 22.300 110.350 22.150 110.350 H 18.800 C 18.717 110.350 18.650 110.417 18.650 110.500 V 117.500 C 18.650 117.583 18.717 117.650 18.800 117.650 H 22.150 C 22.300 117.650 22.150 117.500 22.150 117.650 V 124.350 C 22.150 124.500 22.300 124.350 22.150 124.350 H 18.800 C 18.717 124.350 18.650 124.417 18.650 124.500 V 136.000 V 139.500 C 18.650 139.583 18.717 139.650 18.800 139.650 H 22.300" stroke="rgb(0,0,0)" stroke-width="0.30"/>
  <path d="M 195.300 128.150 C 195.463 128.150 195.622 128.197 195.760 128.285 C 195.897 128.373 196.005 128.499 196.073 128.647 C 196.141 128.795 196.165 128.960 196.141 129.121 C 196.118 129.282 196.049 129.433 195.942 129.557 C 195.836 129.680 195.696 129.770 195.539 129.816 C 195.383 129.861 195.217 129.861 195.061 129.816 C 194.904 129.770 194.764 129.680 194.658 129.557 C 194.551 129.433 194.482 129.282 194.459 129.121 C 194.435 128.960 194.459 128.795 194.527 128.647 C 194.595 128.499 194.703 128.373 194.840 128.285 C 194.978 128.197 195.137 128.150 195.300 128.150 Z" stroke="rgb(0,0,255)" stroke-width="0.30"/>
  <path d="M 194.450 43.000 C 194.450 42.837 194.497 42.678 194.585 42.540 C 194.673 42.403 194.799 42.295 194.947 42.227 C 195.095 42.159 195.260 42.135 195.421 42.159 C 195.582 42.182 195.733 42.251 195.857 42.358 C 195.980 42.464 196.070 42.604 196.116 42.761 C 196.161 42.917 196.161 43.083 196.116 43.239 C 196.070 43.396 195.980 43.536 195.857 43.642 C 195.733 43.749 195.582 43.818 195.421 43.841 C 195.260 43.865 195.095 43.841 194.947 43.773 C 194.799 43.705 194.673 43.597 194.585 43.460 C 194.497 43.322 194.450 43.163 194.450 43.000 Z" stroke="rgb(0,0,255)" stroke-width="0.30"/>
  <path d="M 29.300 43.850 C 29.137 43.850 28.978 43.803 28.840 43.715 C 28.703 43.627 28.595 43.501 28.527 43.353 C 28.459 43.205 28.435 43.040 28.459 42.879 C 28.482 42.718 28.551 42.567 28.658 42.443 C 28.764 42.320 28.904 42.230 29.061 42.184 C 29.217 42.139 29.383 42.139 29.539 42.184 C 29.696 42.230 29.836 42.320 29.942 42.443 C 30.049 42.567 30.118 42.718 30.141 42.879 C 30.165 43.040 30.141 43.205 30.073 43.353 C 30.005 43.501 29.897 43.627 29.760 43.715 C 29.622 43.803 29.463 43.850 29.300 43.850 Z" stroke="rgb(0,0,255)" stroke-width="0.30"/>
</g>
<g id="p-6" style="fill:none;stroke-linecap:round;stroke-linejoin:round;">
  <path d="M 215.367 132.833 C 215.367 132.996 215.320 133.156 215.232 133.293 C 215.144 133.430 215.018 133.539 214.870 133.607 C 214.722 133.674 214.557 133.698 214.396 133.675 C 214.234 133.651 214.083 133.582 213.960 133.476 C 213.837 133.369 213.747 133.229 213.701 133.073 C 213.655 132.916 213.655 132.750 213.701 132.594 C 213.747 132.438 213.837 132.298 213.960 132.191 C 214.083 132.084 214.234 132.015 214.396 131.992 C 214.557 131.969 214.722 131.992 214.870 132.060 C 215.018 132.128 215.144 132.237 215.232 132.374 C 215.320 132.511 215.367 132.670 215.367 132.833 Z" stroke="rgb(0,0,255)" stroke-width="0.30"/>
  <text dominant-baseline="hanging" font-size="4px" style="font-family: sans-serif ; font-weight: normal; font-style: normal; fill: rgb(255,0,0)" text-anchor="middle" transform="matrix( 1.000 0.000 0.000 1.000 297.850 87.650 )">Top</text><path d="M 207.850 139.650 H 387.850 C 387.933 139.650 388.000 139.583 388.000 139.500 V 39.500 C 388.000 39.417 387.933 39.350 387.850 39.350 H 207.850 C 207.767 39.350 207.700 39.417 207.700 39.500 V 139.500 C 207.700 139.583 207.767 139.650 207.850 139.650" stroke="rgb(0,0,0)" stroke-width="0.30"/>
  <path d="M 381.183 131.983 C 381.346 131.983 381.506 132.030 381.643 132.118 C 381.780 132.206 381.889 132.332 381.957 132.480 C 382.024 132.628 382.048 132.793 382.025 132.954 C 382.001 133.116 381.932 133.267 381.826 133.390 C 381.719 133.513 381.579 133.603 381.423 133.649 C 381.266 133.695 381.100 133.695 380.944 133.649 C 380.788 133.603 380.648 133.513 380.541 133.390 C 380.434 133.267 380.365 133.116 380.342 132.954 C 380.319 132.793 380.342 132.628 380.410 132.480 C 380.478 132.332 380.587 132.206 380.724 132.118 C 380.861 132.030 381.020 131.983 381.183 131.983 Z" stroke="rgb(0,0,255)" stroke-width="0.30"/>
  <path d="M 380.333 46.167 C 380.333 46.004 380.380 45.844 380.468 45.707 C 380.556 45.570 380.682 45.461 380.830 45.393 C 380.978 45.326 381.143 45.302 381.304 45.325 C 381.466 45.349 381.617 45.418 381.740 45.524 C 381.863 45.631 381.953 45.771 381.999 45.927 C 382.045 46.084 382.045 46.250 381.999 46.406 C 381.953 46.562 381.863 46.702 381.740 46.809 C 381.617 46.916 381.466 46.985 381.304 47.008 C 381.143 47.031 380.978 47.008 380.830 46.940 C 380.682 46.872 380.556 46.763 380.468 46.626 C 380.380 46.489 380.333 46.330 380.333 46.167 Z" stroke="rgb(0,0,255)" stroke-width="0.30"/>
  <path d="M 214.517 47.017 C 214.354 47.017 214.194 46.970 214.057 46.882 C 213.920 46.794 213.811 46.668 213.743 46.520 C 213.676 46.372 213.652 46.207 213.675 46.046 C 213.699 45.884 213.768 45.733 213.874 45.610 C 213.981 45.487 214.121 45.397 214.277 45.351 C 214.434 45.305 214.600 45.305 214.756 45.351 C 214.912 45.397 215.052 45.487 215.159 45.610 C 215.266 45.733 215.335 45.884 215.358 46.046 C 215.381 46.207 215.358 46.372 215.290 46.520 C 215.222 46.668 215.113 46.794 214.976 46.882 C 214.839 46.970 214.680 47.017 214.517 47.017 Z" stroke="rgb(0,0,255)" stroke-width="0.30"/>
</g>
<g id="p-7" style="fill:none;stroke-linecap:round;stroke-linejoin:round;">
  <path d="M 217.148 34.100 H 223.498 C 223.648 34.100 223.498 33.950 223.498 34.100 V 37.450 C 223.498 37.533 223.565 37.600 223.648 37.600 H 230.648 C 230.731 37.600 230.798 37.533 230.798 37.450 V 34.100 C 230.798 33.950 230.648 34.100 230.798 34.100 H 237.148 C 237.231 34.100 237.298 34.033 237.298 33.950 V 27.600 C 237.298 27.450 237.148 27.600 237.298 27.600 H 240.648 C 240.731 27.600 240.798 27.533 240.798 27.450 V 20.450 C 240.798 20.367 240.731 20.300 240.648 20.300 H 237.298 C 237.148 20.300 237.298 20.450 237.298 20.300 V 13.950 C 237.298 13.867 237.231 13.800 237.148 13.800 C 237.108 13.800 237.070 13.816 237.042 13.844 L 217.042 33.844 C 217.014 33.872 216.998 33.910 216.998 33.950 C 216.998 34.033 217.065 34.100 217.148 34.100 Z" stroke="rgb(0,0,0)" stroke-width="0.30"/>
  <path d="M 230.482 26.933 C 230.549 26.933 230.614 26.953 230.671 26.989 C 230.727 27.025 230.772 27.077 230.800 27.138 C 230.828 27.199 230.838 27.267 230.828 27.333 C 230.818 27.400 230.790 27.462 230.746 27.513 C 230.702 27.563 230.645 27.600 230.580 27.619 C 230.516 27.638 230.447 27.638 230.383 27.619 C 230.319 27.600 230.261 27.563 230.217 27.513 C 230.173 27.462 230.145 27.400 230.135 27.333 C 230.126 27.267 230.135 27.199 230.163 27.138 C 230.191 27.077 230.236 27.025 230.292 26.989 C 230.349 26.953 230.415 26.933 230.482 26.933 Z" stroke="rgb(0,0,255)" stroke-width="0.30"/>
  <path d="M 231.350 13.500 H 225.000 C 224.850 13.500 225.000 13.650 225.000 13.500 V 10.150 C 225.000 10.067 224.933 10.000 224.850 10.000 H 217.850 C 217.767 10.000 217.700 10.067 217.700 10.150 V 13.500 C 217.700 13.650 217.850 13.500 217.700 13.500 H 211.350 C 211.267 13.500 211.200 13.567 211.200 13.650 V 20.000 C 211.200 20.150 211.350 20.000 211.200 20.000 H 207.850 C 207.767 20.000 207.700 20.067 207.700 20.150 V 27.150 C 207.700 27.233 207.767 27.300 207.850 27.300 H 211.200 C 211.350 27.300 211.200 27.150 211.200 27.300 V 33.650 C 211.200 33.733 211.267 33.800 211.350 33.800 C 211.390 33.800 211.428 33.784 211.456 33.756 L 231.456 13.756 C 231.484 13.728 231.500 13.690 231.500 13.650 C 231.500 13.567 231.433 13.500 231.350 13.500 Z" stroke="rgb(0,0,0)" stroke-width="0.30"/>
  <path d="M 218.017 20.667 C 217.950 20.667 217.884 20.647 217.827 20.611 C 217.771 20.575 217.726 20.523 217.698 20.462 C 217.670 20.401 217.661 20.333 217.670 20.267 C 217.680 20.200 217.708 20.138 217.752 20.087 C 217.796 20.037 217.854 20.000 217.918 19.981 C 217.982 19.962 218.051 19.962 218.115 19.981 C 218.180 20.000 218.237 20.037 218.281 20.087 C 218.325 20.138 218.354 20.200 218.363 20.267 C 218.373 20.333 218.363 20.401 218.335 20.462 C 218.307 20.523 218.262 20.575 218.206 20.611 C 218.149 20.647 218.084 20.667 218.017 20.667 Z" stroke="rgb(0,0,255)" stroke-width="0.30"/>
  <path d="M 251.997 34.100 H 258.347 C 258.497 34.100 258.347 33.950 258.347 34.100 V 37.450 C 258.347 37.533 258.414 37.600 258.497 37.600 H 265.497 C 265.579 37.600 265.647 37.533 265.647 37.450 V 34.100 C 265.647 33.950 265.497 34.100 265.647 34.100 H 271.997 C 272.079 34.100 272.147 34.033 272.147 33.950 V 27.600 C 272.147 27.450 271.997 27.600 272.147 27.600 H 275.497 C 275.579 27.600 275.647 27.533 275.647 27.450 V 20.450 C 275.647 20.367 275.579 20.300 275.497 20.300 H 272.147 C 271.997 20.300 272.147 20.450 272.147 20.300 V 13.950 C 272.147 13.867 272.079 13.800 271.997 13.800 C 271.957 13.800 271.919 13.816 271.890 13.844 L 251.890 33.844 C 251.862 33.872 251.847 33.910 251.847 33.950 C 251.847 34.033 251.914 34.100 251.997 34.100 Z" stroke="rgb(0,0,0)" stroke-width="0.30"/>
  <path d="M 265.330 26.933 C 265.397 26.933 265.463 26.953 265.519 26.989 C 265.576 27.025 265.620 27.077 265.648 27.138 C 265.676 27.199 265.686 27.267 265.676 27.333 C 265.667 27.400 265.638 27.462 265.594 27.513 C 265.550 27.563 265.493 27.600 265.428 27.619 C 265.364 27.638 265.296 27.638 265.231 27.619 C 265.167 27.600 265.109 27.563 265.065 27.513 C 265.021 27.462 264.993 27.400 264.983 27.333 C 264.974 27.267 264.984 27.199 265.012 27.138 C 265.039 27.077 265.084 27.025 265.141 26.989 C 265.197 26.953 265.263 26.933 265.330 26.933 Z" stroke="rgb(0,0,255)" stroke-width="0.30"/>
  <path d="M 266.198 13.500 H 259.848 C 259.698 13.500 259.848 13.650 259.848 13.500 V 10.150 C 259.848 10.067 259.781 10.000 259.698 10.000 H 252.698 C 252.615 10.000 252.548 10.067 252.548 10.150 V 13.500 C 252.548 13.650 252.698 13.500 252.548 13.500 H 246.198 C 246.115 13.500 246.048 13.567 246.048 13.650 V 20.000 C 246.048 20.150 246.198 20.000 246.048 20.000 H 242.698 C 242.615 20.000 242.548 20.067 242.548 20.150 V 27.150 C 242.548 27.233 242.615 27.300 242.698 27.300 H 246.048 C 246.198 27.300 246.048 27.150 246.048 27.300 V 33.650 C 246.048 33.733 246.115 33.800 246.198 33.800 C 246.238 33.800 246.276 33.784 246.304 33.756 L 266.304 13.756 C 266.332 13.728 266.348 13.690 266.348 13.650 C 266.348 13.567 266.281 13.500 266.198 13.500 Z" stroke="rgb(0,0,0)" stroke-width="0.30"/>
  <path d="M 252.865 20.667 C 252.798 20.667 252.732 20.647 252.676 20.611 C 252.619 20.575 252.574 20.523 252.547 20.462 C 252.519 20.401 252.509 20.333 252.519 20.267 C 252.528 20.200 252.556 20.138 252.600 20.087 C 252.644 20.037 252.702 20.000 252.766 19.981 C 252.831 19.962 252.899 19.962 252.964 19.981 C 253.028 20.000 253.086 20.037 253.129 20.087 C 253.173 20.138 253.202 20.200 253.211 20.267 C 253.221 20.333 253.211 20.401 253.183 20.462 C 253.155 20.523 253.111 20.575 253.054 20.611 C 252.998 20.647 252.932 20.667 252.865 20.667 Z" stroke="rgb(0,0,255)" stroke-width="0.30"/>
</g>
</svg>