<?xml version="1.0" encoding="UTF-8"?>
<svg height="78.63mm" viewBox="0.0 0.0 137.60 78.63" width="137.60mm" xmlns="http://www.w3.org/2000/svg" xmlns:cc="http://creativecommons.org/ns#" xmlns:dc="http://purl.org/dc/elements/1.1/" xmlns:inkscape="http://www.inkscape.org/namespaces/inkscape" xmlns:rdf="http://www.w3.org/1999/02/22-rdf-syntax-ns#" xmlns:svg="http://www.w3.org/2000/svg" xmlns:xlink="http://www.w3.org/1999/xlink">
<!--
HolePattern - Generate hole patterns in different simple shapes

Created with Boxes.py (https://festi.info/boxes.py)
Creation date: 2024-03-26 09:44:15
Command line (remove spaces between dashes): boxes HolePattern - -fillHoles_fill_pattern=square - -fillHoles_hole_max_radius=2 - -fillHoles_hole_min_radius=2 - -fillHoles_space_between_holes=2 - -fillHoles_space_to_border=2 - -x=60 - -y=50 - -shape=hexagon
Url: http://www.festi.info/boxes.py/HolePattern?fillHoles_bar_length=50&fillHoles_fill_pattern=square&fillHoles_hole_max_radius=2&fillHoles_hole_min_radius=2&fillHoles_hole_style=round&fillHoles_max_random=1000&fillHoles_space_between_holes=2&fillHoles_space_to_border=2&x=60&y=50&shape=hexagon&thickness=3.0&format=svg&tabs=0.0&qr_code=0&debug=0&labels=0&labels=1&reference=100&inner_corners=loop&burn=0.1&language=fr&render=1
Url short: http://www.festi.info/boxes.py/HolePattern?fillHoles_fill_pattern=square&fillHoles_hole_max_radius=2&fillHoles_hole_min_radius=2&fillHoles_space_between_holes=2&fillHoles_space_to_border=2&x=60&y=50&shape=hexagon
SettingsUrl: http://www.festi.info/boxes.py/HolePattern?fillHoles_bar_length=50&fillHoles_fill_pattern=square&fillHoles_hole_max_radius=2&fillHoles_hole_min_radius=2&fillHoles_hole_style=round&fillHoles_max_random=1000&fillHoles_space_between_holes=2&fillHoles_space_to_border=2&x=60&y=50&shape=hexagon&thickness=3.0&format=svg&tabs=0.0&qr_code=0&debug=0&labels=0&labels=1&reference=100&inner_corners=loop&burn=0.1&language=fr
SettingsUrl short: http://www.festi.info/boxes.py/HolePattern?fillHoles_fill_pattern=square&fillHoles_hole_max_radius=2&fillHoles_hole_min_radius=2&fillHoles_space_between_holes=2&fillHoles_space_to_border=2&x=60&y=50&shape=hexagon
-->
<title>HolePattern</title>
<metadata>
<rdf:RDF><cc:Work>
<dc:title>Holes - HolePattern</dc:title>
<dc:date>2024-03-26 09:44:15</dc:date>
<dc:source>http://www.festi.info/boxes.py/HolePattern?fillHoles_bar_length=50&amp;fillHoles_fill_pattern=square&amp;fillHoles_hole_max_radius=2&amp;fillHoles_hole_min_radius=2&amp;fillHoles_hole_style=round&amp;fillHoles_max_random=1000&amp;fillHoles_space_between_holes=2&amp;fillHoles_space_to_border=2&amp;x=60&amp;y=50&amp;shape=hexagon&amp;thickness=3.0&amp;format=svg&amp;tabs=0.0&amp;qr_code=0&amp;debug=0&amp;labels=0&amp;labels=1&amp;reference=100&amp;inner_corners=loop&amp;burn=0.1&amp;language=fr&amp;render=1</dc:source>
<dc:source>http://www.festi.info/boxes.py/HolePattern?fillHoles_fill_pattern=square&amp;fillHoles_hole_max_radius=2&amp;fillHoles_hole_min_radius=2&amp;fillHoles_space_between_holes=2&amp;fillHoles_space_to_border=2&amp;x=60&amp;y=50&amp;shape=hexagon</dc:source>
<dc:description>Generate hole patterns in different simple shapes

Created with Boxes.py (https://festi.info/boxes.py)
Command line: boxes HolePattern --fillHoles_bar_length=50 --fillHoles_fill_pattern=square --fillHoles_hole_max_radius=2 --fillHoles_hole_min_radius=2 --fillHoles_hole_style=round --fillHoles_max_random=1000 --fillHoles_space_between_holes=2 --fillHoles_space_to_border=2 --x=60 --y=50 --shape=hexagon --thickness=3.0 --format=svg --tabs=0.0 --qr_code=0 --debug=0 --labels=0 --labels=1 --reference=100 --inner_corners=loop --burn=0.1
Command line short: boxes HolePattern --fillHoles_fill_pattern=square --fillHoles_hole_max_radius=2 --fillHoles_hole_min_radius=2 --fillHoles_space_between_holes=2 --fillHoles_space_to_border=2 --x=60 --y=50 --shape=hexagon
Url: http://www.festi.info/boxes.py/HolePattern?fillHoles_bar_length=50&amp;fillHoles_fill_pattern=square&amp;fillHoles_hole_max_radius=2&amp;fillHoles_hole_min_radius=2&amp;fillHoles_hole_style=round&amp;fillHoles_max_random=1000&amp;fillHoles_space_between_holes=2&amp;fillHoles_space_to_border=2&amp;x=60&amp;y=50&amp;shape=hexagon&amp;thickness=3.0&amp;format=svg&amp;tabs=0.0&amp;qr_code=0&amp;debug=0&amp;labels=0&amp;labels=1&amp;reference=100&amp;inner_corners=loop&amp;burn=0.1&amp;language=fr&amp;render=1
Url short: http://www.festi.info/boxes.py/HolePattern?fillHoles_fill_pattern=square&amp;fillHoles_hole_max_radius=2&amp;fillHoles_hole_min_radius=2&amp;fillHoles_space_between_holes=2&amp;fillHoles_space_to_border=2&amp;x=60&amp;y=50&amp;shape=hexagon
SettingsUrl: http://www.festi.info/boxes.py/HolePattern?fillHoles_bar_length=50&amp;fillHoles_fill_pattern=square&amp;fillHoles_hole_max_radius=2&amp;fillHoles_hole_min_radius=2&amp;fillHoles_hole_style=round&amp;fillHoles_max_random=1000&amp;fillHoles_space_between_holes=2&amp;fillHoles_space_to_border=2&amp;x=60&amp;y=50&amp;shape=hexagon&amp;thickness=3.0&amp;format=svg&amp;tabs=0.0&amp;qr_code=0&amp;debug=0&amp;labels=0&amp;labels=1&amp;reference=100&amp;inner_corners=loop&amp;burn=0.1&amp;language=fr
SettingsUrl short: http://www.festi.info/boxes.py/HolePattern?fillHoles_fill_pattern=square&amp;fillHoles_hole_max_radius=2&amp;fillHoles_hole_min_radius=2&amp;fillHoles_space_between_holes=2&amp;fillHoles_space_to_border=2&amp;x=60&amp;y=50&amp;shape=hexagon
</dc:description>
</cc:Work></rdf:RDF></metadata>
<g id="p-0" style="fill:none;stroke-linecap:round;stroke-linejoin:round;">
  <path d="M 18.800 68.631 H 118.800 V 58.631 H 18.800 V 68.631 Z" stroke="rgb(0,0,0)" stroke-width="0.20"/>
  <text dominant-baseline="hanging" font-size="8px" style="font-family: sans-serif ; font-weight: normal; font-style: normal; fill: rgb(255,0,0)" text-anchor="middle" transform="matrix( 1.000 0.000 0.000 1.000 68.800 59.631 )">100.00mm, burn:0.10mm</text>
</g>
<g id="p-1" style="fill:none;stroke-linecap:round;stroke-linejoin:round;">
  <path d="M 41.050 53.781 C 41.050 54.126 40.951 54.464 40.764 54.754 C 40.578 55.044 40.312 55.275 39.998 55.418 C 39.684 55.562 39.335 55.612 38.994 55.563 C 38.652 55.514 38.332 55.367 38.071 55.141 C 37.810 54.915 37.620 54.619 37.523 54.288 C 37.426 53.957 37.426 53.605 37.523 53.274 C 37.620 52.943 37.810 52.647 38.071 52.421 C 38.332 52.195 38.652 52.048 38.994 51.999 C 39.335 51.950 39.684 52.000 39.998 52.144 C 40.312 52.287 40.578 52.518 40.764 52.808 C 40.951 53.098 41.050 53.436 41.050 53.781 Z" stroke="rgb(0,0,255)" stroke-width="0.20"/>
  <path d="M 46.850 53.781 C 46.850 54.126 46.751 54.464 46.564 54.754 C 46.378 55.044 46.112 55.275 45.798 55.418 C 45.484 55.562 45.135 55.612 44.794 55.563 C 44.452 55.514 44.132 55.367 43.871 55.141 C 43.610 54.915 43.420 54.619 43.323 54.288 C 43.226 53.957 43.226 53.605 43.323 53.274 C 43.420 52.943 43.610 52.647 43.871 52.421 C 44.132 52.195 44.452 52.048 44.794 51.999 C 45.135 51.950 45.484 52.000 45.798 52.144 C 46.112 52.287 46.378 52.518 46.564 52.808 C 46.751 53.098 46.850 53.436 46.850 53.781 Z" stroke="rgb(0,0,255)" stroke-width="0.20"/>
  <path d="M 52.650 53.781 C 52.650 54.126 52.551 54.464 52.364 54.754 C 52.178 55.044 51.912 55.275 51.598 55.418 C 51.284 55.562 50.935 55.612 50.594 55.563 C 50.252 55.514 49.932 55.367 49.671 55.141 C 49.410 54.915 49.220 54.619 49.123 54.288 C 49.026 53.957 49.026 53.605 49.123 53.274 C 49.220 52.943 49.410 52.647 49.671 52.421 C 49.932 52.195 50.252 52.048 50.594 51.999 C 50.935 51.950 51.284 52.000 51.598 52.144 C 51.912 52.287 52.178 52.518 52.364 52.808 C 52.551 53.098 52.650 53.436 52.650 53.781 Z" stroke="rgb(0,0,255)" stroke-width="0.20"/>
  <path d="M 58.450 53.781 C 58.450 54.126 58.351 54.464 58.164 54.754 C 57.978 55.044 57.712 55.275 57.398 55.418 C 57.084 55.562 56.735 55.612 56.394 55.563 C 56.052 55.514 55.732 55.367 55.471 55.141 C 55.210 54.915 55.020 54.619 54.923 54.288 C 54.826 53.957 54.826 53.605 54.923 53.274 C 55.020 52.943 55.210 52.647 55.471 52.421 C 55.732 52.195 56.052 52.048 56.394 51.999 C 56.735 51.950 57.084 52.000 57.398 52.144 C 57.712 52.287 57.978 52.518 58.164 52.808 C 58.351 53.098 58.450 53.436 58.450 53.781 Z" stroke="rgb(0,0,255)" stroke-width="0.20"/>
  <path d="M 35.250 47.781 C 35.250 48.126 35.151 48.464 34.964 48.754 C 34.778 49.045 34.512 49.275 34.198 49.418 C 33.884 49.562 33.535 49.612 33.194 49.563 C 32.852 49.514 32.532 49.367 32.271 49.141 C 32.010 48.915 31.820 48.619 31.723 48.288 C 31.626 47.957 31.626 47.605 31.723 47.274 C 31.820 46.943 32.010 46.647 32.271 46.421 C 32.532 46.195 32.852 46.049 33.194 45.999 C 33.535 45.950 33.884 46.000 34.198 46.144 C 34.512 46.287 34.778 46.518 34.964 46.808 C 35.151 47.098 35.250 47.436 35.250 47.781 Z" stroke="rgb(0,0,255)" stroke-width="0.20"/>
  <path d="M 41.050 47.781 C 41.050 48.126 40.951 48.464 40.764 48.754 C 40.578 49.045 40.312 49.275 39.998 49.418 C 39.684 49.562 39.335 49.612 38.994 49.563 C 38.652 49.514 38.332 49.367 38.071 49.141 C 37.810 48.915 37.620 48.619 37.523 48.288 C 37.426 47.957 37.426 47.605 37.523 47.274 C 37.620 46.943 37.810 46.647 38.071 46.421 C 38.332 46.195 38.652 46.049 38.994 45.999 C 39.335 45.950 39.684 46.000 39.998 46.144 C 40.312 46.287 40.578 46.518 40.764 46.808 C 40.951 47.098 41.050 47.436 41.050 47.781 Z" stroke="rgb(0,0,255)" stroke-width="0.20"/>
  <path d="M 46.850 47.781 C 46.850 48.126 46.751 48.464 46.564 48.754 C 46.378 49.045 46.112 49.275 45.798 49.418 C 45.484 49.562 45.135 49.612 44.794 49.563 C 44.452 49.514 44.132 49.367 43.871 49.141 C 43.610 48.915 43.420 48.619 43.323 48.288 C 43.226 47.957 43.226 47.605 43.323 47.274 C 43.420 46.943 43.610 46.647 43.871 46.421 C 44.132 46.195 44.452 46.049 44.794 45.999 C 45.135 45.950 45.484 46.000 45.798 46.144 C 46.112 46.287 46.378 46.518 46.564 46.808 C 46.751 47.098 46.850 47.436 46.850 47.781 Z" stroke="rgb(0,0,255)" stroke-width="0.20"/>
  <path d="M 52.650 47.781 C 52.650 48.126 52.551 48.464 52.364 48.754 C 52.178 49.045 51.912 49.275 51.598 49.418 C 51.284 49.562 50.935 49.612 50.594 49.563 C 50.252 49.514 49.932 49.367 49.671 49.141 C 49.410 48.915 49.220 48.619 49.123 48.288 C 49.026 47.957 49.026 47.605 49.123 47.274 C 49.220 46.943 49.410 46.647 49.671 46.421 C 49.932 46.195 50.252 46.049 50.594 45.999 C 50.935 45.950 51.284 46.000 51.598 46.144 C 51.912 46.287 52.178 46.518 52.364 46.808 C 52.551 47.098 52.650 47.436 52.650 47.781 Z" stroke="rgb(0,0,255)" stroke-width="0.20"/>
  <path d="M 58.450 47.781 C 58.450 48.126 58.351 48.464 58.164 48.754 C 57.978 49.045 57.712 49.275 57.398 49.418 C 57.084 49.562 56.735 49.612 56.394 49.563 C 56.052 49.514 55.732 49.367 55.471 49.141 C 55.210 48.915 55.020 48.619 54.923 48.288 C 54.826 47.957 54.826 47.605 54.923 47.274 C 55.020 46.943 55.210 46.647 55.471 46.421 C 55.732 46.195 56.052 46.049 56.394 45.999 C 56.735 45.950 57.084 46.000 57.398 46.144 C 57.712 46.287 57.978 46.518 58.164 46.808 C 58.351 47.098 58.450 47.436 58.450 47.781 Z" stroke="rgb(0,0,255)" stroke-width="0.20"/>
  <path d="M 64.250 47.781 C 64.250 48.126 64.151 48.464 63.964 48.754 C 63.778 49.045 63.512 49.275 63.198 49.418 C 62.884 49.562 62.535 49.612 62.194 49.563 C 61.852 49.514 61.532 49.367 61.271 49.141 C 61.010 48.915 60.820 48.619 60.723 48.288 C 60.626 47.957 60.626 47.605 60.723 47.274 C 60.820 46.943 61.010 46.647 61.271 46.421 C 61.532 46.195 61.852 46.049 62.194 45.999 C 62.535 45.950 62.884 46.000 63.198 46.144 C 63.512 46.287 63.778 46.518 63.964 46.808 C 64.151 47.098 64.250 47.436 64.250 47.781 Z" stroke="rgb(0,0,255)" stroke-width="0.20"/>
  <path d="M 29.450 41.781 C 29.450 42.126 29.351 42.464 29.164 42.754 C 28.978 43.045 28.712 43.275 28.398 43.419 C 28.084 43.562 27.735 43.612 27.394 43.563 C 27.052 43.514 26.732 43.367 26.471 43.142 C 26.210 42.916 26.020 42.619 25.923 42.288 C 25.826 41.957 25.826 41.605 25.923 41.274 C 26.020 40.943 26.210 40.647 26.471 40.421 C 26.732 40.195 27.052 40.049 27.394 40.000 C 27.735 39.950 28.084 40.000 28.398 40.144 C 28.712 40.287 28.978 40.518 29.164 40.808 C 29.351 41.098 29.450 41.436 29.450 41.781 Z" stroke="rgb(0,0,255)" stroke-width="0.20"/>
  <path d="M 35.250 41.781 C 35.250 42.126 35.151 42.464 34.964 42.754 C 34.778 43.045 34.512 43.275 34.198 43.419 C 33.884 43.562 33.535 43.612 33.194 43.563 C 32.852 43.514 32.532 43.367 32.271 43.142 C 32.010 42.916 31.820 42.619 31.723 42.288 C 31.626 41.957 31.626 41.605 31.723 41.274 C 31.820 40.943 32.010 40.647 32.271 40.421 C 32.532 40.195 32.852 40.049 33.194 40.000 C 33.535 39.950 33.884 40.000 34.198 40.144 C 34.512 40.287 34.778 40.518 34.964 40.808 C 35.151 41.098 35.250 41.436 35.250 41.781 Z" stroke="rgb(0,0,255)" stroke-width="0.20"/>
  <path d="M 41.050 41.781 C 41.050 42.126 40.951 42.464 40.764 42.754 C 40.578 43.045 40.312 43.275 39.998 43.419 C 39.684 43.562 39.335 43.612 38.994 43.563 C 38.652 43.514 38.332 43.367 38.071 43.142 C 37.810 42.916 37.620 42.619 37.523 42.288 C 37.426 41.957 37.426 41.605 37.523 41.274 C 37.620 40.943 37.810 40.647 38.071 40.421 C 38.332 40.195 38.652 40.049 38.994 40.000 C 39.335 39.950 39.684 40.000 39.998 40.144 C 40.312 40.287 40.578 40.518 40.764 40.808 C 40.951 41.098 41.050 41.436 41.050 41.781 Z" stroke="rgb(0,0,255)" stroke-width="0.20"/>
  <path d="M 46.850 41.781 C 46.850 42.126 46.751 42.464 46.564 42.754 C 46.378 43.045 46.112 43.275 45.798 43.419 C 45.484 43.562 45.135 43.612 44.794 43.563 C 44.452 43.514 44.132 43.367 43.871 43.142 C 43.610 42.916 43.420 42.619 43.323 42.288 C 43.226 41.957 43.226 41.605 43.323 41.274 C 43.420 40.943 43.610 40.647 43.871 40.421 C 44.132 40.195 44.452 40.049 44.794 40.000 C 45.135 39.950 45.484 40.000 45.798 40.144 C 46.112 40.287 46.378 40.518 46.564 40.808 C 46.751 41.098 46.850 41.436 46.850 41.781 Z" stroke="rgb(0,0,255)" stroke-width="0.20"/>
  <path d="M 52.650 41.781 C 52.650 42.126 52.551 42.464 52.364 42.754 C 52.178 43.045 51.912 43.275 51.598 43.419 C 51.284 43.562 50.935 43.612 50.594 43.563 C 50.252 43.514 49.932 43.367 49.671 43.142 C 49.410 42.916 49.220 42.619 49.123 42.288 C 49.026 41.957 49.026 41.605 49.123 41.274 C 49.220 40.943 49.410 40.647 49.671 40.421 C 49.932 40.195 50.252 40.049 50.594 40.000 C 50.935 39.950 51.284 40.000 51.598 40.144 C 51.912 40.287 52.178 40.518 52.364 40.808 C 52.551 41.098 52.650 41.436 52.650 41.781 Z" stroke="rgb(0,0,255)" stroke-width="0.20"/>
  <path d="M 58.450 41.781 C 58.450 42.126 58.351 42.464 58.164 42.754 C 57.978 43.045 57.712 43.275 57.398 43.419 C 57.084 43.562 56.735 43.612 56.394 43.563 C 56.052 43.514 55.732 43.367 55.471 43.142 C 55.210 42.916 55.020 42.619 54.923 42.288 C 54.826 41.957 54.826 41.605 54.923 41.274 C 55.020 40.943 55.210 40.647 55.471 40.421 C 55.732 40.195 56.052 40.049 56.394 40.000 C 56.735 39.950 57.084 40.000 57.398 40.144 C 57.712 40.287 57.978 40.518 58.164 40.808 C 58.351 41.098 58.450 41.436 58.450 41.781 Z" stroke="rgb(0,0,255)" stroke-width="0.20"/>
  <path d="M 64.250 41.781 C 64.250 42.126 64.151 42.464 63.964 42.754 C 63.778 43.045 63.512 43.275 63.198 43.419 C 62.884 43.562 62.535 43.612 62.194 43.563 C 61.852 43.514 61.532 43.367 61.271 43.142 C 61.010 42.916 60.820 42.619 60.723 42.288 C 60.626 41.957 60.626 41.605 60.723 41.274 C 60.820 40.943 61.010 40.647 61.271 40.421 C 61.532 40.195 61.852 40.049 62.194 40.000 C 62.535 39.950 62.884 40.000 63.198 40.144 C 63.512 40.287 63.778 40.518 63.964 40.808 C 64.151 41.098 64.250 41.436 64.250 41.781 Z" stroke="rgb(0,0,255)" stroke-width="0.20"/>
  <path d="M 70.050 41.781 C 70.050 42.126 69.951 42.464 69.764 42.754 C 69.578 43.045 69.312 43.275 68.998 43.419 C 68.684 43.562 68.335 43.612 67.994 43.563 C 67.652 43.514 67.332 43.367 67.071 43.142 C 66.810 42.916 66.620 42.619 66.523 42.288 C 66.426 41.957 66.426 41.605 66.523 41.274 C 66.620 40.943 66.810 40.647 67.071 40.421 C 67.332 40.195 67.652 40.049 67.994 40.000 C 68.335 39.950 68.684 40.000 68.998 40.144 C 69.312 40.287 69.578 40.518 69.764 40.808 C 69.951 41.098 70.050 41.436 70.050 41.781 Z" stroke="rgb(0,0,255)" stroke-width="0.20"/>
  <path d="M 29.450 35.781 C 29.450 36.126 29.351 36.464 29.164 36.754 C 28.978 37.045 28.712 37.275 28.398 37.419 C 28.084 37.562 27.735 37.612 27.394 37.563 C 27.052 37.514 26.732 37.368 26.471 37.142 C 26.210 36.916 26.020 36.619 25.923 36.288 C 25.826 35.957 25.826 35.605 25.923 35.274 C 26.020 34.943 26.210 34.647 26.471 34.421 C 26.732 34.195 27.052 34.049 27.394 34.000 C 27.735 33.950 28.084 34.001 28.398 34.144 C 28.712 34.287 28.978 34.518 29.164 34.808 C 29.351 35.098 29.450 35.436 29.450 35.781 Z" stroke="rgb(0,0,255)" stroke-width="0.20"/>
  <path d="M 35.250 35.781 C 35.250 36.126 35.151 36.464 34.964 36.754 C 34.778 37.045 34.512 37.275 34.198 37.419 C 33.884 37.562 33.535 37.612 33.194 37.563 C 32.852 37.514 32.532 37.368 32.271 37.142 C 32.010 36.916 31.820 36.619 31.723 36.288 C 31.626 35.957 31.626 35.605 31.723 35.274 C 31.820 34.943 32.010 34.647 32.271 34.421 C 32.532 34.195 32.852 34.049 33.194 34.000 C 33.535 33.950 33.884 34.001 34.198 34.144 C 34.512 34.287 34.778 34.518 34.964 34.808 C 35.151 35.098 35.250 35.436 35.250 35.781 Z" stroke="rgb(0,0,255)" stroke-width="0.20"/>
  <path d="M 41.050 35.781 C 41.050 36.126 40.951 36.464 40.764 36.754 C 40.578 37.045 40.312 37.275 39.998 37.419 C 39.684 37.562 39.335 37.612 38.994 37.563 C 38.652 37.514 38.332 37.368 38.071 37.142 C 37.810 36.916 37.620 36.619 37.523 36.288 C 37.426 35.957 37.426 35.605 37.523 35.274 C 37.620 34.943 37.810 34.647 38.071 34.421 C 38.332 34.195 38.652 34.049 38.994 34.000 C 39.335 33.950 39.684 34.001 39.998 34.144 C 40.312 34.287 40.578 34.518 40.764 34.808 C 40.951 35.098 41.050 35.436 41.050 35.781 Z" stroke="rgb(0,0,255)" stroke-width="0.20"/>
  <path d="M 46.850 35.781 C 46.850 36.126 46.751 36.464 46.564 36.754 C 46.378 37.045 46.112 37.275 45.798 37.419 C 45.484 37.562 45.135 37.612 44.794 37.563 C 44.452 37.514 44.132 37.368 43.871 37.142 C 43.610 36.916 43.420 36.619 43.323 36.288 C 43.226 35.957 43.226 35.605 43.323 35.274 C 43.420 34.943 43.610 34.647 43.871 34.421 C 44.132 34.195 44.452 34.049 44.794 34.000 C 45.135 33.950 45.484 34.001 45.798 34.144 C 46.112 34.287 46.378 34.518 46.564 34.808 C 46.751 35.098 46.850 35.436 46.850 35.781 Z" stroke="rgb(0,0,255)" stroke-width="0.20"/>
  <path d="M 52.650 35.781 C 52.650 36.126 52.551 36.464 52.364 36.754 C 52.178 37.045 51.912 37.275 51.598 37.419 C 51.284 37.562 50.935 37.612 50.594 37.563 C 50.252 37.514 49.932 37.368 49.671 37.142 C 49.410 36.916 49.220 36.619 49.123 36.288 C 49.026 35.957 49.026 35.605 49.123 35.274 C 49.220 34.943 49.410 34.647 49.671 34.421 C 49.932 34.195 50.252 34.049 50.594 34.000 C 50.935 33.950 51.284 34.001 51.598 34.144 C 51.912 34.287 52.178 34.518 52.364 34.808 C 52.551 35.098 52.650 35.436 52.650 35.781 Z" stroke="rgb(0,0,255)" stroke-width="0.20"/>
  <path d="M 58.450 35.781 C 58.450 36.126 58.351 36.464 58.164 36.754 C 57.978 37.045 57.712 37.275 57.398 37.419 C 57.084 37.562 56.735 37.612 56.394 37.563 C 56.052 37.514 55.732 37.368 55.471 37.142 C 55.210 36.916 55.020 36.619 54.923 36.288 C 54.826 35.957 54.826 35.605 54.923 35.274 C 55.020 34.943 55.210 34.647 55.471 34.421 C 55.732 34.195 56.052 34.049 56.394 34.000 C 56.735 33.950 57.084 34.001 57.398 34.144 C 57.712 34.287 57.978 34.518 58.164 34.808 C 58.351 35.098 58.450 35.436 58.450 35.781 Z" stroke="rgb(0,0,255)" stroke-width="0.20"/>
  <path d="M 64.250 35.781 C 64.250 36.126 64.151 36.464 63.964 36.754 C 63.778 37.045 63.512 37.275 63.198 37.419 C 62.884 37.562 62.535 37.612 62.194 37.563 C 61.852 37.514 61.532 37.368 61.271 37.142 C 61.010 36.916 60.820 36.619 60.723 36.288 C 60.626 35.957 60.626 35.605 60.723 35.274 C 60.820 34.943 61.010 34.647 61.271 34.421 C 61.532 34.195 61.852 34.049 62.194 34.000 C 62.535 33.950 62.884 34.001 63.198 34.144 C 63.512 34.287 63.778 34.518 63.964 34.808 C 64.151 35.098 64.250 35.436 64.250 35.781 Z" stroke="rgb(0,0,255)" stroke-width="0.20"/>
  <path d="M 70.050 35.781 C 70.050 36.126 69.951 36.464 69.764 36.754 C 69.578 37.045 69.312 37.275 68.998 37.419 C 68.684 37.562 68.335 37.612 67.994 37.563 C 67.652 37.514 67.332 37.368 67.071 37.142 C 66.810 36.916 66.620 36.619 66.523 36.288 C 66.426 35.957 66.426 35.605 66.523 35.274 C 66.620 34.943 66.810 34.647 67.071 34.421 C 67.332 34.195 67.652 34.049 67.994 34.000 C 68.335 33.950 68.684 34.001 68.998 34.144 C 69.312 34.287 69.578 34.518 69.764 34.808 C 69.951 35.098 70.050 35.436 70.050 35.781 Z" stroke="rgb(0,0,255)" stroke-width="0.20"/>
  <path d="M 29.450 29.781 C 29.450 30.126 29.351 30.464 29.164 30.755 C 28.978 31.045 28.712 31.275 28.398 31.419 C 28.084 31.562 27.735 31.612 27.394 31.563 C 27.052 31.514 26.732 31.368 26.471 31.142 C 26.210 30.916 26.020 30.620 25.923 30.288 C 25.826 29.957 25.826 29.605 25.923 29.274 C 26.020 28.943 26.210 28.647 26.471 28.421 C 26.732 28.195 27.052 28.049 27.394 28.000 C 27.735 27.951 28.084 28.001 28.398 28.144 C 28.712 28.287 28.978 28.518 29.164 28.808 C 29.351 29.099 29.450 29.436 29.450 29.781 Z" stroke="rgb(0,0,255)" stroke-width="0.20"/>
  <path d="M 35.250 29.781 C 35.250 30.126 35.151 30.464 34.964 30.755 C 34.778 31.045 34.512 31.275 34.198 31.419 C 33.884 31.562 33.535 31.612 33.194 31.563 C 32.852 31.514 32.532 31.368 32.271 31.142 C 32.010 30.916 31.820 30.620 31.723 30.288 C 31.626 29.957 31.626 29.605 31.723 29.274 C 31.820 28.943 32.010 28.647 32.271 28.421 C 32.532 28.195 32.852 28.049 33.194 28.000 C 33.535 27.951 33.884 28.001 34.198 28.144 C 34.512 28.287 34.778 28.518 34.964 28.808 C 35.151 29.099 35.250 29.436 35.250 29.781 Z" stroke="rgb(0,0,255)" stroke-width="0.20"/>
  <path d="M 41.050 29.781 C 41.050 30.126 40.951 30.464 40.764 30.755 C 40.578 31.045 40.312 31.275 39.998 31.419 C 39.684 31.562 39.335 31.612 38.994 31.563 C 38.652 31.514 38.332 31.368 38.071 31.142 C 37.810 30.916 37.620 30.620 37.523 30.288 C 37.426 29.957 37.426 29.605 37.523 29.274 C 37.620 28.943 37.810 28.647 38.071 28.421 C 38.332 28.195 38.652 28.049 38.994 28.000 C 39.335 27.951 39.684 28.001 39.998 28.144 C 40.312 28.287 40.578 28.518 40.764 28.808 C 40.951 29.099 41.050 29.436 41.050 29.781 Z" stroke="rgb(0,0,255)" stroke-width="0.20"/>
  <path d="M 46.850 29.781 C 46.850 30.126 46.751 30.464 46.564 30.755 C 46.378 31.045 46.112 31.275 45.798 31.419 C 45.484 31.562 45.135 31.612 44.794 31.563 C 44.452 31.514 44.132 31.368 43.871 31.142 C 43.610 30.916 43.420 30.620 43.323 30.288 C 43.226 29.957 43.226 29.605 43.323 29.274 C 43.420 28.943 43.610 28.647 43.871 28.421 C 44.132 28.195 44.452 28.049 44.794 28.000 C 45.135 27.951 45.484 28.001 45.798 28.144 C 46.112 28.287 46.378 28.518 46.564 28.808 C 46.751 29.099 46.850 29.436 46.850 29.781 Z" stroke="rgb(0,0,255)" stroke-width="0.20"/>
  <path d="M 52.650 29.781 C 52.650 30.126 52.551 30.464 52.364 30.755 C 52.178 31.045 51.912 31.275 51.598 31.419 C 51.284 31.562 50.935 31.612 50.594 31.563 C 50.252 31.514 49.932 31.368 49.671 31.142 C 49.410 30.916 49.220 30.620 49.123 30.288 C 49.026 29.957 49.026 29.605 49.123 29.274 C 49.220 28.943 49.410 28.647 49.671 28.421 C 49.932 28.195 50.252 28.049 50.594 28.000 C 50.935 27.951 51.284 28.001 51.598 28.144 C 51.912 28.287 52.178 28.518 52.364 28.808 C 52.551 29.099 52.650 29.436 52.650 29.781 Z" stroke="rgb(0,0,255)" stroke-width="0.20"/>
  <path d="M 58.450 29.781 C 58.450 30.126 58.351 30.464 58.164 30.755 C 57.978 31.045 57.712 31.275 57.398 31.419 C 57.084 31.562 56.735 31.612 56.394 31.563 C 56.052 31.514 55.732 31.368 55.471 31.142 C 55.210 30.916 55.020 30.620 54.923 30.288 C 54.826 29.957 54.826 29.605 54.923 29.274 C 55.020 28.943 55.210 28.647 55.471 28.421 C 55.732 28.195 56.052 28.049 56.394 28.000 C 56.735 27.951 57.084 28.001 57.398 28.144 C 57.712 28.287 57.978 28.518 58.164 28.808 C 58.351 29.099 58.450 29.436 58.450 29.781 Z" stroke="rgb(0,0,255)" stroke-width="0.20"/>
  <path d="M 64.250 29.781 C 64.250 30.126 64.151 30.464 63.964 30.755 C 63.778 31.045 63.512 31.275 63.198 31.419 C 62.884 31.562 62.535 31.612 62.194 31.563 C 61.852 31.514 61.532 31.368 61.271 31.142 C 61.010 30.916 60.820 30.620 60.723 30.288 C 60.626 29.957 60.626 29.605 60.723 29.274 C 60.820 28.943 61.010 28.647 61.271 28.421 C 61.532 28.195 61.852 28.049 62.194 28.000 C 62.535 27.951 62.884 28.001 63.198 28.144 C 63.512 28.287 63.778 28.518 63.964 28.808 C 64.151 29.099 64.250 29.436 64.250 29.781 Z" stroke="rgb(0,0,255)" stroke-width="0.20"/>
  <path d="M 70.050 29.781 C 70.050 30.126 69.951 30.464 69.764 30.755 C 69.578 31.045 69.312 31.275 68.998 31.419 C 68.684 31.562 68.335 31.612 67.994 31.563 C 67.652 31.514 67.332 31.368 67.071 31.142 C 66.810 30.916 66.620 30.620 66.523 30.288 C 66.426 29.957 66.426 29.605 66.523 29.274 C 66.620 28.943 66.810 28.647 67.071 28.421 C 67.332 28.195 67.652 28.049 67.994 28.000 C 68.335 27.951 68.684 28.001 68.998 28.144 C 69.312 28.287 69.578 28.518 69.764 28.808 C 69.951 29.099 70.050 29.436 70.050 29.781 Z" stroke="rgb(0,0,255)" stroke-width="0.20"/>
  <path d="M 29.450 23.781 C 29.450 24.127 29.351 24.464 29.164 24.755 C 28.978 25.045 28.712 25.275 28.398 25.419 C 28.084 25.562 27.735 25.612 27.394 25.563 C 27.052 25.514 26.732 25.368 26.471 25.142 C 26.210 24.916 26.020 24.620 25.923 24.289 C 25.826 23.958 25.826 23.605 25.923 23.274 C 26.020 22.943 26.210 22.647 26.471 22.421 C 26.732 22.195 27.052 22.049 27.394 22.000 C 27.735 21.951 28.084 22.001 28.398 22.144 C 28.712 22.287 28.978 22.518 29.164 22.808 C 29.351 23.099 29.450 23.436 29.450 23.781 Z" stroke="rgb(0,0,255)" stroke-width="0.20"/>
  <path d="M 35.250 23.781 C 35.250 24.127 35.151 24.464 34.964 24.755 C 34.778 25.045 34.512 25.275 34.198 25.419 C 33.884 25.562 33.535 25.612 33.194 25.563 C 32.852 25.514 32.532 25.368 32.271 25.142 C 32.010 24.916 31.820 24.620 31.723 24.289 C 31.626 23.958 31.626 23.605 31.723 23.274 C 31.820 22.943 32.010 22.647 32.271 22.421 C 32.532 22.195 32.852 22.049 33.194 22.000 C 33.535 21.951 33.884 22.001 34.198 22.144 C 34.512 22.287 34.778 22.518 34.964 22.808 C 35.151 23.099 35.250 23.436 35.250 23.781 Z" stroke="rgb(0,0,255)" stroke-width="0.20"/>
  <path d="M 41.050 23.781 C 41.050 24.127 40.951 24.464 40.764 24.755 C 40.578 25.045 40.312 25.275 39.998 25.419 C 39.684 25.562 39.335 25.612 38.994 25.563 C 38.652 25.514 38.332 25.368 38.071 25.142 C 37.810 24.916 37.620 24.620 37.523 24.289 C 37.426 23.958 37.426 23.605 37.523 23.274 C 37.620 22.943 37.810 22.647 38.071 22.421 C 38.332 22.195 38.652 22.049 38.994 22.000 C 39.335 21.951 39.684 22.001 39.998 22.144 C 40.312 22.287 40.578 22.518 40.764 22.808 C 40.951 23.099 41.050 23.436 41.050 23.781 Z" stroke="rgb(0,0,255)" stroke-width="0.20"/>
  <path d="M 46.850 23.781 C 46.850 24.127 46.751 24.464 46.564 24.755 C 46.378 25.045 46.112 25.275 45.798 25.419 C 45.484 25.562 45.135 25.612 44.794 25.563 C 44.452 25.514 44.132 25.368 43.871 25.142 C 43.610 24.916 43.420 24.620 43.323 24.289 C 43.226 23.958 43.226 23.605 43.323 23.274 C 43.420 22.943 43.610 22.647 43.871 22.421 C 44.132 22.195 44.452 22.049 44.794 22.000 C 45.135 21.951 45.484 22.001 45.798 22.144 C 46.112 22.287 46.378 22.518 46.564 22.808 C 46.751 23.099 46.850 23.436 46.850 23.781 Z" stroke="rgb(0,0,255)" stroke-width="0.20"/>
  <path d="M 52.650 23.781 C 52.650 24.127 52.551 24.464 52.364 24.755 C 52.178 25.045 51.912 25.275 51.598 25.419 C 51.284 25.562 50.935 25.612 50.594 25.563 C 50.252 25.514 49.932 25.368 49.671 25.142 C 49.410 24.916 49.220 24.620 49.123 24.289 C 49.026 23.958 49.026 23.605 49.123 23.274 C 49.220 22.943 49.410 22.647 49.671 22.421 C 49.932 22.195 50.252 22.049 50.594 22.000 C 50.935 21.951 51.284 22.001 51.598 22.144 C 51.912 22.287 52.178 22.518 52.364 22.808 C 52.551 23.099 52.650 23.436 52.650 23.781 Z" stroke="rgb(0,0,255)" stroke-width="0.20"/>
  <path d="M 58.450 23.781 C 58.450 24.127 58.351 24.464 58.164 24.755 C 57.978 25.045 57.712 25.275 57.398 25.419 C 57.084 25.562 56.735 25.612 56.394 25.563 C 56.052 25.514 55.732 25.368 55.471 25.142 C 55.210 24.916 55.020 24.620 54.923 24.289 C 54.826 23.958 54.826 23.605 54.923 23.274 C 55.020 22.943 55.210 22.647 55.471 22.421 C 55.732 22.195 56.052 22.049 56.394 22.000 C 56.735 21.951 57.084 22.001 57.398 22.144 C 57.712 22.287 57.978 22.518 58.164 22.808 C 58.351 23.099 58.450 23.436 58.450 23.781 Z" stroke="rgb(0,0,255)" stroke-width="0.20"/>
  <path d="M 64.250 23.781 C 64.250 24.127 64.151 24.464 63.964 24.755 C 63.778 25.045 63.512 25.275 63.198 25.419 C 62.884 25.562 62.535 25.612 62.194 25.563 C 61.852 25.514 61.532 25.368 61.271 25.142 C 61.010 24.916 60.820 24.620 60.723 24.289 C 60.626 23.958 60.626 23.605 60.723 23.274 C 60.820 22.943 61.010 22.647 61.271 22.421 C 61.532 22.195 61.852 22.049 62.194 22.000 C 62.535 21.951 62.884 22.001 63.198 22.144 C 63.512 22.287 63.778 22.518 63.964 22.808 C 64.151 23.099 64.250 23.436 64.250 23.781 Z" stroke="rgb(0,0,255)" stroke-width="0.20"/>
  <path d="M 70.050 23.781 C 70.050 24.127 69.951 24.464 69.764 24.755 C 69.578 25.045 69.312 25.275 68.998 25.419 C 68.684 25.562 68.335 25.612 67.994 25.563 C 67.652 25.514 67.332 25.368 67.071 25.142 C 66.810 24.916 66.620 24.620 66.523 24.289 C 66.426 23.958 66.426 23.605 66.523 23.274 C 66.620 22.943 66.810 22.647 67.071 22.421 C 67.332 22.195 67.652 22.049 67.994 22.000 C 68.335 21.951 68.684 22.001 68.998 22.144 C 69.312 22.287 69.578 22.518 69.764 22.808 C 69.951 23.099 70.050 23.436 70.050 23.781 Z" stroke="rgb(0,0,255)" stroke-width="0.20"/>
  <path d="M 35.250 17.782 C 35.250 18.127 35.151 18.464 34.964 18.755 C 34.778 19.045 34.512 19.276 34.198 19.419 C 33.884 19.562 33.535 19.612 33.194 19.563 C 32.852 19.514 32.532 19.368 32.271 19.142 C 32.010 18.916 31.820 18.620 31.723 18.289 C 31.626 17.958 31.626 17.606 31.723 17.274 C 31.820 16.943 32.010 16.647 32.271 16.421 C 32.532 16.195 32.852 16.049 33.194 16.000 C 33.535 15.951 33.884 16.001 34.198 16.144 C 34.512 16.288 34.778 16.518 34.964 16.808 C 35.151 17.099 35.250 17.437 35.250 17.782 Z" stroke="rgb(0,0,255)" stroke-width="0.20"/>
  <path d="M 41.050 17.782 C 41.050 18.127 40.951 18.464 40.764 18.755 C 40.578 19.045 40.312 19.276 39.998 19.419 C 39.684 19.562 39.335 19.612 38.994 19.563 C 38.652 19.514 38.332 19.368 38.071 19.142 C 37.810 18.916 37.620 18.620 37.523 18.289 C 37.426 17.958 37.426 17.606 37.523 17.274 C 37.620 16.943 37.810 16.647 38.071 16.421 C 38.332 16.195 38.652 16.049 38.994 16.000 C 39.335 15.951 39.684 16.001 39.998 16.144 C 40.312 16.288 40.578 16.518 40.764 16.808 C 40.951 17.099 41.050 17.437 41.050 17.782 Z" stroke="rgb(0,0,255)" stroke-width="0.20"/>
  <path d="M 46.850 17.782 C 46.850 18.127 46.751 18.464 46.564 18.755 C 46.378 19.045 46.112 19.276 45.798 19.419 C 45.484 19.562 45.135 19.612 44.794 19.563 C 44.452 19.514 44.132 19.368 43.871 19.142 C 43.610 18.916 43.420 18.620 43.323 18.289 C 43.226 17.958 43.226 17.606 43.323 17.274 C 43.420 16.943 43.610 16.647 43.871 16.421 C 44.132 16.195 44.452 16.049 44.794 16.000 C 45.135 15.951 45.484 16.001 45.798 16.144 C 46.112 16.288 46.378 16.518 46.564 16.808 C 46.751 17.099 46.850 17.437 46.850 17.782 Z" stroke="rgb(0,0,255)" stroke-width="0.20"/>
  <path d="M 52.650 17.782 C 52.650 18.127 52.551 18.464 52.364 18.755 C 52.178 19.045 51.912 19.276 51.598 19.419 C 51.284 19.562 50.935 19.612 50.594 19.563 C 50.252 19.514 49.932 19.368 49.671 19.142 C 49.410 18.916 49.220 18.620 49.123 18.289 C 49.026 17.958 49.026 17.606 49.123 17.274 C 49.220 16.943 49.410 16.647 49.671 16.421 C 49.932 16.195 50.252 16.049 50.594 16.000 C 50.935 15.951 51.284 16.001 51.598 16.144 C 51.912 16.288 52.178 16.518 52.364 16.808 C 52.551 17.099 52.650 17.437 52.650 17.782 Z" stroke="rgb(0,0,255)" stroke-width="0.20"/>
  <path d="M 58.450 17.782 C 58.450 18.127 58.351 18.464 58.164 18.755 C 57.978 19.045 57.712 19.276 57.398 19.419 C 57.084 19.562 56.735 19.612 56.394 19.563 C 56.052 19.514 55.732 19.368 55.471 19.142 C 55.210 18.916 55.020 18.620 54.923 18.289 C 54.826 17.958 54.826 17.606 54.923 17.274 C 55.020 16.943 55.210 16.647 55.471 16.421 C 55.732 16.195 56.052 16.049 56.394 16.000 C 56.735 15.951 57.084 16.001 57.398 16.144 C 57.712 16.288 57.978 16.518 58.164 16.808 C 58.351 17.099 58.450 17.437 58.450 17.782 Z" stroke="rgb(0,0,255)" stroke-width="0.20"/>
  <path d="M 64.250 17.782 C 64.250 18.127 64.151 18.464 63.964 18.755 C 63.778 19.045 63.512 19.276 63.198 19.419 C 62.884 19.562 62.535 19.612 62.194 19.563 C 61.852 19.514 61.532 19.368 61.271 19.142 C 61.010 18.916 60.820 18.620 60.723 18.289 C 60.626 17.958 60.626 17.606 60.723 17.274 C 60.820 16.943 61.010 16.647 61.271 16.421 C 61.532 16.195 61.852 16.049 62.194 16.000 C 62.535 15.951 62.884 16.001 63.198 16.144 C 63.512 16.288 63.778 16.518 63.964 16.808 C 64.151 17.099 64.250 17.437 64.250 17.782 Z" stroke="rgb(0,0,255)" stroke-width="0.20"/>
  <path d="M 41.050 11.782 C 41.050 12.127 40.951 12.465 40.764 12.755 C 40.578 13.045 40.312 13.276 39.998 13.419 C 39.684 13.562 39.335 13.612 38.994 13.563 C 38.652 13.514 38.332 13.368 38.071 13.142 C 37.810 12.916 37.620 12.620 37.523 12.289 C 37.426 11.958 37.426 11.606 37.523 11.275 C 37.620 10.943 37.810 10.647 38.071 10.421 C 38.332 10.195 38.652 10.049 38.994 10.000 C 39.335 9.951 39.684 10.001 39.998 10.144 C 40.312 10.288 40.578 10.518 40.764 10.809 C 40.951 11.099 41.050 11.437 41.050 11.782 Z" stroke="rgb(0,0,255)" stroke-width="0.20"/>
  <path d="M 46.850 11.782 C 46.850 12.127 46.751 12.465 46.564 12.755 C 46.378 13.045 46.112 13.276 45.798 13.419 C 45.484 13.562 45.135 13.612 44.794 13.563 C 44.452 13.514 44.132 13.368 43.871 13.142 C 43.610 12.916 43.420 12.620 43.323 12.289 C 43.226 11.958 43.226 11.606 43.323 11.275 C 43.420 10.943 43.610 10.647 43.871 10.421 C 44.132 10.195 44.452 10.049 44.794 10.000 C 45.135 9.951 45.484 10.001 45.798 10.144 C 46.112 10.288 46.378 10.518 46.564 10.809 C 46.751 11.099 46.850 11.437 46.850 11.782 Z" stroke="rgb(0,0,255)" stroke-width="0.20"/>
  <path d="M 52.650 11.782 C 52.650 12.127 52.551 12.465 52.364 12.755 C 52.178 13.045 51.912 13.276 51.598 13.419 C 51.284 13.562 50.935 13.612 50.594 13.563 C 50.252 13.514 49.932 13.368 49.671 13.142 C 49.410 12.916 49.220 12.620 49.123 12.289 C 49.026 11.958 49.026 11.606 49.123 11.275 C 49.220 10.943 49.410 10.647 49.671 10.421 C 49.932 10.195 50.252 10.049 50.594 10.000 C 50.935 9.951 51.284 10.001 51.598 10.144 C 51.912 10.288 52.178 10.518 52.364 10.809 C 52.551 11.099 52.650 11.437 52.650 11.782 Z" stroke="rgb(0,0,255)" stroke-width="0.20"/>
  <path d="M 58.450 11.782 C 58.450 12.127 58.351 12.465 58.164 12.755 C 57.978 13.045 57.712 13.276 57.398 13.419 C 57.084 13.562 56.735 13.612 56.394 13.563 C 56.052 13.514 55.732 13.368 55.471 13.142 C 55.210 12.916 55.020 12.620 54.923 12.289 C 54.826 11.958 54.826 11.606 54.923 11.275 C 55.020 10.943 55.210 10.647 55.471 10.421 C 55.732 10.195 56.052 10.049 56.394 10.000 C 56.735 9.951 57.084 10.001 57.398 10.144 C 57.712 10.288 57.978 10.518 58.164 10.809 C 58.351 11.099 58.450 11.437 58.450 11.782 Z" stroke="rgb(0,0,255)" stroke-width="0.20"/>
</g>
<script xmlns="" id="bw-fido2-page-script"/></svg>