<?xml version="1.0" encoding="UTF-8"?>
<svg height="79.23mm" viewBox="0.0 0.0 137.60 79.23" width="137.60mm" xmlns="http://www.w3.org/2000/svg" xmlns:cc="http://creativecommons.org/ns#" xmlns:dc="http://purl.org/dc/elements/1.1/" xmlns:inkscape="http://www.inkscape.org/namespaces/inkscape" xmlns:rdf="http://www.w3.org/1999/02/22-rdf-syntax-ns#" xmlns:svg="http://www.w3.org/2000/svg" xmlns:xlink="http://www.w3.org/1999/xlink">
<!--
HolePattern - Generate hole patterns in different simple shapes

Created with Boxes.py (https://festi.info/boxes.py)
Creation date: 2024-03-26 10:17:17
Command line (remove spaces between dashes): boxes HolePattern - -fillHoles_fill_pattern=square - -fillHoles_hole_max_radius=1 - -fillHoles_hole_min_radius=1 - -fillHoles_space_between_holes=1.5 - -fillHoles_space_to_border=1.5 - -x=60 - -y=50 - -shape=hexagon
Url: http://www.festi.info/boxes.py/HolePattern?fillHoles_bar_length=50&fillHoles_fill_pattern=square&fillHoles_hole_max_radius=1&fillHoles_hole_min_radius=1&fillHoles_hole_style=round&fillHoles_max_random=1000&fillHoles_space_between_holes=1.5&fillHoles_space_to_border=1.5&x=60&y=50&shape=hexagon&thickness=3.0&format=svg&tabs=0.0&qr_code=0&debug=0&labels=0&labels=1&reference=100&inner_corners=loop&burn=0.1&language=fr&render=1
Url short: http://www.festi.info/boxes.py/HolePattern?fillHoles_fill_pattern=square&fillHoles_hole_max_radius=1&fillHoles_hole_min_radius=1&fillHoles_space_between_holes=1.5&fillHoles_space_to_border=1.5&x=60&y=50&shape=hexagon
SettingsUrl: http://www.festi.info/boxes.py/HolePattern?fillHoles_bar_length=50&fillHoles_fill_pattern=square&fillHoles_hole_max_radius=1&fillHoles_hole_min_radius=1&fillHoles_hole_style=round&fillHoles_max_random=1000&fillHoles_space_between_holes=1.5&fillHoles_space_to_border=1.5&x=60&y=50&shape=hexagon&thickness=3.0&format=svg&tabs=0.0&qr_code=0&debug=0&labels=0&labels=1&reference=100&inner_corners=loop&burn=0.1&language=fr
SettingsUrl short: http://www.festi.info/boxes.py/HolePattern?fillHoles_fill_pattern=square&fillHoles_hole_max_radius=1&fillHoles_hole_min_radius=1&fillHoles_space_between_holes=1.5&fillHoles_space_to_border=1.5&x=60&y=50&shape=hexagon
-->
<title>HolePattern</title>
<metadata>
<rdf:RDF><cc:Work>
<dc:title>Holes - HolePattern</dc:title>
<dc:date>2024-03-26 10:17:17</dc:date>
<dc:source>http://www.festi.info/boxes.py/HolePattern?fillHoles_bar_length=50&amp;fillHoles_fill_pattern=square&amp;fillHoles_hole_max_radius=1&amp;fillHoles_hole_min_radius=1&amp;fillHoles_hole_style=round&amp;fillHoles_max_random=1000&amp;fillHoles_space_between_holes=1.5&amp;fillHoles_space_to_border=1.5&amp;x=60&amp;y=50&amp;shape=hexagon&amp;thickness=3.0&amp;format=svg&amp;tabs=0.0&amp;qr_code=0&amp;debug=0&amp;labels=0&amp;labels=1&amp;reference=100&amp;inner_corners=loop&amp;burn=0.1&amp;language=fr&amp;render=1</dc:source>
<dc:source>http://www.festi.info/boxes.py/HolePattern?fillHoles_fill_pattern=square&amp;fillHoles_hole_max_radius=1&amp;fillHoles_hole_min_radius=1&amp;fillHoles_space_between_holes=1.5&amp;fillHoles_space_to_border=1.5&amp;x=60&amp;y=50&amp;shape=hexagon</dc:source>
<dc:description>Generate hole patterns in different simple shapes

Created with Boxes.py (https://festi.info/boxes.py)
Command line: boxes HolePattern --fillHoles_bar_length=50 --fillHoles_fill_pattern=square --fillHoles_hole_max_radius=1 --fillHoles_hole_min_radius=1 --fillHoles_hole_style=round --fillHoles_max_random=1000 --fillHoles_space_between_holes=1.5 --fillHoles_space_to_border=1.5 --x=60 --y=50 --shape=hexagon --thickness=3.0 --format=svg --tabs=0.0 --qr_code=0 --debug=0 --labels=0 --labels=1 --reference=100 --inner_corners=loop --burn=0.1
Command line short: boxes HolePattern --fillHoles_fill_pattern=square --fillHoles_hole_max_radius=1 --fillHoles_hole_min_radius=1 --fillHoles_space_between_holes=1.5 --fillHoles_space_to_border=1.5 --x=60 --y=50 --shape=hexagon
Url: http://www.festi.info/boxes.py/HolePattern?fillHoles_bar_length=50&amp;fillHoles_fill_pattern=square&amp;fillHoles_hole_max_radius=1&amp;fillHoles_hole_min_radius=1&amp;fillHoles_hole_style=round&amp;fillHoles_max_random=1000&amp;fillHoles_space_between_holes=1.5&amp;fillHoles_space_to_border=1.5&amp;x=60&amp;y=50&amp;shape=hexagon&amp;thickness=3.0&amp;format=svg&amp;tabs=0.0&amp;qr_code=0&amp;debug=0&amp;labels=0&amp;labels=1&amp;reference=100&amp;inner_corners=loop&amp;burn=0.1&amp;language=fr&amp;render=1
Url short: http://www.festi.info/boxes.py/HolePattern?fillHoles_fill_pattern=square&amp;fillHoles_hole_max_radius=1&amp;fillHoles_hole_min_radius=1&amp;fillHoles_space_between_holes=1.5&amp;fillHoles_space_to_border=1.5&amp;x=60&amp;y=50&amp;shape=hexagon
SettingsUrl: http://www.festi.info/boxes.py/HolePattern?fillHoles_bar_length=50&amp;fillHoles_fill_pattern=square&amp;fillHoles_hole_max_radius=1&amp;fillHoles_hole_min_radius=1&amp;fillHoles_hole_style=round&amp;fillHoles_max_random=1000&amp;fillHoles_space_between_holes=1.5&amp;fillHoles_space_to_border=1.5&amp;x=60&amp;y=50&amp;shape=hexagon&amp;thickness=3.0&amp;format=svg&amp;tabs=0.0&amp;qr_code=0&amp;debug=0&amp;labels=0&amp;labels=1&amp;reference=100&amp;inner_corners=loop&amp;burn=0.1&amp;language=fr
SettingsUrl short: http://www.festi.info/boxes.py/HolePattern?fillHoles_fill_pattern=square&amp;fillHoles_hole_max_radius=1&amp;fillHoles_hole_min_radius=1&amp;fillHoles_space_between_holes=1.5&amp;fillHoles_space_to_border=1.5&amp;x=60&amp;y=50&amp;shape=hexagon
</dc:description>
</cc:Work></rdf:RDF></metadata>
<g id="p-0" style="fill:none;stroke-linecap:round;stroke-linejoin:round;">
  <path d="M 18.800 69.228 H 118.800 V 59.228 H 18.800 V 69.228 Z" stroke="rgb(0,0,0)" stroke-width="0.20"/>
  <text dominant-baseline="hanging" font-size="8px" style="font-family: sans-serif ; font-weight: normal; font-style: normal; fill: rgb(255,0,0)" text-anchor="middle" transform="matrix( 1.000 0.000 0.000 1.000 68.800 60.228 )">100.00mm, burn:0.10mm</text>
</g>
<g id="p-1" style="fill:none;stroke-linecap:round;stroke-linejoin:round;">
  <path d="M 35.056 55.896 C 35.056 56.063 35.008 56.226 34.918 56.367 C 34.827 56.507 34.699 56.619 34.547 56.688 C 34.395 56.757 34.227 56.782 34.061 56.758 C 33.896 56.734 33.741 56.663 33.615 56.554 C 33.489 56.445 33.397 56.302 33.350 56.141 C 33.303 55.981 33.303 55.811 33.350 55.651 C 33.397 55.491 33.489 55.347 33.615 55.238 C 33.741 55.129 33.896 55.058 34.061 55.034 C 34.227 55.011 34.395 55.035 34.547 55.104 C 34.699 55.174 34.827 55.285 34.918 55.425 C 35.008 55.566 35.056 55.729 35.056 55.896 Z" stroke="rgb(0,0,255)" stroke-width="0.20"/>
  <path d="M 38.497 55.896 C 38.497 56.063 38.449 56.226 38.359 56.367 C 38.269 56.507 38.140 56.619 37.988 56.688 C 37.836 56.757 37.668 56.782 37.503 56.758 C 37.337 56.734 37.182 56.663 37.056 56.554 C 36.930 56.445 36.838 56.302 36.791 56.141 C 36.744 55.981 36.744 55.811 36.791 55.651 C 36.838 55.491 36.930 55.347 37.056 55.238 C 37.182 55.129 37.337 55.058 37.503 55.034 C 37.668 55.011 37.836 55.035 37.988 55.104 C 38.140 55.174 38.269 55.285 38.359 55.425 C 38.449 55.566 38.497 55.729 38.497 55.896 Z" stroke="rgb(0,0,255)" stroke-width="0.20"/>
  <path d="M 41.938 55.896 C 41.938 56.063 41.890 56.226 41.800 56.367 C 41.710 56.507 41.581 56.619 41.429 56.688 C 41.277 56.757 41.109 56.782 40.944 56.758 C 40.779 56.734 40.624 56.663 40.498 56.554 C 40.371 56.445 40.279 56.302 40.232 56.141 C 40.185 55.981 40.185 55.811 40.232 55.651 C 40.279 55.491 40.371 55.347 40.498 55.238 C 40.624 55.129 40.779 55.058 40.944 55.034 C 41.109 55.011 41.277 55.035 41.429 55.104 C 41.581 55.174 41.710 55.285 41.800 55.425 C 41.890 55.566 41.938 55.729 41.938 55.896 Z" stroke="rgb(0,0,255)" stroke-width="0.20"/>
  <path d="M 45.379 55.896 C 45.379 56.063 45.331 56.226 45.241 56.367 C 45.151 56.507 45.022 56.619 44.870 56.688 C 44.719 56.757 44.550 56.782 44.385 56.758 C 44.220 56.734 44.065 56.663 43.939 56.554 C 43.813 56.445 43.721 56.302 43.674 56.141 C 43.626 55.981 43.626 55.811 43.674 55.651 C 43.721 55.491 43.813 55.347 43.939 55.238 C 44.065 55.129 44.220 55.058 44.385 55.034 C 44.550 55.011 44.719 55.035 44.870 55.104 C 45.022 55.174 45.151 55.285 45.241 55.425 C 45.331 55.566 45.379 55.729 45.379 55.896 Z" stroke="rgb(0,0,255)" stroke-width="0.20"/>
  <path d="M 48.821 55.896 C 48.821 56.063 48.773 56.226 48.682 56.367 C 48.592 56.507 48.463 56.619 48.312 56.688 C 48.160 56.757 47.991 56.782 47.826 56.758 C 47.661 56.734 47.506 56.663 47.380 56.554 C 47.254 56.445 47.162 56.302 47.115 56.141 C 47.068 55.981 47.068 55.811 47.115 55.651 C 47.162 55.491 47.254 55.347 47.380 55.238 C 47.506 55.129 47.661 55.058 47.826 55.034 C 47.991 55.011 48.160 55.035 48.312 55.104 C 48.463 55.174 48.592 55.285 48.682 55.425 C 48.773 55.566 48.821 55.729 48.821 55.896 Z" stroke="rgb(0,0,255)" stroke-width="0.20"/>
  <path d="M 52.262 55.896 C 52.262 56.063 52.214 56.226 52.124 56.367 C 52.033 56.507 51.905 56.619 51.753 56.688 C 51.601 56.757 51.432 56.782 51.267 56.758 C 51.102 56.734 50.947 56.663 50.821 56.554 C 50.695 56.445 50.603 56.302 50.556 56.141 C 50.509 55.981 50.509 55.811 50.556 55.651 C 50.603 55.491 50.695 55.347 50.821 55.238 C 50.947 55.129 51.102 55.058 51.267 55.034 C 51.432 55.011 51.601 55.035 51.753 55.104 C 51.905 55.174 52.033 55.285 52.124 55.425 C 52.214 55.566 52.262 55.729 52.262 55.896 Z" stroke="rgb(0,0,255)" stroke-width="0.20"/>
  <path d="M 55.703 55.896 C 55.703 56.063 55.655 56.226 55.565 56.367 C 55.475 56.507 55.346 56.619 55.194 56.688 C 55.042 56.757 54.874 56.782 54.708 56.758 C 54.543 56.734 54.388 56.663 54.262 56.554 C 54.136 56.445 54.044 56.302 53.997 56.141 C 53.950 55.981 53.950 55.811 53.997 55.651 C 54.044 55.491 54.136 55.347 54.262 55.238 C 54.388 55.129 54.543 55.058 54.708 55.034 C 54.874 55.011 55.042 55.035 55.194 55.104 C 55.346 55.174 55.475 55.285 55.565 55.425 C 55.655 55.566 55.703 55.729 55.703 55.896 Z" stroke="rgb(0,0,255)" stroke-width="0.20"/>
  <path d="M 59.144 55.896 C 59.144 56.063 59.096 56.226 59.006 56.367 C 58.916 56.507 58.787 56.619 58.635 56.688 C 58.483 56.757 58.315 56.782 58.150 56.758 C 57.984 56.734 57.830 56.663 57.703 56.554 C 57.577 56.445 57.485 56.302 57.438 56.141 C 57.391 55.981 57.391 55.811 57.438 55.651 C 57.485 55.491 57.577 55.347 57.703 55.238 C 57.830 55.129 57.984 55.058 58.150 55.034 C 58.315 55.011 58.483 55.035 58.635 55.104 C 58.787 55.174 58.916 55.285 59.006 55.425 C 59.096 55.566 59.144 55.729 59.144 55.896 Z" stroke="rgb(0,0,255)" stroke-width="0.20"/>
  <path d="M 62.585 55.896 C 62.585 56.063 62.537 56.226 62.447 56.367 C 62.357 56.507 62.228 56.619 62.076 56.688 C 61.925 56.757 61.756 56.782 61.591 56.758 C 61.426 56.734 61.271 56.663 61.145 56.554 C 61.018 56.445 60.926 56.302 60.879 56.141 C 60.832 55.981 60.832 55.811 60.879 55.651 C 60.926 55.491 61.018 55.347 61.145 55.238 C 61.271 55.129 61.426 55.058 61.591 55.034 C 61.756 55.011 61.925 55.035 62.076 55.104 C 62.228 55.174 62.357 55.285 62.447 55.425 C 62.537 55.566 62.585 55.729 62.585 55.896 Z" stroke="rgb(0,0,255)" stroke-width="0.20"/>
  <path d="M 35.056 52.432 C 35.056 52.599 35.008 52.762 34.918 52.903 C 34.827 53.043 34.699 53.155 34.547 53.224 C 34.395 53.293 34.227 53.317 34.061 53.294 C 33.896 53.270 33.741 53.199 33.615 53.090 C 33.489 52.981 33.397 52.837 33.350 52.677 C 33.303 52.517 33.303 52.347 33.350 52.187 C 33.397 52.027 33.489 51.883 33.615 51.774 C 33.741 51.665 33.896 51.594 34.061 51.570 C 34.227 51.546 34.395 51.571 34.547 51.640 C 34.699 51.709 34.827 51.821 34.918 51.961 C 35.008 52.102 35.056 52.265 35.056 52.432 Z" stroke="rgb(0,0,255)" stroke-width="0.20"/>
  <path d="M 38.497 52.432 C 38.497 52.599 38.449 52.762 38.359 52.903 C 38.269 53.043 38.140 53.155 37.988 53.224 C 37.836 53.293 37.668 53.317 37.503 53.294 C 37.337 53.270 37.182 53.199 37.056 53.090 C 36.930 52.981 36.838 52.837 36.791 52.677 C 36.744 52.517 36.744 52.347 36.791 52.187 C 36.838 52.027 36.930 51.883 37.056 51.774 C 37.182 51.665 37.337 51.594 37.503 51.570 C 37.668 51.546 37.836 51.571 37.988 51.640 C 38.140 51.709 38.269 51.821 38.359 51.961 C 38.449 52.102 38.497 52.265 38.497 52.432 Z" stroke="rgb(0,0,255)" stroke-width="0.20"/>
  <path d="M 41.938 52.432 C 41.938 52.599 41.890 52.762 41.800 52.903 C 41.710 53.043 41.581 53.155 41.429 53.224 C 41.277 53.293 41.109 53.317 40.944 53.294 C 40.779 53.270 40.624 53.199 40.498 53.090 C 40.371 52.981 40.279 52.837 40.232 52.677 C 40.185 52.517 40.185 52.347 40.232 52.187 C 40.279 52.027 40.371 51.883 40.498 51.774 C 40.624 51.665 40.779 51.594 40.944 51.570 C 41.109 51.546 41.277 51.571 41.429 51.640 C 41.581 51.709 41.710 51.821 41.800 51.961 C 41.890 52.102 41.938 52.265 41.938 52.432 Z" stroke="rgb(0,0,255)" stroke-width="0.20"/>
  <path d="M 45.379 52.432 C 45.379 52.599 45.331 52.762 45.241 52.903 C 45.151 53.043 45.022 53.155 44.870 53.224 C 44.719 53.293 44.550 53.317 44.385 53.294 C 44.220 53.270 44.065 53.199 43.939 53.090 C 43.813 52.981 43.721 52.837 43.674 52.677 C 43.626 52.517 43.626 52.347 43.674 52.187 C 43.721 52.027 43.813 51.883 43.939 51.774 C 44.065 51.665 44.220 51.594 44.385 51.570 C 44.550 51.546 44.719 51.571 44.870 51.640 C 45.022 51.709 45.151 51.821 45.241 51.961 C 45.331 52.102 45.379 52.265 45.379 52.432 Z" stroke="rgb(0,0,255)" stroke-width="0.20"/>
  <path d="M 48.821 52.432 C 48.821 52.599 48.773 52.762 48.682 52.903 C 48.592 53.043 48.463 53.155 48.312 53.224 C 48.160 53.293 47.991 53.317 47.826 53.294 C 47.661 53.270 47.506 53.199 47.380 53.090 C 47.254 52.981 47.162 52.837 47.115 52.677 C 47.068 52.517 47.068 52.347 47.115 52.187 C 47.162 52.027 47.254 51.883 47.380 51.774 C 47.506 51.665 47.661 51.594 47.826 51.570 C 47.991 51.546 48.160 51.571 48.312 51.640 C 48.463 51.709 48.592 51.821 48.682 51.961 C 48.773 52.102 48.821 52.265 48.821 52.432 Z" stroke="rgb(0,0,255)" stroke-width="0.20"/>
  <path d="M 52.262 52.432 C 52.262 52.599 52.214 52.762 52.124 52.903 C 52.033 53.043 51.905 53.155 51.753 53.224 C 51.601 53.293 51.432 53.317 51.267 53.294 C 51.102 53.270 50.947 53.199 50.821 53.090 C 50.695 52.981 50.603 52.837 50.556 52.677 C 50.509 52.517 50.509 52.347 50.556 52.187 C 50.603 52.027 50.695 51.883 50.821 51.774 C 50.947 51.665 51.102 51.594 51.267 51.570 C 51.432 51.546 51.601 51.571 51.753 51.640 C 51.905 51.709 52.033 51.821 52.124 51.961 C 52.214 52.102 52.262 52.265 52.262 52.432 Z" stroke="rgb(0,0,255)" stroke-width="0.20"/>
  <path d="M 55.703 52.432 C 55.703 52.599 55.655 52.762 55.565 52.903 C 55.475 53.043 55.346 53.155 55.194 53.224 C 55.042 53.293 54.874 53.317 54.708 53.294 C 54.543 53.270 54.388 53.199 54.262 53.090 C 54.136 52.981 54.044 52.837 53.997 52.677 C 53.950 52.517 53.950 52.347 53.997 52.187 C 54.044 52.027 54.136 51.883 54.262 51.774 C 54.388 51.665 54.543 51.594 54.708 51.570 C 54.874 51.546 55.042 51.571 55.194 51.640 C 55.346 51.709 55.475 51.821 55.565 51.961 C 55.655 52.102 55.703 52.265 55.703 52.432 Z" stroke="rgb(0,0,255)" stroke-width="0.20"/>
  <path d="M 59.144 52.432 C 59.144 52.599 59.096 52.762 59.006 52.903 C 58.916 53.043 58.787 53.155 58.635 53.224 C 58.483 53.293 58.315 53.317 58.150 53.294 C 57.984 53.270 57.830 53.199 57.703 53.090 C 57.577 52.981 57.485 52.837 57.438 52.677 C 57.391 52.517 57.391 52.347 57.438 52.187 C 57.485 52.027 57.577 51.883 57.703 51.774 C 57.830 51.665 57.984 51.594 58.150 51.570 C 58.315 51.546 58.483 51.571 58.635 51.640 C 58.787 51.709 58.916 51.821 59.006 51.961 C 59.096 52.102 59.144 52.265 59.144 52.432 Z" stroke="rgb(0,0,255)" stroke-width="0.20"/>
  <path d="M 62.585 52.432 C 62.585 52.599 62.537 52.762 62.447 52.903 C 62.357 53.043 62.228 53.155 62.076 53.224 C 61.925 53.293 61.756 53.317 61.591 53.294 C 61.426 53.270 61.271 53.199 61.145 53.090 C 61.018 52.981 60.926 52.837 60.879 52.677 C 60.832 52.517 60.832 52.347 60.879 52.187 C 60.926 52.027 61.018 51.883 61.145 51.774 C 61.271 51.665 61.426 51.594 61.591 51.570 C 61.756 51.546 61.925 51.571 62.076 51.640 C 62.228 51.709 62.357 51.821 62.447 51.961 C 62.537 52.102 62.585 52.265 62.585 52.432 Z" stroke="rgb(0,0,255)" stroke-width="0.20"/>
  <path d="M 31.615 48.968 C 31.615 49.135 31.567 49.298 31.477 49.438 C 31.386 49.579 31.258 49.690 31.106 49.760 C 30.954 49.829 30.785 49.853 30.620 49.829 C 30.455 49.806 30.300 49.735 30.174 49.626 C 30.048 49.516 29.956 49.373 29.909 49.213 C 29.862 49.053 29.862 48.883 29.909 48.722 C 29.956 48.562 30.048 48.419 30.174 48.310 C 30.300 48.201 30.455 48.130 30.620 48.106 C 30.785 48.082 30.954 48.107 31.106 48.176 C 31.258 48.245 31.386 48.357 31.477 48.497 C 31.567 48.637 31.615 48.801 31.615 48.968 Z" stroke="rgb(0,0,255)" stroke-width="0.20"/>
  <path d="M 35.056 48.968 C 35.056 49.135 35.008 49.298 34.918 49.438 C 34.827 49.579 34.699 49.690 34.547 49.760 C 34.395 49.829 34.227 49.853 34.061 49.829 C 33.896 49.806 33.741 49.735 33.615 49.626 C 33.489 49.516 33.397 49.373 33.350 49.213 C 33.303 49.053 33.303 48.883 33.350 48.722 C 33.397 48.562 33.489 48.419 33.615 48.310 C 33.741 48.201 33.896 48.130 34.061 48.106 C 34.227 48.082 34.395 48.107 34.547 48.176 C 34.699 48.245 34.827 48.357 34.918 48.497 C 35.008 48.637 35.056 48.801 35.056 48.968 Z" stroke="rgb(0,0,255)" stroke-width="0.20"/>
  <path d="M 38.497 48.968 C 38.497 49.135 38.449 49.298 38.359 49.438 C 38.269 49.579 38.140 49.690 37.988 49.760 C 37.836 49.829 37.668 49.853 37.503 49.829 C 37.337 49.806 37.182 49.735 37.056 49.626 C 36.930 49.516 36.838 49.373 36.791 49.213 C 36.744 49.053 36.744 48.883 36.791 48.722 C 36.838 48.562 36.930 48.419 37.056 48.310 C 37.182 48.201 37.337 48.130 37.503 48.106 C 37.668 48.082 37.836 48.107 37.988 48.176 C 38.140 48.245 38.269 48.357 38.359 48.497 C 38.449 48.637 38.497 48.801 38.497 48.968 Z" stroke="rgb(0,0,255)" stroke-width="0.20"/>
  <path d="M 41.938 48.968 C 41.938 49.135 41.890 49.298 41.800 49.438 C 41.710 49.579 41.581 49.690 41.429 49.760 C 41.277 49.829 41.109 49.853 40.944 49.829 C 40.779 49.806 40.624 49.735 40.498 49.626 C 40.371 49.516 40.279 49.373 40.232 49.213 C 40.185 49.053 40.185 48.883 40.232 48.722 C 40.279 48.562 40.371 48.419 40.498 48.310 C 40.624 48.201 40.779 48.130 40.944 48.106 C 41.109 48.082 41.277 48.107 41.429 48.176 C 41.581 48.245 41.710 48.357 41.800 48.497 C 41.890 48.637 41.938 48.801 41.938 48.968 Z" stroke="rgb(0,0,255)" stroke-width="0.20"/>
  <path d="M 45.379 48.968 C 45.379 49.135 45.331 49.298 45.241 49.438 C 45.151 49.579 45.022 49.690 44.870 49.760 C 44.719 49.829 44.550 49.853 44.385 49.829 C 44.220 49.806 44.065 49.735 43.939 49.626 C 43.813 49.516 43.721 49.373 43.674 49.213 C 43.626 49.053 43.626 48.883 43.674 48.722 C 43.721 48.562 43.813 48.419 43.939 48.310 C 44.065 48.201 44.220 48.130 44.385 48.106 C 44.550 48.082 44.719 48.107 44.870 48.176 C 45.022 48.245 45.151 48.357 45.241 48.497 C 45.331 48.637 45.379 48.801 45.379 48.968 Z" stroke="rgb(0,0,255)" stroke-width="0.20"/>
  <path d="M 48.821 48.968 C 48.821 49.135 48.773 49.298 48.682 49.438 C 48.592 49.579 48.463 49.690 48.312 49.760 C 48.160 49.829 47.991 49.853 47.826 49.829 C 47.661 49.806 47.506 49.735 47.380 49.626 C 47.254 49.516 47.162 49.373 47.115 49.213 C 47.068 49.053 47.068 48.883 47.115 48.722 C 47.162 48.562 47.254 48.419 47.380 48.310 C 47.506 48.201 47.661 48.130 47.826 48.106 C 47.991 48.082 48.160 48.107 48.312 48.176 C 48.463 48.245 48.592 48.357 48.682 48.497 C 48.773 48.637 48.821 48.801 48.821 48.968 Z" stroke="rgb(0,0,255)" stroke-width="0.20"/>
  <path d="M 52.262 48.968 C 52.262 49.135 52.214 49.298 52.124 49.438 C 52.033 49.579 51.905 49.690 51.753 49.760 C 51.601 49.829 51.432 49.853 51.267 49.829 C 51.102 49.806 50.947 49.735 50.821 49.626 C 50.695 49.516 50.603 49.373 50.556 49.213 C 50.509 49.053 50.509 48.883 50.556 48.722 C 50.603 48.562 50.695 48.419 50.821 48.310 C 50.947 48.201 51.102 48.130 51.267 48.106 C 51.432 48.082 51.601 48.107 51.753 48.176 C 51.905 48.245 52.033 48.357 52.124 48.497 C 52.214 48.637 52.262 48.801 52.262 48.968 Z" stroke="rgb(0,0,255)" stroke-width="0.20"/>
  <path d="M 55.703 48.968 C 55.703 49.135 55.655 49.298 55.565 49.438 C 55.475 49.579 55.346 49.690 55.194 49.760 C 55.042 49.829 54.874 49.853 54.708 49.829 C 54.543 49.806 54.388 49.735 54.262 49.626 C 54.136 49.516 54.044 49.373 53.997 49.213 C 53.950 49.053 53.950 48.883 53.997 48.722 C 54.044 48.562 54.136 48.419 54.262 48.310 C 54.388 48.201 54.543 48.130 54.708 48.106 C 54.874 48.082 55.042 48.107 55.194 48.176 C 55.346 48.245 55.475 48.357 55.565 48.497 C 55.655 48.637 55.703 48.801 55.703 48.968 Z" stroke="rgb(0,0,255)" stroke-width="0.20"/>
  <path d="M 59.144 48.968 C 59.144 49.135 59.096 49.298 59.006 49.438 C 58.916 49.579 58.787 49.690 58.635 49.760 C 58.483 49.829 58.315 49.853 58.150 49.829 C 57.984 49.806 57.830 49.735 57.703 49.626 C 57.577 49.516 57.485 49.373 57.438 49.213 C 57.391 49.053 57.391 48.883 57.438 48.722 C 57.485 48.562 57.577 48.419 57.703 48.310 C 57.830 48.201 57.984 48.130 58.150 48.106 C 58.315 48.082 58.483 48.107 58.635 48.176 C 58.787 48.245 58.916 48.357 59.006 48.497 C 59.096 48.637 59.144 48.801 59.144 48.968 Z" stroke="rgb(0,0,255)" stroke-width="0.20"/>
  <path d="M 62.585 48.968 C 62.585 49.135 62.537 49.298 62.447 49.438 C 62.357 49.579 62.228 49.690 62.076 49.760 C 61.925 49.829 61.756 49.853 61.591 49.829 C 61.426 49.806 61.271 49.735 61.145 49.626 C 61.018 49.516 60.926 49.373 60.879 49.213 C 60.832 49.053 60.832 48.883 60.879 48.722 C 60.926 48.562 61.018 48.419 61.145 48.310 C 61.271 48.201 61.426 48.130 61.591 48.106 C 61.756 48.082 61.925 48.107 62.076 48.176 C 62.228 48.245 62.357 48.357 62.447 48.497 C 62.537 48.637 62.585 48.801 62.585 48.968 Z" stroke="rgb(0,0,255)" stroke-width="0.20"/>
  <path d="M 66.026 48.968 C 66.026 49.135 65.978 49.298 65.888 49.438 C 65.798 49.579 65.669 49.690 65.518 49.760 C 65.366 49.829 65.197 49.853 65.032 49.829 C 64.867 49.806 64.712 49.735 64.586 49.626 C 64.460 49.516 64.368 49.373 64.321 49.213 C 64.274 49.053 64.274 48.883 64.321 48.722 C 64.368 48.562 64.460 48.419 64.586 48.310 C 64.712 48.201 64.867 48.130 65.032 48.106 C 65.197 48.082 65.366 48.107 65.518 48.176 C 65.669 48.245 65.798 48.357 65.888 48.497 C 65.978 48.637 66.026 48.801 66.026 48.968 Z" stroke="rgb(0,0,255)" stroke-width="0.20"/>
  <path d="M 31.615 45.504 C 31.615 45.670 31.567 45.834 31.477 45.974 C 31.386 46.115 31.258 46.226 31.106 46.295 C 30.954 46.365 30.785 46.389 30.620 46.365 C 30.455 46.342 30.300 46.271 30.174 46.162 C 30.048 46.052 29.956 45.909 29.909 45.749 C 29.862 45.589 29.862 45.418 29.909 45.258 C 29.956 45.098 30.048 44.955 30.174 44.846 C 30.300 44.736 30.455 44.666 30.620 44.642 C 30.785 44.618 30.954 44.642 31.106 44.712 C 31.258 44.781 31.386 44.893 31.477 45.033 C 31.567 45.173 31.615 45.337 31.615 45.504 Z" stroke="rgb(0,0,255)" stroke-width="0.20"/>
  <path d="M 35.056 45.504 C 35.056 45.670 35.008 45.834 34.918 45.974 C 34.827 46.115 34.699 46.226 34.547 46.295 C 34.395 46.365 34.227 46.389 34.061 46.365 C 33.896 46.342 33.741 46.271 33.615 46.162 C 33.489 46.052 33.397 45.909 33.350 45.749 C 33.303 45.589 33.303 45.418 33.350 45.258 C 33.397 45.098 33.489 44.955 33.615 44.846 C 33.741 44.736 33.896 44.666 34.061 44.642 C 34.227 44.618 34.395 44.642 34.547 44.712 C 34.699 44.781 34.827 44.893 34.918 45.033 C 35.008 45.173 35.056 45.337 35.056 45.504 Z" stroke="rgb(0,0,255)" stroke-width="0.20"/>
  <path d="M 38.497 45.504 C 38.497 45.670 38.449 45.834 38.359 45.974 C 38.269 46.115 38.140 46.226 37.988 46.295 C 37.836 46.365 37.668 46.389 37.503 46.365 C 37.337 46.342 37.182 46.271 37.056 46.162 C 36.930 46.052 36.838 45.909 36.791 45.749 C 36.744 45.589 36.744 45.418 36.791 45.258 C 36.838 45.098 36.930 44.955 37.056 44.846 C 37.182 44.736 37.337 44.666 37.503 44.642 C 37.668 44.618 37.836 44.642 37.988 44.712 C 38.140 44.781 38.269 44.893 38.359 45.033 C 38.449 45.173 38.497 45.337 38.497 45.504 Z" stroke="rgb(0,0,255)" stroke-width="0.20"/>
  <path d="M 41.938 45.504 C 41.938 45.670 41.890 45.834 41.800 45.974 C 41.710 46.115 41.581 46.226 41.429 46.295 C 41.277 46.365 41.109 46.389 40.944 46.365 C 40.779 46.342 40.624 46.271 40.498 46.162 C 40.371 46.052 40.279 45.909 40.232 45.749 C 40.185 45.589 40.185 45.418 40.232 45.258 C 40.279 45.098 40.371 44.955 40.498 44.846 C 40.624 44.736 40.779 44.666 40.944 44.642 C 41.109 44.618 41.277 44.642 41.429 44.712 C 41.581 44.781 41.710 44.893 41.800 45.033 C 41.890 45.173 41.938 45.337 41.938 45.504 Z" stroke="rgb(0,0,255)" stroke-width="0.20"/>
  <path d="M 45.379 45.504 C 45.379 45.670 45.331 45.834 45.241 45.974 C 45.151 46.115 45.022 46.226 44.870 46.295 C 44.719 46.365 44.550 46.389 44.385 46.365 C 44.220 46.342 44.065 46.271 43.939 46.162 C 43.813 46.052 43.721 45.909 43.674 45.749 C 43.626 45.589 43.626 45.418 43.674 45.258 C 43.721 45.098 43.813 44.955 43.939 44.846 C 44.065 44.736 44.220 44.666 44.385 44.642 C 44.550 44.618 44.719 44.642 44.870 44.712 C 45.022 44.781 45.151 44.893 45.241 45.033 C 45.331 45.173 45.379 45.337 45.379 45.504 Z" stroke="rgb(0,0,255)" stroke-width="0.20"/>
  <path d="M 48.821 45.504 C 48.821 45.670 48.773 45.834 48.682 45.974 C 48.592 46.115 48.463 46.226 48.312 46.295 C 48.160 46.365 47.991 46.389 47.826 46.365 C 47.661 46.342 47.506 46.271 47.380 46.162 C 47.254 46.052 47.162 45.909 47.115 45.749 C 47.068 45.589 47.068 45.418 47.115 45.258 C 47.162 45.098 47.254 44.955 47.380 44.846 C 47.506 44.736 47.661 44.666 47.826 44.642 C 47.991 44.618 48.160 44.642 48.312 44.712 C 48.463 44.781 48.592 44.893 48.682 45.033 C 48.773 45.173 48.821 45.337 48.821 45.504 Z" stroke="rgb(0,0,255)" stroke-width="0.20"/>
  <path d="M 52.262 45.504 C 52.262 45.670 52.214 45.834 52.124 45.974 C 52.033 46.115 51.905 46.226 51.753 46.295 C 51.601 46.365 51.432 46.389 51.267 46.365 C 51.102 46.342 50.947 46.271 50.821 46.162 C 50.695 46.052 50.603 45.909 50.556 45.749 C 50.509 45.589 50.509 45.418 50.556 45.258 C 50.603 45.098 50.695 44.955 50.821 44.846 C 50.947 44.736 51.102 44.666 51.267 44.642 C 51.432 44.618 51.601 44.642 51.753 44.712 C 51.905 44.781 52.033 44.893 52.124 45.033 C 52.214 45.173 52.262 45.337 52.262 45.504 Z" stroke="rgb(0,0,255)" stroke-width="0.20"/>
  <path d="M 55.703 45.504 C 55.703 45.670 55.655 45.834 55.565 45.974 C 55.475 46.115 55.346 46.226 55.194 46.295 C 55.042 46.365 54.874 46.389 54.708 46.365 C 54.543 46.342 54.388 46.271 54.262 46.162 C 54.136 46.052 54.044 45.909 53.997 45.749 C 53.950 45.589 53.950 45.418 53.997 45.258 C 54.044 45.098 54.136 44.955 54.262 44.846 C 54.388 44.736 54.543 44.666 54.708 44.642 C 54.874 44.618 55.042 44.642 55.194 44.712 C 55.346 44.781 55.475 44.893 55.565 45.033 C 55.655 45.173 55.703 45.337 55.703 45.504 Z" stroke="rgb(0,0,255)" stroke-width="0.20"/>
  <path d="M 59.144 45.504 C 59.144 45.670 59.096 45.834 59.006 45.974 C 58.916 46.115 58.787 46.226 58.635 46.295 C 58.483 46.365 58.315 46.389 58.150 46.365 C 57.984 46.342 57.830 46.271 57.703 46.162 C 57.577 46.052 57.485 45.909 57.438 45.749 C 57.391 45.589 57.391 45.418 57.438 45.258 C 57.485 45.098 57.577 44.955 57.703 44.846 C 57.830 44.736 57.984 44.666 58.150 44.642 C 58.315 44.618 58.483 44.642 58.635 44.712 C 58.787 44.781 58.916 44.893 59.006 45.033 C 59.096 45.173 59.144 45.337 59.144 45.504 Z" stroke="rgb(0,0,255)" stroke-width="0.20"/>
  <path d="M 62.585 45.504 C 62.585 45.670 62.537 45.834 62.447 45.974 C 62.357 46.115 62.228 46.226 62.076 46.295 C 61.925 46.365 61.756 46.389 61.591 46.365 C 61.426 46.342 61.271 46.271 61.145 46.162 C 61.018 46.052 60.926 45.909 60.879 45.749 C 60.832 45.589 60.832 45.418 60.879 45.258 C 60.926 45.098 61.018 44.955 61.145 44.846 C 61.271 44.736 61.426 44.666 61.591 44.642 C 61.756 44.618 61.925 44.642 62.076 44.712 C 62.228 44.781 62.357 44.893 62.447 45.033 C 62.537 45.173 62.585 45.337 62.585 45.504 Z" stroke="rgb(0,0,255)" stroke-width="0.20"/>
  <path d="M 66.026 45.504 C 66.026 45.670 65.978 45.834 65.888 45.974 C 65.798 46.115 65.669 46.226 65.518 46.295 C 65.366 46.365 65.197 46.389 65.032 46.365 C 64.867 46.342 64.712 46.271 64.586 46.162 C 64.460 46.052 64.368 45.909 64.321 45.749 C 64.274 45.589 64.274 45.418 64.321 45.258 C 64.368 45.098 64.460 44.955 64.586 44.846 C 64.712 44.736 64.867 44.666 65.032 44.642 C 65.197 44.618 65.366 44.642 65.518 44.712 C 65.669 44.781 65.798 44.893 65.888 45.033 C 65.978 45.173 66.026 45.337 66.026 45.504 Z" stroke="rgb(0,0,255)" stroke-width="0.20"/>
  <path d="M 28.174 42.039 C 28.174 42.206 28.126 42.370 28.035 42.510 C 27.945 42.650 27.816 42.762 27.665 42.831 C 27.513 42.901 27.344 42.925 27.179 42.901 C 27.014 42.877 26.859 42.807 26.733 42.697 C 26.607 42.588 26.515 42.445 26.468 42.285 C 26.421 42.125 26.421 41.954 26.468 41.794 C 26.515 41.634 26.607 41.491 26.733 41.381 C 26.859 41.272 27.014 41.201 27.179 41.178 C 27.344 41.154 27.513 41.178 27.665 41.247 C 27.816 41.317 27.945 41.428 28.035 41.569 C 28.126 41.709 28.174 41.873 28.174 42.039 Z" stroke="rgb(0,0,255)" stroke-width="0.20"/>
  <path d="M 31.615 42.039 C 31.615 42.206 31.567 42.370 31.477 42.510 C 31.386 42.650 31.258 42.762 31.106 42.831 C 30.954 42.901 30.785 42.925 30.620 42.901 C 30.455 42.877 30.300 42.807 30.174 42.697 C 30.048 42.588 29.956 42.445 29.909 42.285 C 29.862 42.125 29.862 41.954 29.909 41.794 C 29.956 41.634 30.048 41.491 30.174 41.381 C 30.300 41.272 30.455 41.201 30.620 41.178 C 30.785 41.154 30.954 41.178 31.106 41.247 C 31.258 41.317 31.386 41.428 31.477 41.569 C 31.567 41.709 31.615 41.873 31.615 42.039 Z" stroke="rgb(0,0,255)" stroke-width="0.20"/>
  <path d="M 35.056 42.039 C 35.056 42.206 35.008 42.370 34.918 42.510 C 34.827 42.650 34.699 42.762 34.547 42.831 C 34.395 42.901 34.227 42.925 34.061 42.901 C 33.896 42.877 33.741 42.807 33.615 42.697 C 33.489 42.588 33.397 42.445 33.350 42.285 C 33.303 42.125 33.303 41.954 33.350 41.794 C 33.397 41.634 33.489 41.491 33.615 41.381 C 33.741 41.272 33.896 41.201 34.061 41.178 C 34.227 41.154 34.395 41.178 34.547 41.247 C 34.699 41.317 34.827 41.428 34.918 41.569 C 35.008 41.709 35.056 41.873 35.056 42.039 Z" stroke="rgb(0,0,255)" stroke-width="0.20"/>
  <path d="M 38.497 42.039 C 38.497 42.206 38.449 42.370 38.359 42.510 C 38.269 42.650 38.140 42.762 37.988 42.831 C 37.836 42.901 37.668 42.925 37.503 42.901 C 37.337 42.877 37.182 42.807 37.056 42.697 C 36.930 42.588 36.838 42.445 36.791 42.285 C 36.744 42.125 36.744 41.954 36.791 41.794 C 36.838 41.634 36.930 41.491 37.056 41.381 C 37.182 41.272 37.337 41.201 37.503 41.178 C 37.668 41.154 37.836 41.178 37.988 41.247 C 38.140 41.317 38.269 41.428 38.359 41.569 C 38.449 41.709 38.497 41.873 38.497 42.039 Z" stroke="rgb(0,0,255)" stroke-width="0.20"/>
  <path d="M 41.938 42.039 C 41.938 42.206 41.890 42.370 41.800 42.510 C 41.710 42.650 41.581 42.762 41.429 42.831 C 41.277 42.901 41.109 42.925 40.944 42.901 C 40.779 42.877 40.624 42.807 40.498 42.697 C 40.371 42.588 40.279 42.445 40.232 42.285 C 40.185 42.125 40.185 41.954 40.232 41.794 C 40.279 41.634 40.371 41.491 40.498 41.381 C 40.624 41.272 40.779 41.201 40.944 41.178 C 41.109 41.154 41.277 41.178 41.429 41.247 C 41.581 41.317 41.710 41.428 41.800 41.569 C 41.890 41.709 41.938 41.873 41.938 42.039 Z" stroke="rgb(0,0,255)" stroke-width="0.20"/>
  <path d="M 45.379 42.039 C 45.379 42.206 45.331 42.370 45.241 42.510 C 45.151 42.650 45.022 42.762 44.870 42.831 C 44.719 42.901 44.550 42.925 44.385 42.901 C 44.220 42.877 44.065 42.807 43.939 42.697 C 43.813 42.588 43.721 42.445 43.674 42.285 C 43.626 42.125 43.626 41.954 43.674 41.794 C 43.721 41.634 43.813 41.491 43.939 41.381 C 44.065 41.272 44.220 41.201 44.385 41.178 C 44.550 41.154 44.719 41.178 44.870 41.247 C 45.022 41.317 45.151 41.428 45.241 41.569 C 45.331 41.709 45.379 41.873 45.379 42.039 Z" stroke="rgb(0,0,255)" stroke-width="0.20"/>
  <path d="M 48.821 42.039 C 48.821 42.206 48.773 42.370 48.682 42.510 C 48.592 42.650 48.463 42.762 48.312 42.831 C 48.160 42.901 47.991 42.925 47.826 42.901 C 47.661 42.877 47.506 42.807 47.380 42.697 C 47.254 42.588 47.162 42.445 47.115 42.285 C 47.068 42.125 47.068 41.954 47.115 41.794 C 47.162 41.634 47.254 41.491 47.380 41.381 C 47.506 41.272 47.661 41.201 47.826 41.178 C 47.991 41.154 48.160 41.178 48.312 41.247 C 48.463 41.317 48.592 41.428 48.682 41.569 C 48.773 41.709 48.821 41.873 48.821 42.039 Z" stroke="rgb(0,0,255)" stroke-width="0.20"/>
  <path d="M 52.262 42.039 C 52.262 42.206 52.214 42.370 52.124 42.510 C 52.033 42.650 51.905 42.762 51.753 42.831 C 51.601 42.901 51.432 42.925 51.267 42.901 C 51.102 42.877 50.947 42.807 50.821 42.697 C 50.695 42.588 50.603 42.445 50.556 42.285 C 50.509 42.125 50.509 41.954 50.556 41.794 C 50.603 41.634 50.695 41.491 50.821 41.381 C 50.947 41.272 51.102 41.201 51.267 41.178 C 51.432 41.154 51.601 41.178 51.753 41.247 C 51.905 41.317 52.033 41.428 52.124 41.569 C 52.214 41.709 52.262 41.873 52.262 42.039 Z" stroke="rgb(0,0,255)" stroke-width="0.20"/>
  <path d="M 55.703 42.039 C 55.703 42.206 55.655 42.370 55.565 42.510 C 55.475 42.650 55.346 42.762 55.194 42.831 C 55.042 42.901 54.874 42.925 54.708 42.901 C 54.543 42.877 54.388 42.807 54.262 42.697 C 54.136 42.588 54.044 42.445 53.997 42.285 C 53.950 42.125 53.950 41.954 53.997 41.794 C 54.044 41.634 54.136 41.491 54.262 41.381 C 54.388 41.272 54.543 41.201 54.708 41.178 C 54.874 41.154 55.042 41.178 55.194 41.247 C 55.346 41.317 55.475 41.428 55.565 41.569 C 55.655 41.709 55.703 41.873 55.703 42.039 Z" stroke="rgb(0,0,255)" stroke-width="0.20"/>
  <path d="M 59.144 42.039 C 59.144 42.206 59.096 42.370 59.006 42.510 C 58.916 42.650 58.787 42.762 58.635 42.831 C 58.483 42.901 58.315 42.925 58.150 42.901 C 57.984 42.877 57.830 42.807 57.703 42.697 C 57.577 42.588 57.485 42.445 57.438 42.285 C 57.391 42.125 57.391 41.954 57.438 41.794 C 57.485 41.634 57.577 41.491 57.703 41.381 C 57.830 41.272 57.984 41.201 58.150 41.178 C 58.315 41.154 58.483 41.178 58.635 41.247 C 58.787 41.317 58.916 41.428 59.006 41.569 C 59.096 41.709 59.144 41.873 59.144 42.039 Z" stroke="rgb(0,0,255)" stroke-width="0.20"/>
  <path d="M 62.585 42.039 C 62.585 42.206 62.537 42.370 62.447 42.510 C 62.357 42.650 62.228 42.762 62.076 42.831 C 61.925 42.901 61.756 42.925 61.591 42.901 C 61.426 42.877 61.271 42.807 61.145 42.697 C 61.018 42.588 60.926 42.445 60.879 42.285 C 60.832 42.125 60.832 41.954 60.879 41.794 C 60.926 41.634 61.018 41.491 61.145 41.381 C 61.271 41.272 61.426 41.201 61.591 41.178 C 61.756 41.154 61.925 41.178 62.076 41.247 C 62.228 41.317 62.357 41.428 62.447 41.569 C 62.537 41.709 62.585 41.873 62.585 42.039 Z" stroke="rgb(0,0,255)" stroke-width="0.20"/>
  <path d="M 66.026 42.039 C 66.026 42.206 65.978 42.370 65.888 42.510 C 65.798 42.650 65.669 42.762 65.518 42.831 C 65.366 42.901 65.197 42.925 65.032 42.901 C 64.867 42.877 64.712 42.807 64.586 42.697 C 64.460 42.588 64.368 42.445 64.321 42.285 C 64.274 42.125 64.274 41.954 64.321 41.794 C 64.368 41.634 64.460 41.491 64.586 41.381 C 64.712 41.272 64.867 41.201 65.032 41.178 C 65.197 41.154 65.366 41.178 65.518 41.247 C 65.669 41.317 65.798 41.428 65.888 41.569 C 65.978 41.709 66.026 41.873 66.026 42.039 Z" stroke="rgb(0,0,255)" stroke-width="0.20"/>
  <path d="M 69.468 42.039 C 69.468 42.206 69.420 42.370 69.329 42.510 C 69.239 42.650 69.111 42.762 68.959 42.831 C 68.807 42.901 68.638 42.925 68.473 42.901 C 68.308 42.877 68.153 42.807 68.027 42.697 C 67.901 42.588 67.809 42.445 67.762 42.285 C 67.715 42.125 67.715 41.954 67.762 41.794 C 67.809 41.634 67.901 41.491 68.027 41.381 C 68.153 41.272 68.308 41.201 68.473 41.178 C 68.638 41.154 68.807 41.178 68.959 41.247 C 69.111 41.317 69.239 41.428 69.329 41.569 C 69.420 41.709 69.468 41.873 69.468 42.039 Z" stroke="rgb(0,0,255)" stroke-width="0.20"/>
  <path d="M 24.732 38.575 C 24.732 38.742 24.684 38.905 24.594 39.046 C 24.504 39.186 24.375 39.298 24.223 39.367 C 24.072 39.436 23.903 39.461 23.738 39.437 C 23.573 39.413 23.418 39.342 23.292 39.233 C 23.166 39.124 23.073 38.981 23.026 38.820 C 22.979 38.660 22.979 38.490 23.026 38.330 C 23.073 38.170 23.166 38.027 23.292 37.917 C 23.418 37.808 23.573 37.737 23.738 37.713 C 23.903 37.690 24.072 37.714 24.223 37.783 C 24.375 37.853 24.504 37.964 24.594 38.105 C 24.684 38.245 24.732 38.408 24.732 38.575 Z" stroke="rgb(0,0,255)" stroke-width="0.20"/>
  <path d="M 28.174 38.575 C 28.174 38.742 28.126 38.905 28.035 39.046 C 27.945 39.186 27.816 39.298 27.665 39.367 C 27.513 39.436 27.344 39.461 27.179 39.437 C 27.014 39.413 26.859 39.342 26.733 39.233 C 26.607 39.124 26.515 38.981 26.468 38.820 C 26.421 38.660 26.421 38.490 26.468 38.330 C 26.515 38.170 26.607 38.027 26.733 37.917 C 26.859 37.808 27.014 37.737 27.179 37.713 C 27.344 37.690 27.513 37.714 27.665 37.783 C 27.816 37.853 27.945 37.964 28.035 38.105 C 28.126 38.245 28.174 38.408 28.174 38.575 Z" stroke="rgb(0,0,255)" stroke-width="0.20"/>
  <path d="M 31.615 38.575 C 31.615 38.742 31.567 38.905 31.477 39.046 C 31.386 39.186 31.258 39.298 31.106 39.367 C 30.954 39.436 30.785 39.461 30.620 39.437 C 30.455 39.413 30.300 39.342 30.174 39.233 C 30.048 39.124 29.956 38.981 29.909 38.820 C 29.862 38.660 29.862 38.490 29.909 38.330 C 29.956 38.170 30.048 38.027 30.174 37.917 C 30.300 37.808 30.455 37.737 30.620 37.713 C 30.785 37.690 30.954 37.714 31.106 37.783 C 31.258 37.853 31.386 37.964 31.477 38.105 C 31.567 38.245 31.615 38.408 31.615 38.575 Z" stroke="rgb(0,0,255)" stroke-width="0.20"/>
  <path d="M 35.056 38.575 C 35.056 38.742 35.008 38.905 34.918 39.046 C 34.827 39.186 34.699 39.298 34.547 39.367 C 34.395 39.436 34.227 39.461 34.061 39.437 C 33.896 39.413 33.741 39.342 33.615 39.233 C 33.489 39.124 33.397 38.981 33.350 38.820 C 33.303 38.660 33.303 38.490 33.350 38.330 C 33.397 38.170 33.489 38.027 33.615 37.917 C 33.741 37.808 33.896 37.737 34.061 37.713 C 34.227 37.690 34.395 37.714 34.547 37.783 C 34.699 37.853 34.827 37.964 34.918 38.105 C 35.008 38.245 35.056 38.408 35.056 38.575 Z" stroke="rgb(0,0,255)" stroke-width="0.20"/>
  <path d="M 38.497 38.575 C 38.497 38.742 38.449 38.905 38.359 39.046 C 38.269 39.186 38.140 39.298 37.988 39.367 C 37.836 39.436 37.668 39.461 37.503 39.437 C 37.337 39.413 37.182 39.342 37.056 39.233 C 36.930 39.124 36.838 38.981 36.791 38.820 C 36.744 38.660 36.744 38.490 36.791 38.330 C 36.838 38.170 36.930 38.027 37.056 37.917 C 37.182 37.808 37.337 37.737 37.503 37.713 C 37.668 37.690 37.836 37.714 37.988 37.783 C 38.140 37.853 38.269 37.964 38.359 38.105 C 38.449 38.245 38.497 38.408 38.497 38.575 Z" stroke="rgb(0,0,255)" stroke-width="0.20"/>
  <path d="M 41.938 38.575 C 41.938 38.742 41.890 38.905 41.800 39.046 C 41.710 39.186 41.581 39.298 41.429 39.367 C 41.277 39.436 41.109 39.461 40.944 39.437 C 40.779 39.413 40.624 39.342 40.498 39.233 C 40.371 39.124 40.279 38.981 40.232 38.820 C 40.185 38.660 40.185 38.490 40.232 38.330 C 40.279 38.170 40.371 38.027 40.498 37.917 C 40.624 37.808 40.779 37.737 40.944 37.713 C 41.109 37.690 41.277 37.714 41.429 37.783 C 41.581 37.853 41.710 37.964 41.800 38.105 C 41.890 38.245 41.938 38.408 41.938 38.575 Z" stroke="rgb(0,0,255)" stroke-width="0.20"/>
  <path d="M 45.379 38.575 C 45.379 38.742 45.331 38.905 45.241 39.046 C 45.151 39.186 45.022 39.298 44.870 39.367 C 44.719 39.436 44.550 39.461 44.385 39.437 C 44.220 39.413 44.065 39.342 43.939 39.233 C 43.813 39.124 43.721 38.981 43.674 38.820 C 43.626 38.660 43.626 38.490 43.674 38.330 C 43.721 38.170 43.813 38.027 43.939 37.917 C 44.065 37.808 44.220 37.737 44.385 37.713 C 44.550 37.690 44.719 37.714 44.870 37.783 C 45.022 37.853 45.151 37.964 45.241 38.105 C 45.331 38.245 45.379 38.408 45.379 38.575 Z" stroke="rgb(0,0,255)" stroke-width="0.20"/>
  <path d="M 48.821 38.575 C 48.821 38.742 48.773 38.905 48.682 39.046 C 48.592 39.186 48.463 39.298 48.312 39.367 C 48.160 39.436 47.991 39.461 47.826 39.437 C 47.661 39.413 47.506 39.342 47.380 39.233 C 47.254 39.124 47.162 38.981 47.115 38.820 C 47.068 38.660 47.068 38.490 47.115 38.330 C 47.162 38.170 47.254 38.027 47.380 37.917 C 47.506 37.808 47.661 37.737 47.826 37.713 C 47.991 37.690 48.160 37.714 48.312 37.783 C 48.463 37.853 48.592 37.964 48.682 38.105 C 48.773 38.245 48.821 38.408 48.821 38.575 Z" stroke="rgb(0,0,255)" stroke-width="0.20"/>
  <path d="M 52.262 38.575 C 52.262 38.742 52.214 38.905 52.124 39.046 C 52.033 39.186 51.905 39.298 51.753 39.367 C 51.601 39.436 51.432 39.461 51.267 39.437 C 51.102 39.413 50.947 39.342 50.821 39.233 C 50.695 39.124 50.603 38.981 50.556 38.820 C 50.509 38.660 50.509 38.490 50.556 38.330 C 50.603 38.170 50.695 38.027 50.821 37.917 C 50.947 37.808 51.102 37.737 51.267 37.713 C 51.432 37.690 51.601 37.714 51.753 37.783 C 51.905 37.853 52.033 37.964 52.124 38.105 C 52.214 38.245 52.262 38.408 52.262 38.575 Z" stroke="rgb(0,0,255)" stroke-width="0.20"/>
  <path d="M 55.703 38.575 C 55.703 38.742 55.655 38.905 55.565 39.046 C 55.475 39.186 55.346 39.298 55.194 39.367 C 55.042 39.436 54.874 39.461 54.708 39.437 C 54.543 39.413 54.388 39.342 54.262 39.233 C 54.136 39.124 54.044 38.981 53.997 38.820 C 53.950 38.660 53.950 38.490 53.997 38.330 C 54.044 38.170 54.136 38.027 54.262 37.917 C 54.388 37.808 54.543 37.737 54.708 37.713 C 54.874 37.690 55.042 37.714 55.194 37.783 C 55.346 37.853 55.475 37.964 55.565 38.105 C 55.655 38.245 55.703 38.408 55.703 38.575 Z" stroke="rgb(0,0,255)" stroke-width="0.20"/>
  <path d="M 59.144 38.575 C 59.144 38.742 59.096 38.905 59.006 39.046 C 58.916 39.186 58.787 39.298 58.635 39.367 C 58.483 39.436 58.315 39.461 58.150 39.437 C 57.984 39.413 57.830 39.342 57.703 39.233 C 57.577 39.124 57.485 38.981 57.438 38.820 C 57.391 38.660 57.391 38.490 57.438 38.330 C 57.485 38.170 57.577 38.027 57.703 37.917 C 57.830 37.808 57.984 37.737 58.150 37.713 C 58.315 37.690 58.483 37.714 58.635 37.783 C 58.787 37.853 58.916 37.964 59.006 38.105 C 59.096 38.245 59.144 38.408 59.144 38.575 Z" stroke="rgb(0,0,255)" stroke-width="0.20"/>
  <path d="M 62.585 38.575 C 62.585 38.742 62.537 38.905 62.447 39.046 C 62.357 39.186 62.228 39.298 62.076 39.367 C 61.925 39.436 61.756 39.461 61.591 39.437 C 61.426 39.413 61.271 39.342 61.145 39.233 C 61.018 39.124 60.926 38.981 60.879 38.820 C 60.832 38.660 60.832 38.490 60.879 38.330 C 60.926 38.170 61.018 38.027 61.145 37.917 C 61.271 37.808 61.426 37.737 61.591 37.713 C 61.756 37.690 61.925 37.714 62.076 37.783 C 62.228 37.853 62.357 37.964 62.447 38.105 C 62.537 38.245 62.585 38.408 62.585 38.575 Z" stroke="rgb(0,0,255)" stroke-width="0.20"/>
  <path d="M 66.026 38.575 C 66.026 38.742 65.978 38.905 65.888 39.046 C 65.798 39.186 65.669 39.298 65.518 39.367 C 65.366 39.436 65.197 39.461 65.032 39.437 C 64.867 39.413 64.712 39.342 64.586 39.233 C 64.460 39.124 64.368 38.981 64.321 38.820 C 64.274 38.660 64.274 38.490 64.321 38.330 C 64.368 38.170 64.460 38.027 64.586 37.917 C 64.712 37.808 64.867 37.737 65.032 37.713 C 65.197 37.690 65.366 37.714 65.518 37.783 C 65.669 37.853 65.798 37.964 65.888 38.105 C 65.978 38.245 66.026 38.408 66.026 38.575 Z" stroke="rgb(0,0,255)" stroke-width="0.20"/>
  <path d="M 69.468 38.575 C 69.468 38.742 69.420 38.905 69.329 39.046 C 69.239 39.186 69.111 39.298 68.959 39.367 C 68.807 39.436 68.638 39.461 68.473 39.437 C 68.308 39.413 68.153 39.342 68.027 39.233 C 67.901 39.124 67.809 38.981 67.762 38.820 C 67.715 38.660 67.715 38.490 67.762 38.330 C 67.809 38.170 67.901 38.027 68.027 37.917 C 68.153 37.808 68.308 37.737 68.473 37.713 C 68.638 37.690 68.807 37.714 68.959 37.783 C 69.111 37.853 69.239 37.964 69.329 38.105 C 69.420 38.245 69.468 38.408 69.468 38.575 Z" stroke="rgb(0,0,255)" stroke-width="0.20"/>
  <path d="M 72.909 38.575 C 72.909 38.742 72.861 38.905 72.771 39.046 C 72.680 39.186 72.552 39.298 72.400 39.367 C 72.248 39.436 72.080 39.461 71.914 39.437 C 71.749 39.413 71.594 39.342 71.468 39.233 C 71.342 39.124 71.250 38.981 71.203 38.820 C 71.156 38.660 71.156 38.490 71.203 38.330 C 71.250 38.170 71.342 38.027 71.468 37.917 C 71.594 37.808 71.749 37.737 71.914 37.713 C 72.080 37.690 72.248 37.714 72.400 37.783 C 72.552 37.853 72.680 37.964 72.771 38.105 C 72.861 38.245 72.909 38.408 72.909 38.575 Z" stroke="rgb(0,0,255)" stroke-width="0.20"/>
  <path d="M 24.732 35.111 C 24.732 35.278 24.684 35.441 24.594 35.582 C 24.504 35.722 24.375 35.834 24.223 35.903 C 24.072 35.972 23.903 35.997 23.738 35.973 C 23.573 35.949 23.418 35.878 23.292 35.769 C 23.166 35.660 23.073 35.516 23.026 35.356 C 22.979 35.196 22.979 35.026 23.026 34.866 C 23.073 34.706 23.166 34.562 23.292 34.453 C 23.418 34.344 23.573 34.273 23.738 34.249 C 23.903 34.226 24.072 34.250 24.223 34.319 C 24.375 34.388 24.504 34.500 24.594 34.640 C 24.684 34.781 24.732 34.944 24.732 35.111 Z" stroke="rgb(0,0,255)" stroke-width="0.20"/>
  <path d="M 28.174 35.111 C 28.174 35.278 28.126 35.441 28.035 35.582 C 27.945 35.722 27.816 35.834 27.665 35.903 C 27.513 35.972 27.344 35.997 27.179 35.973 C 27.014 35.949 26.859 35.878 26.733 35.769 C 26.607 35.660 26.515 35.516 26.468 35.356 C 26.421 35.196 26.421 35.026 26.468 34.866 C 26.515 34.706 26.607 34.562 26.733 34.453 C 26.859 34.344 27.014 34.273 27.179 34.249 C 27.344 34.226 27.513 34.250 27.665 34.319 C 27.816 34.388 27.945 34.500 28.035 34.640 C 28.126 34.781 28.174 34.944 28.174 35.111 Z" stroke="rgb(0,0,255)" stroke-width="0.20"/>
  <path d="M 31.615 35.111 C 31.615 35.278 31.567 35.441 31.477 35.582 C 31.386 35.722 31.258 35.834 31.106 35.903 C 30.954 35.972 30.785 35.997 30.620 35.973 C 30.455 35.949 30.300 35.878 30.174 35.769 C 30.048 35.660 29.956 35.516 29.909 35.356 C 29.862 35.196 29.862 35.026 29.909 34.866 C 29.956 34.706 30.048 34.562 30.174 34.453 C 30.300 34.344 30.455 34.273 30.620 34.249 C 30.785 34.226 30.954 34.250 31.106 34.319 C 31.258 34.388 31.386 34.500 31.477 34.640 C 31.567 34.781 31.615 34.944 31.615 35.111 Z" stroke="rgb(0,0,255)" stroke-width="0.20"/>
  <path d="M 35.056 35.111 C 35.056 35.278 35.008 35.441 34.918 35.582 C 34.827 35.722 34.699 35.834 34.547 35.903 C 34.395 35.972 34.227 35.997 34.061 35.973 C 33.896 35.949 33.741 35.878 33.615 35.769 C 33.489 35.660 33.397 35.516 33.350 35.356 C 33.303 35.196 33.303 35.026 33.350 34.866 C 33.397 34.706 33.489 34.562 33.615 34.453 C 33.741 34.344 33.896 34.273 34.061 34.249 C 34.227 34.226 34.395 34.250 34.547 34.319 C 34.699 34.388 34.827 34.500 34.918 34.640 C 35.008 34.781 35.056 34.944 35.056 35.111 Z" stroke="rgb(0,0,255)" stroke-width="0.20"/>
  <path d="M 38.497 35.111 C 38.497 35.278 38.449 35.441 38.359 35.582 C 38.269 35.722 38.140 35.834 37.988 35.903 C 37.836 35.972 37.668 35.997 37.503 35.973 C 37.337 35.949 37.182 35.878 37.056 35.769 C 36.930 35.660 36.838 35.516 36.791 35.356 C 36.744 35.196 36.744 35.026 36.791 34.866 C 36.838 34.706 36.930 34.562 37.056 34.453 C 37.182 34.344 37.337 34.273 37.503 34.249 C 37.668 34.226 37.836 34.250 37.988 34.319 C 38.140 34.388 38.269 34.500 38.359 34.640 C 38.449 34.781 38.497 34.944 38.497 35.111 Z" stroke="rgb(0,0,255)" stroke-width="0.20"/>
  <path d="M 41.938 35.111 C 41.938 35.278 41.890 35.441 41.800 35.582 C 41.710 35.722 41.581 35.834 41.429 35.903 C 41.277 35.972 41.109 35.997 40.944 35.973 C 40.779 35.949 40.624 35.878 40.498 35.769 C 40.371 35.660 40.279 35.516 40.232 35.356 C 40.185 35.196 40.185 35.026 40.232 34.866 C 40.279 34.706 40.371 34.562 40.498 34.453 C 40.624 34.344 40.779 34.273 40.944 34.249 C 41.109 34.226 41.277 34.250 41.429 34.319 C 41.581 34.388 41.710 34.500 41.800 34.640 C 41.890 34.781 41.938 34.944 41.938 35.111 Z" stroke="rgb(0,0,255)" stroke-width="0.20"/>
  <path d="M 45.379 35.111 C 45.379 35.278 45.331 35.441 45.241 35.582 C 45.151 35.722 45.022 35.834 44.870 35.903 C 44.719 35.972 44.550 35.997 44.385 35.973 C 44.220 35.949 44.065 35.878 43.939 35.769 C 43.813 35.660 43.721 35.516 43.674 35.356 C 43.626 35.196 43.626 35.026 43.674 34.866 C 43.721 34.706 43.813 34.562 43.939 34.453 C 44.065 34.344 44.220 34.273 44.385 34.249 C 44.550 34.226 44.719 34.250 44.870 34.319 C 45.022 34.388 45.151 34.500 45.241 34.640 C 45.331 34.781 45.379 34.944 45.379 35.111 Z" stroke="rgb(0,0,255)" stroke-width="0.20"/>
  <path d="M 48.821 35.111 C 48.821 35.278 48.773 35.441 48.682 35.582 C 48.592 35.722 48.463 35.834 48.312 35.903 C 48.160 35.972 47.991 35.997 47.826 35.973 C 47.661 35.949 47.506 35.878 47.380 35.769 C 47.254 35.660 47.162 35.516 47.115 35.356 C 47.068 35.196 47.068 35.026 47.115 34.866 C 47.162 34.706 47.254 34.562 47.380 34.453 C 47.506 34.344 47.661 34.273 47.826 34.249 C 47.991 34.226 48.160 34.250 48.312 34.319 C 48.463 34.388 48.592 34.500 48.682 34.640 C 48.773 34.781 48.821 34.944 48.821 35.111 Z" stroke="rgb(0,0,255)" stroke-width="0.20"/>
  <path d="M 52.262 35.111 C 52.262 35.278 52.214 35.441 52.124 35.582 C 52.033 35.722 51.905 35.834 51.753 35.903 C 51.601 35.972 51.432 35.997 51.267 35.973 C 51.102 35.949 50.947 35.878 50.821 35.769 C 50.695 35.660 50.603 35.516 50.556 35.356 C 50.509 35.196 50.509 35.026 50.556 34.866 C 50.603 34.706 50.695 34.562 50.821 34.453 C 50.947 34.344 51.102 34.273 51.267 34.249 C 51.432 34.226 51.601 34.250 51.753 34.319 C 51.905 34.388 52.033 34.500 52.124 34.640 C 52.214 34.781 52.262 34.944 52.262 35.111 Z" stroke="rgb(0,0,255)" stroke-width="0.20"/>
  <path d="M 55.703 35.111 C 55.703 35.278 55.655 35.441 55.565 35.582 C 55.475 35.722 55.346 35.834 55.194 35.903 C 55.042 35.972 54.874 35.997 54.708 35.973 C 54.543 35.949 54.388 35.878 54.262 35.769 C 54.136 35.660 54.044 35.516 53.997 35.356 C 53.950 35.196 53.950 35.026 53.997 34.866 C 54.044 34.706 54.136 34.562 54.262 34.453 C 54.388 34.344 54.543 34.273 54.708 34.249 C 54.874 34.226 55.042 34.250 55.194 34.319 C 55.346 34.388 55.475 34.500 55.565 34.640 C 55.655 34.781 55.703 34.944 55.703 35.111 Z" stroke="rgb(0,0,255)" stroke-width="0.20"/>
  <path d="M 59.144 35.111 C 59.144 35.278 59.096 35.441 59.006 35.582 C 58.916 35.722 58.787 35.834 58.635 35.903 C 58.483 35.972 58.315 35.997 58.150 35.973 C 57.984 35.949 57.830 35.878 57.703 35.769 C 57.577 35.660 57.485 35.516 57.438 35.356 C 57.391 35.196 57.391 35.026 57.438 34.866 C 57.485 34.706 57.577 34.562 57.703 34.453 C 57.830 34.344 57.984 34.273 58.150 34.249 C 58.315 34.226 58.483 34.250 58.635 34.319 C 58.787 34.388 58.916 34.500 59.006 34.640 C 59.096 34.781 59.144 34.944 59.144 35.111 Z" stroke="rgb(0,0,255)" stroke-width="0.20"/>
  <path d="M 62.585 35.111 C 62.585 35.278 62.537 35.441 62.447 35.582 C 62.357 35.722 62.228 35.834 62.076 35.903 C 61.925 35.972 61.756 35.997 61.591 35.973 C 61.426 35.949 61.271 35.878 61.145 35.769 C 61.018 35.660 60.926 35.516 60.879 35.356 C 60.832 35.196 60.832 35.026 60.879 34.866 C 60.926 34.706 61.018 34.562 61.145 34.453 C 61.271 34.344 61.426 34.273 61.591 34.249 C 61.756 34.226 61.925 34.250 62.076 34.319 C 62.228 34.388 62.357 34.500 62.447 34.640 C 62.537 34.781 62.585 34.944 62.585 35.111 Z" stroke="rgb(0,0,255)" stroke-width="0.20"/>
  <path d="M 66.026 35.111 C 66.026 35.278 65.978 35.441 65.888 35.582 C 65.798 35.722 65.669 35.834 65.518 35.903 C 65.366 35.972 65.197 35.997 65.032 35.973 C 64.867 35.949 64.712 35.878 64.586 35.769 C 64.460 35.660 64.368 35.516 64.321 35.356 C 64.274 35.196 64.274 35.026 64.321 34.866 C 64.368 34.706 64.460 34.562 64.586 34.453 C 64.712 34.344 64.867 34.273 65.032 34.249 C 65.197 34.226 65.366 34.250 65.518 34.319 C 65.669 34.388 65.798 34.500 65.888 34.640 C 65.978 34.781 66.026 34.944 66.026 35.111 Z" stroke="rgb(0,0,255)" stroke-width="0.20"/>
  <path d="M 69.468 35.111 C 69.468 35.278 69.420 35.441 69.329 35.582 C 69.239 35.722 69.111 35.834 68.959 35.903 C 68.807 35.972 68.638 35.997 68.473 35.973 C 68.308 35.949 68.153 35.878 68.027 35.769 C 67.901 35.660 67.809 35.516 67.762 35.356 C 67.715 35.196 67.715 35.026 67.762 34.866 C 67.809 34.706 67.901 34.562 68.027 34.453 C 68.153 34.344 68.308 34.273 68.473 34.249 C 68.638 34.226 68.807 34.250 68.959 34.319 C 69.111 34.388 69.239 34.500 69.329 34.640 C 69.420 34.781 69.468 34.944 69.468 35.111 Z" stroke="rgb(0,0,255)" stroke-width="0.20"/>
  <path d="M 72.909 35.111 C 72.909 35.278 72.861 35.441 72.771 35.582 C 72.680 35.722 72.552 35.834 72.400 35.903 C 72.248 35.972 72.080 35.997 71.914 35.973 C 71.749 35.949 71.594 35.878 71.468 35.769 C 71.342 35.660 71.250 35.516 71.203 35.356 C 71.156 35.196 71.156 35.026 71.203 34.866 C 71.250 34.706 71.342 34.562 71.468 34.453 C 71.594 34.344 71.749 34.273 71.914 34.249 C 72.080 34.226 72.248 34.250 72.400 34.319 C 72.552 34.388 72.680 34.500 72.771 34.640 C 72.861 34.781 72.909 34.944 72.909 35.111 Z" stroke="rgb(0,0,255)" stroke-width="0.20"/>
  <path d="M 24.732 31.647 C 24.732 31.814 24.684 31.977 24.594 32.118 C 24.504 32.258 24.375 32.369 24.223 32.439 C 24.072 32.508 23.903 32.532 23.738 32.509 C 23.573 32.485 23.418 32.414 23.292 32.305 C 23.166 32.195 23.073 32.052 23.026 31.892 C 22.979 31.732 22.979 31.562 23.026 31.402 C 23.073 31.241 23.166 31.098 23.292 30.989 C 23.418 30.880 23.573 30.809 23.738 30.785 C 23.903 30.761 24.072 30.786 24.223 30.855 C 24.375 30.924 24.504 31.036 24.594 31.176 C 24.684 31.317 24.732 31.480 24.732 31.647 Z" stroke="rgb(0,0,255)" stroke-width="0.20"/>
  <path d="M 28.174 31.647 C 28.174 31.814 28.126 31.977 28.035 32.118 C 27.945 32.258 27.816 32.369 27.665 32.439 C 27.513 32.508 27.344 32.532 27.179 32.509 C 27.014 32.485 26.859 32.414 26.733 32.305 C 26.607 32.195 26.515 32.052 26.468 31.892 C 26.421 31.732 26.421 31.562 26.468 31.402 C 26.515 31.241 26.607 31.098 26.733 30.989 C 26.859 30.880 27.014 30.809 27.179 30.785 C 27.344 30.761 27.513 30.786 27.665 30.855 C 27.816 30.924 27.945 31.036 28.035 31.176 C 28.126 31.317 28.174 31.480 28.174 31.647 Z" stroke="rgb(0,0,255)" stroke-width="0.20"/>
  <path d="M 31.615 31.647 C 31.615 31.814 31.567 31.977 31.477 32.118 C 31.386 32.258 31.258 32.369 31.106 32.439 C 30.954 32.508 30.785 32.532 30.620 32.509 C 30.455 32.485 30.300 32.414 30.174 32.305 C 30.048 32.195 29.956 32.052 29.909 31.892 C 29.862 31.732 29.862 31.562 29.909 31.402 C 29.956 31.241 30.048 31.098 30.174 30.989 C 30.300 30.880 30.455 30.809 30.620 30.785 C 30.785 30.761 30.954 30.786 31.106 30.855 C 31.258 30.924 31.386 31.036 31.477 31.176 C 31.567 31.317 31.615 31.480 31.615 31.647 Z" stroke="rgb(0,0,255)" stroke-width="0.20"/>
  <path d="M 35.056 31.647 C 35.056 31.814 35.008 31.977 34.918 32.118 C 34.827 32.258 34.699 32.369 34.547 32.439 C 34.395 32.508 34.227 32.532 34.061 32.509 C 33.896 32.485 33.741 32.414 33.615 32.305 C 33.489 32.195 33.397 32.052 33.350 31.892 C 33.303 31.732 33.303 31.562 33.350 31.402 C 33.397 31.241 33.489 31.098 33.615 30.989 C 33.741 30.880 33.896 30.809 34.061 30.785 C 34.227 30.761 34.395 30.786 34.547 30.855 C 34.699 30.924 34.827 31.036 34.918 31.176 C 35.008 31.317 35.056 31.480 35.056 31.647 Z" stroke="rgb(0,0,255)" stroke-width="0.20"/>
  <path d="M 38.497 31.647 C 38.497 31.814 38.449 31.977 38.359 32.118 C 38.269 32.258 38.140 32.369 37.988 32.439 C 37.836 32.508 37.668 32.532 37.503 32.509 C 37.337 32.485 37.182 32.414 37.056 32.305 C 36.930 32.195 36.838 32.052 36.791 31.892 C 36.744 31.732 36.744 31.562 36.791 31.402 C 36.838 31.241 36.930 31.098 37.056 30.989 C 37.182 30.880 37.337 30.809 37.503 30.785 C 37.668 30.761 37.836 30.786 37.988 30.855 C 38.140 30.924 38.269 31.036 38.359 31.176 C 38.449 31.317 38.497 31.480 38.497 31.647 Z" stroke="rgb(0,0,255)" stroke-width="0.20"/>
  <path d="M 41.938 31.647 C 41.938 31.814 41.890 31.977 41.800 32.118 C 41.710 32.258 41.581 32.369 41.429 32.439 C 41.277 32.508 41.109 32.532 40.944 32.509 C 40.779 32.485 40.624 32.414 40.498 32.305 C 40.371 32.195 40.279 32.052 40.232 31.892 C 40.185 31.732 40.185 31.562 40.232 31.402 C 40.279 31.241 40.371 31.098 40.498 30.989 C 40.624 30.880 40.779 30.809 40.944 30.785 C 41.109 30.761 41.277 30.786 41.429 30.855 C 41.581 30.924 41.710 31.036 41.800 31.176 C 41.890 31.317 41.938 31.480 41.938 31.647 Z" stroke="rgb(0,0,255)" stroke-width="0.20"/>
  <path d="M 45.379 31.647 C 45.379 31.814 45.331 31.977 45.241 32.118 C 45.151 32.258 45.022 32.369 44.870 32.439 C 44.719 32.508 44.550 32.532 44.385 32.509 C 44.220 32.485 44.065 32.414 43.939 32.305 C 43.813 32.195 43.721 32.052 43.674 31.892 C 43.626 31.732 43.626 31.562 43.674 31.402 C 43.721 31.241 43.813 31.098 43.939 30.989 C 44.065 30.880 44.220 30.809 44.385 30.785 C 44.550 30.761 44.719 30.786 44.870 30.855 C 45.022 30.924 45.151 31.036 45.241 31.176 C 45.331 31.317 45.379 31.480 45.379 31.647 Z" stroke="rgb(0,0,255)" stroke-width="0.20"/>
  <path d="M 48.821 31.647 C 48.821 31.814 48.773 31.977 48.682 32.118 C 48.592 32.258 48.463 32.369 48.312 32.439 C 48.160 32.508 47.991 32.532 47.826 32.509 C 47.661 32.485 47.506 32.414 47.380 32.305 C 47.254 32.195 47.162 32.052 47.115 31.892 C 47.068 31.732 47.068 31.562 47.115 31.402 C 47.162 31.241 47.254 31.098 47.380 30.989 C 47.506 30.880 47.661 30.809 47.826 30.785 C 47.991 30.761 48.160 30.786 48.312 30.855 C 48.463 30.924 48.592 31.036 48.682 31.176 C 48.773 31.317 48.821 31.480 48.821 31.647 Z" stroke="rgb(0,0,255)" stroke-width="0.20"/>
  <path d="M 52.262 31.647 C 52.262 31.814 52.214 31.977 52.124 32.118 C 52.033 32.258 51.905 32.369 51.753 32.439 C 51.601 32.508 51.432 32.532 51.267 32.509 C 51.102 32.485 50.947 32.414 50.821 32.305 C 50.695 32.195 50.603 32.052 50.556 31.892 C 50.509 31.732 50.509 31.562 50.556 31.402 C 50.603 31.241 50.695 31.098 50.821 30.989 C 50.947 30.880 51.102 30.809 51.267 30.785 C 51.432 30.761 51.601 30.786 51.753 30.855 C 51.905 30.924 52.033 31.036 52.124 31.176 C 52.214 31.317 52.262 31.480 52.262 31.647 Z" stroke="rgb(0,0,255)" stroke-width="0.20"/>
  <path d="M 55.703 31.647 C 55.703 31.814 55.655 31.977 55.565 32.118 C 55.475 32.258 55.346 32.369 55.194 32.439 C 55.042 32.508 54.874 32.532 54.708 32.509 C 54.543 32.485 54.388 32.414 54.262 32.305 C 54.136 32.195 54.044 32.052 53.997 31.892 C 53.950 31.732 53.950 31.562 53.997 31.402 C 54.044 31.241 54.136 31.098 54.262 30.989 C 54.388 30.880 54.543 30.809 54.708 30.785 C 54.874 30.761 55.042 30.786 55.194 30.855 C 55.346 30.924 55.475 31.036 55.565 31.176 C 55.655 31.317 55.703 31.480 55.703 31.647 Z" stroke="rgb(0,0,255)" stroke-width="0.20"/>
  <path d="M 59.144 31.647 C 59.144 31.814 59.096 31.977 59.006 32.118 C 58.916 32.258 58.787 32.369 58.635 32.439 C 58.483 32.508 58.315 32.532 58.150 32.509 C 57.984 32.485 57.830 32.414 57.703 32.305 C 57.577 32.195 57.485 32.052 57.438 31.892 C 57.391 31.732 57.391 31.562 57.438 31.402 C 57.485 31.241 57.577 31.098 57.703 30.989 C 57.830 30.880 57.984 30.809 58.150 30.785 C 58.315 30.761 58.483 30.786 58.635 30.855 C 58.787 30.924 58.916 31.036 59.006 31.176 C 59.096 31.317 59.144 31.480 59.144 31.647 Z" stroke="rgb(0,0,255)" stroke-width="0.20"/>
  <path d="M 62.585 31.647 C 62.585 31.814 62.537 31.977 62.447 32.118 C 62.357 32.258 62.228 32.369 62.076 32.439 C 61.925 32.508 61.756 32.532 61.591 32.509 C 61.426 32.485 61.271 32.414 61.145 32.305 C 61.018 32.195 60.926 32.052 60.879 31.892 C 60.832 31.732 60.832 31.562 60.879 31.402 C 60.926 31.241 61.018 31.098 61.145 30.989 C 61.271 30.880 61.426 30.809 61.591 30.785 C 61.756 30.761 61.925 30.786 62.076 30.855 C 62.228 30.924 62.357 31.036 62.447 31.176 C 62.537 31.317 62.585 31.480 62.585 31.647 Z" stroke="rgb(0,0,255)" stroke-width="0.20"/>
  <path d="M 66.026 31.647 C 66.026 31.814 65.978 31.977 65.888 32.118 C 65.798 32.258 65.669 32.369 65.518 32.439 C 65.366 32.508 65.197 32.532 65.032 32.509 C 64.867 32.485 64.712 32.414 64.586 32.305 C 64.460 32.195 64.368 32.052 64.321 31.892 C 64.274 31.732 64.274 31.562 64.321 31.402 C 64.368 31.241 64.460 31.098 64.586 30.989 C 64.712 30.880 64.867 30.809 65.032 30.785 C 65.197 30.761 65.366 30.786 65.518 30.855 C 65.669 30.924 65.798 31.036 65.888 31.176 C 65.978 31.317 66.026 31.480 66.026 31.647 Z" stroke="rgb(0,0,255)" stroke-width="0.20"/>
  <path d="M 69.468 31.647 C 69.468 31.814 69.420 31.977 69.329 32.118 C 69.239 32.258 69.111 32.369 68.959 32.439 C 68.807 32.508 68.638 32.532 68.473 32.509 C 68.308 32.485 68.153 32.414 68.027 32.305 C 67.901 32.195 67.809 32.052 67.762 31.892 C 67.715 31.732 67.715 31.562 67.762 31.402 C 67.809 31.241 67.901 31.098 68.027 30.989 C 68.153 30.880 68.308 30.809 68.473 30.785 C 68.638 30.761 68.807 30.786 68.959 30.855 C 69.111 30.924 69.239 31.036 69.329 31.176 C 69.420 31.317 69.468 31.480 69.468 31.647 Z" stroke="rgb(0,0,255)" stroke-width="0.20"/>
  <path d="M 72.909 31.647 C 72.909 31.814 72.861 31.977 72.771 32.118 C 72.680 32.258 72.552 32.369 72.400 32.439 C 72.248 32.508 72.080 32.532 71.914 32.509 C 71.749 32.485 71.594 32.414 71.468 32.305 C 71.342 32.195 71.250 32.052 71.203 31.892 C 71.156 31.732 71.156 31.562 71.203 31.402 C 71.250 31.241 71.342 31.098 71.468 30.989 C 71.594 30.880 71.749 30.809 71.914 30.785 C 72.080 30.761 72.248 30.786 72.400 30.855 C 72.552 30.924 72.680 31.036 72.771 31.176 C 72.861 31.317 72.909 31.480 72.909 31.647 Z" stroke="rgb(0,0,255)" stroke-width="0.20"/>
  <path d="M 24.732 28.183 C 24.732 28.350 24.684 28.513 24.594 28.653 C 24.504 28.794 24.375 28.905 24.223 28.975 C 24.072 29.044 23.903 29.068 23.738 29.044 C 23.573 29.021 23.418 28.950 23.292 28.841 C 23.166 28.731 23.073 28.588 23.026 28.428 C 22.979 28.268 22.979 28.098 23.026 27.937 C 23.073 27.777 23.166 27.634 23.292 27.525 C 23.418 27.415 23.573 27.345 23.738 27.321 C 23.903 27.297 24.072 27.321 24.223 27.391 C 24.375 27.460 24.504 27.572 24.594 27.712 C 24.684 27.852 24.732 28.016 24.732 28.183 Z" stroke="rgb(0,0,255)" stroke-width="0.20"/>
  <path d="M 28.174 28.183 C 28.174 28.350 28.126 28.513 28.035 28.653 C 27.945 28.794 27.816 28.905 27.665 28.975 C 27.513 29.044 27.344 29.068 27.179 29.044 C 27.014 29.021 26.859 28.950 26.733 28.841 C 26.607 28.731 26.515 28.588 26.468 28.428 C 26.421 28.268 26.421 28.098 26.468 27.937 C 26.515 27.777 26.607 27.634 26.733 27.525 C 26.859 27.415 27.014 27.345 27.179 27.321 C 27.344 27.297 27.513 27.321 27.665 27.391 C 27.816 27.460 27.945 27.572 28.035 27.712 C 28.126 27.852 28.174 28.016 28.174 28.183 Z" stroke="rgb(0,0,255)" stroke-width="0.20"/>
  <path d="M 31.615 28.183 C 31.615 28.350 31.567 28.513 31.477 28.653 C 31.386 28.794 31.258 28.905 31.106 28.975 C 30.954 29.044 30.785 29.068 30.620 29.044 C 30.455 29.021 30.300 28.950 30.174 28.841 C 30.048 28.731 29.956 28.588 29.909 28.428 C 29.862 28.268 29.862 28.098 29.909 27.937 C 29.956 27.777 30.048 27.634 30.174 27.525 C 30.300 27.415 30.455 27.345 30.620 27.321 C 30.785 27.297 30.954 27.321 31.106 27.391 C 31.258 27.460 31.386 27.572 31.477 27.712 C 31.567 27.852 31.615 28.016 31.615 28.183 Z" stroke="rgb(0,0,255)" stroke-width="0.20"/>
  <path d="M 35.056 28.183 C 35.056 28.350 35.008 28.513 34.918 28.653 C 34.827 28.794 34.699 28.905 34.547 28.975 C 34.395 29.044 34.227 29.068 34.061 29.044 C 33.896 29.021 33.741 28.950 33.615 28.841 C 33.489 28.731 33.397 28.588 33.350 28.428 C 33.303 28.268 33.303 28.098 33.350 27.937 C 33.397 27.777 33.489 27.634 33.615 27.525 C 33.741 27.415 33.896 27.345 34.061 27.321 C 34.227 27.297 34.395 27.321 34.547 27.391 C 34.699 27.460 34.827 27.572 34.918 27.712 C 35.008 27.852 35.056 28.016 35.056 28.183 Z" stroke="rgb(0,0,255)" stroke-width="0.20"/>
  <path d="M 38.497 28.183 C 38.497 28.350 38.449 28.513 38.359 28.653 C 38.269 28.794 38.140 28.905 37.988 28.975 C 37.836 29.044 37.668 29.068 37.503 29.044 C 37.337 29.021 37.182 28.950 37.056 28.841 C 36.930 28.731 36.838 28.588 36.791 28.428 C 36.744 28.268 36.744 28.098 36.791 27.937 C 36.838 27.777 36.930 27.634 37.056 27.525 C 37.182 27.415 37.337 27.345 37.503 27.321 C 37.668 27.297 37.836 27.321 37.988 27.391 C 38.140 27.460 38.269 27.572 38.359 27.712 C 38.449 27.852 38.497 28.016 38.497 28.183 Z" stroke="rgb(0,0,255)" stroke-width="0.20"/>
  <path d="M 41.938 28.183 C 41.938 28.350 41.890 28.513 41.800 28.653 C 41.710 28.794 41.581 28.905 41.429 28.975 C 41.277 29.044 41.109 29.068 40.944 29.044 C 40.779 29.021 40.624 28.950 40.498 28.841 C 40.371 28.731 40.279 28.588 40.232 28.428 C 40.185 28.268 40.185 28.098 40.232 27.937 C 40.279 27.777 40.371 27.634 40.498 27.525 C 40.624 27.415 40.779 27.345 40.944 27.321 C 41.109 27.297 41.277 27.321 41.429 27.391 C 41.581 27.460 41.710 27.572 41.800 27.712 C 41.890 27.852 41.938 28.016 41.938 28.183 Z" stroke="rgb(0,0,255)" stroke-width="0.20"/>
  <path d="M 45.379 28.183 C 45.379 28.350 45.331 28.513 45.241 28.653 C 45.151 28.794 45.022 28.905 44.870 28.975 C 44.719 29.044 44.550 29.068 44.385 29.044 C 44.220 29.021 44.065 28.950 43.939 28.841 C 43.813 28.731 43.721 28.588 43.674 28.428 C 43.626 28.268 43.626 28.098 43.674 27.937 C 43.721 27.777 43.813 27.634 43.939 27.525 C 44.065 27.415 44.220 27.345 44.385 27.321 C 44.550 27.297 44.719 27.321 44.870 27.391 C 45.022 27.460 45.151 27.572 45.241 27.712 C 45.331 27.852 45.379 28.016 45.379 28.183 Z" stroke="rgb(0,0,255)" stroke-width="0.20"/>
  <path d="M 48.821 28.183 C 48.821 28.350 48.773 28.513 48.682 28.653 C 48.592 28.794 48.463 28.905 48.312 28.975 C 48.160 29.044 47.991 29.068 47.826 29.044 C 47.661 29.021 47.506 28.950 47.380 28.841 C 47.254 28.731 47.162 28.588 47.115 28.428 C 47.068 28.268 47.068 28.098 47.115 27.937 C 47.162 27.777 47.254 27.634 47.380 27.525 C 47.506 27.415 47.661 27.345 47.826 27.321 C 47.991 27.297 48.160 27.321 48.312 27.391 C 48.463 27.460 48.592 27.572 48.682 27.712 C 48.773 27.852 48.821 28.016 48.821 28.183 Z" stroke="rgb(0,0,255)" stroke-width="0.20"/>
  <path d="M 52.262 28.183 C 52.262 28.350 52.214 28.513 52.124 28.653 C 52.033 28.794 51.905 28.905 51.753 28.975 C 51.601 29.044 51.432 29.068 51.267 29.044 C 51.102 29.021 50.947 28.950 50.821 28.841 C 50.695 28.731 50.603 28.588 50.556 28.428 C 50.509 28.268 50.509 28.098 50.556 27.937 C 50.603 27.777 50.695 27.634 50.821 27.525 C 50.947 27.415 51.102 27.345 51.267 27.321 C 51.432 27.297 51.601 27.321 51.753 27.391 C 51.905 27.460 52.033 27.572 52.124 27.712 C 52.214 27.852 52.262 28.016 52.262 28.183 Z" stroke="rgb(0,0,255)" stroke-width="0.20"/>
  <path d="M 55.703 28.183 C 55.703 28.350 55.655 28.513 55.565 28.653 C 55.475 28.794 55.346 28.905 55.194 28.975 C 55.042 29.044 54.874 29.068 54.708 29.044 C 54.543 29.021 54.388 28.950 54.262 28.841 C 54.136 28.731 54.044 28.588 53.997 28.428 C 53.950 28.268 53.950 28.098 53.997 27.937 C 54.044 27.777 54.136 27.634 54.262 27.525 C 54.388 27.415 54.543 27.345 54.708 27.321 C 54.874 27.297 55.042 27.321 55.194 27.391 C 55.346 27.460 55.475 27.572 55.565 27.712 C 55.655 27.852 55.703 28.016 55.703 28.183 Z" stroke="rgb(0,0,255)" stroke-width="0.20"/>
  <path d="M 59.144 28.183 C 59.144 28.350 59.096 28.513 59.006 28.653 C 58.916 28.794 58.787 28.905 58.635 28.975 C 58.483 29.044 58.315 29.068 58.150 29.044 C 57.984 29.021 57.830 28.950 57.703 28.841 C 57.577 28.731 57.485 28.588 57.438 28.428 C 57.391 28.268 57.391 28.098 57.438 27.937 C 57.485 27.777 57.577 27.634 57.703 27.525 C 57.830 27.415 57.984 27.345 58.150 27.321 C 58.315 27.297 58.483 27.321 58.635 27.391 C 58.787 27.460 58.916 27.572 59.006 27.712 C 59.096 27.852 59.144 28.016 59.144 28.183 Z" stroke="rgb(0,0,255)" stroke-width="0.20"/>
  <path d="M 62.585 28.183 C 62.585 28.350 62.537 28.513 62.447 28.653 C 62.357 28.794 62.228 28.905 62.076 28.975 C 61.925 29.044 61.756 29.068 61.591 29.044 C 61.426 29.021 61.271 28.950 61.145 28.841 C 61.018 28.731 60.926 28.588 60.879 28.428 C 60.832 28.268 60.832 28.098 60.879 27.937 C 60.926 27.777 61.018 27.634 61.145 27.525 C 61.271 27.415 61.426 27.345 61.591 27.321 C 61.756 27.297 61.925 27.321 62.076 27.391 C 62.228 27.460 62.357 27.572 62.447 27.712 C 62.537 27.852 62.585 28.016 62.585 28.183 Z" stroke="rgb(0,0,255)" stroke-width="0.20"/>
  <path d="M 66.026 28.183 C 66.026 28.350 65.978 28.513 65.888 28.653 C 65.798 28.794 65.669 28.905 65.518 28.975 C 65.366 29.044 65.197 29.068 65.032 29.044 C 64.867 29.021 64.712 28.950 64.586 28.841 C 64.460 28.731 64.368 28.588 64.321 28.428 C 64.274 28.268 64.274 28.098 64.321 27.937 C 64.368 27.777 64.460 27.634 64.586 27.525 C 64.712 27.415 64.867 27.345 65.032 27.321 C 65.197 27.297 65.366 27.321 65.518 27.391 C 65.669 27.460 65.798 27.572 65.888 27.712 C 65.978 27.852 66.026 28.016 66.026 28.183 Z" stroke="rgb(0,0,255)" stroke-width="0.20"/>
  <path d="M 69.468 28.183 C 69.468 28.350 69.420 28.513 69.329 28.653 C 69.239 28.794 69.111 28.905 68.959 28.975 C 68.807 29.044 68.638 29.068 68.473 29.044 C 68.308 29.021 68.153 28.950 68.027 28.841 C 67.901 28.731 67.809 28.588 67.762 28.428 C 67.715 28.268 67.715 28.098 67.762 27.937 C 67.809 27.777 67.901 27.634 68.027 27.525 C 68.153 27.415 68.308 27.345 68.473 27.321 C 68.638 27.297 68.807 27.321 68.959 27.391 C 69.111 27.460 69.239 27.572 69.329 27.712 C 69.420 27.852 69.468 28.016 69.468 28.183 Z" stroke="rgb(0,0,255)" stroke-width="0.20"/>
  <path d="M 72.909 28.183 C 72.909 28.350 72.861 28.513 72.771 28.653 C 72.680 28.794 72.552 28.905 72.400 28.975 C 72.248 29.044 72.080 29.068 71.914 29.044 C 71.749 29.021 71.594 28.950 71.468 28.841 C 71.342 28.731 71.250 28.588 71.203 28.428 C 71.156 28.268 71.156 28.098 71.203 27.937 C 71.250 27.777 71.342 27.634 71.468 27.525 C 71.594 27.415 71.749 27.345 71.914 27.321 C 72.080 27.297 72.248 27.321 72.400 27.391 C 72.552 27.460 72.680 27.572 72.771 27.712 C 72.861 27.852 72.909 28.016 72.909 28.183 Z" stroke="rgb(0,0,255)" stroke-width="0.20"/>
  <path d="M 28.174 24.718 C 28.174 24.885 28.126 25.049 28.035 25.189 C 27.945 25.330 27.816 25.441 27.665 25.510 C 27.513 25.580 27.344 25.604 27.179 25.580 C 27.014 25.556 26.859 25.486 26.733 25.376 C 26.607 25.267 26.515 25.124 26.468 24.964 C 26.421 24.804 26.421 24.633 26.468 24.473 C 26.515 24.313 26.607 24.170 26.733 24.061 C 26.859 23.951 27.014 23.880 27.179 23.857 C 27.344 23.833 27.513 23.857 27.665 23.927 C 27.816 23.996 27.945 24.107 28.035 24.248 C 28.126 24.388 28.174 24.552 28.174 24.718 Z" stroke="rgb(0,0,255)" stroke-width="0.20"/>
  <path d="M 31.615 24.718 C 31.615 24.885 31.567 25.049 31.477 25.189 C 31.386 25.330 31.258 25.441 31.106 25.510 C 30.954 25.580 30.785 25.604 30.620 25.580 C 30.455 25.556 30.300 25.486 30.174 25.376 C 30.048 25.267 29.956 25.124 29.909 24.964 C 29.862 24.804 29.862 24.633 29.909 24.473 C 29.956 24.313 30.048 24.170 30.174 24.061 C 30.300 23.951 30.455 23.880 30.620 23.857 C 30.785 23.833 30.954 23.857 31.106 23.927 C 31.258 23.996 31.386 24.107 31.477 24.248 C 31.567 24.388 31.615 24.552 31.615 24.718 Z" stroke="rgb(0,0,255)" stroke-width="0.20"/>
  <path d="M 35.056 24.718 C 35.056 24.885 35.008 25.049 34.918 25.189 C 34.827 25.330 34.699 25.441 34.547 25.510 C 34.395 25.580 34.227 25.604 34.061 25.580 C 33.896 25.556 33.741 25.486 33.615 25.376 C 33.489 25.267 33.397 25.124 33.350 24.964 C 33.303 24.804 33.303 24.633 33.350 24.473 C 33.397 24.313 33.489 24.170 33.615 24.061 C 33.741 23.951 33.896 23.880 34.061 23.857 C 34.227 23.833 34.395 23.857 34.547 23.927 C 34.699 23.996 34.827 24.107 34.918 24.248 C 35.008 24.388 35.056 24.552 35.056 24.718 Z" stroke="rgb(0,0,255)" stroke-width="0.20"/>
  <path d="M 38.497 24.718 C 38.497 24.885 38.449 25.049 38.359 25.189 C 38.269 25.330 38.140 25.441 37.988 25.510 C 37.836 25.580 37.668 25.604 37.503 25.580 C 37.337 25.556 37.182 25.486 37.056 25.376 C 36.930 25.267 36.838 25.124 36.791 24.964 C 36.744 24.804 36.744 24.633 36.791 24.473 C 36.838 24.313 36.930 24.170 37.056 24.061 C 37.182 23.951 37.337 23.880 37.503 23.857 C 37.668 23.833 37.836 23.857 37.988 23.927 C 38.140 23.996 38.269 24.107 38.359 24.248 C 38.449 24.388 38.497 24.552 38.497 24.718 Z" stroke="rgb(0,0,255)" stroke-width="0.20"/>
  <path d="M 41.938 24.718 C 41.938 24.885 41.890 25.049 41.800 25.189 C 41.710 25.330 41.581 25.441 41.429 25.510 C 41.277 25.580 41.109 25.604 40.944 25.580 C 40.779 25.556 40.624 25.486 40.498 25.376 C 40.371 25.267 40.279 25.124 40.232 24.964 C 40.185 24.804 40.185 24.633 40.232 24.473 C 40.279 24.313 40.371 24.170 40.498 24.061 C 40.624 23.951 40.779 23.880 40.944 23.857 C 41.109 23.833 41.277 23.857 41.429 23.927 C 41.581 23.996 41.710 24.107 41.800 24.248 C 41.890 24.388 41.938 24.552 41.938 24.718 Z" stroke="rgb(0,0,255)" stroke-width="0.20"/>
  <path d="M 45.379 24.718 C 45.379 24.885 45.331 25.049 45.241 25.189 C 45.151 25.330 45.022 25.441 44.870 25.510 C 44.719 25.580 44.550 25.604 44.385 25.580 C 44.220 25.556 44.065 25.486 43.939 25.376 C 43.813 25.267 43.721 25.124 43.674 24.964 C 43.626 24.804 43.626 24.633 43.674 24.473 C 43.721 24.313 43.813 24.170 43.939 24.061 C 44.065 23.951 44.220 23.880 44.385 23.857 C 44.550 23.833 44.719 23.857 44.870 23.927 C 45.022 23.996 45.151 24.107 45.241 24.248 C 45.331 24.388 45.379 24.552 45.379 24.718 Z" stroke="rgb(0,0,255)" stroke-width="0.20"/>
  <path d="M 48.821 24.718 C 48.821 24.885 48.773 25.049 48.682 25.189 C 48.592 25.330 48.463 25.441 48.312 25.510 C 48.160 25.580 47.991 25.604 47.826 25.580 C 47.661 25.556 47.506 25.486 47.380 25.376 C 47.254 25.267 47.162 25.124 47.115 24.964 C 47.068 24.804 47.068 24.633 47.115 24.473 C 47.162 24.313 47.254 24.170 47.380 24.061 C 47.506 23.951 47.661 23.880 47.826 23.857 C 47.991 23.833 48.160 23.857 48.312 23.927 C 48.463 23.996 48.592 24.107 48.682 24.248 C 48.773 24.388 48.821 24.552 48.821 24.718 Z" stroke="rgb(0,0,255)" stroke-width="0.20"/>
  <path d="M 52.262 24.718 C 52.262 24.885 52.214 25.049 52.124 25.189 C 52.033 25.330 51.905 25.441 51.753 25.510 C 51.601 25.580 51.432 25.604 51.267 25.580 C 51.102 25.556 50.947 25.486 50.821 25.376 C 50.695 25.267 50.603 25.124 50.556 24.964 C 50.509 24.804 50.509 24.633 50.556 24.473 C 50.603 24.313 50.695 24.170 50.821 24.061 C 50.947 23.951 51.102 23.880 51.267 23.857 C 51.432 23.833 51.601 23.857 51.753 23.927 C 51.905 23.996 52.033 24.107 52.124 24.248 C 52.214 24.388 52.262 24.552 52.262 24.718 Z" stroke="rgb(0,0,255)" stroke-width="0.20"/>
  <path d="M 55.703 24.718 C 55.703 24.885 55.655 25.049 55.565 25.189 C 55.475 25.330 55.346 25.441 55.194 25.510 C 55.042 25.580 54.874 25.604 54.708 25.580 C 54.543 25.556 54.388 25.486 54.262 25.376 C 54.136 25.267 54.044 25.124 53.997 24.964 C 53.950 24.804 53.950 24.633 53.997 24.473 C 54.044 24.313 54.136 24.170 54.262 24.061 C 54.388 23.951 54.543 23.880 54.708 23.857 C 54.874 23.833 55.042 23.857 55.194 23.927 C 55.346 23.996 55.475 24.107 55.565 24.248 C 55.655 24.388 55.703 24.552 55.703 24.718 Z" stroke="rgb(0,0,255)" stroke-width="0.20"/>
  <path d="M 59.144 24.718 C 59.144 24.885 59.096 25.049 59.006 25.189 C 58.916 25.330 58.787 25.441 58.635 25.510 C 58.483 25.580 58.315 25.604 58.150 25.580 C 57.984 25.556 57.830 25.486 57.703 25.376 C 57.577 25.267 57.485 25.124 57.438 24.964 C 57.391 24.804 57.391 24.633 57.438 24.473 C 57.485 24.313 57.577 24.170 57.703 24.061 C 57.830 23.951 57.984 23.880 58.150 23.857 C 58.315 23.833 58.483 23.857 58.635 23.927 C 58.787 23.996 58.916 24.107 59.006 24.248 C 59.096 24.388 59.144 24.552 59.144 24.718 Z" stroke="rgb(0,0,255)" stroke-width="0.20"/>
  <path d="M 62.585 24.718 C 62.585 24.885 62.537 25.049 62.447 25.189 C 62.357 25.330 62.228 25.441 62.076 25.510 C 61.925 25.580 61.756 25.604 61.591 25.580 C 61.426 25.556 61.271 25.486 61.145 25.376 C 61.018 25.267 60.926 25.124 60.879 24.964 C 60.832 24.804 60.832 24.633 60.879 24.473 C 60.926 24.313 61.018 24.170 61.145 24.061 C 61.271 23.951 61.426 23.880 61.591 23.857 C 61.756 23.833 61.925 23.857 62.076 23.927 C 62.228 23.996 62.357 24.107 62.447 24.248 C 62.537 24.388 62.585 24.552 62.585 24.718 Z" stroke="rgb(0,0,255)" stroke-width="0.20"/>
  <path d="M 66.026 24.718 C 66.026 24.885 65.978 25.049 65.888 25.189 C 65.798 25.330 65.669 25.441 65.518 25.510 C 65.366 25.580 65.197 25.604 65.032 25.580 C 64.867 25.556 64.712 25.486 64.586 25.376 C 64.460 25.267 64.368 25.124 64.321 24.964 C 64.274 24.804 64.274 24.633 64.321 24.473 C 64.368 24.313 64.460 24.170 64.586 24.061 C 64.712 23.951 64.867 23.880 65.032 23.857 C 65.197 23.833 65.366 23.857 65.518 23.927 C 65.669 23.996 65.798 24.107 65.888 24.248 C 65.978 24.388 66.026 24.552 66.026 24.718 Z" stroke="rgb(0,0,255)" stroke-width="0.20"/>
  <path d="M 69.468 24.718 C 69.468 24.885 69.420 25.049 69.329 25.189 C 69.239 25.330 69.111 25.441 68.959 25.510 C 68.807 25.580 68.638 25.604 68.473 25.580 C 68.308 25.556 68.153 25.486 68.027 25.376 C 67.901 25.267 67.809 25.124 67.762 24.964 C 67.715 24.804 67.715 24.633 67.762 24.473 C 67.809 24.313 67.901 24.170 68.027 24.061 C 68.153 23.951 68.308 23.880 68.473 23.857 C 68.638 23.833 68.807 23.857 68.959 23.927 C 69.111 23.996 69.239 24.107 69.329 24.248 C 69.420 24.388 69.468 24.552 69.468 24.718 Z" stroke="rgb(0,0,255)" stroke-width="0.20"/>
  <path d="M 31.615 21.254 C 31.615 21.421 31.567 21.585 31.477 21.725 C 31.386 21.865 31.258 21.977 31.106 22.046 C 30.954 22.116 30.785 22.140 30.620 22.116 C 30.455 22.092 30.300 22.022 30.174 21.912 C 30.048 21.803 29.956 21.660 29.909 21.500 C 29.862 21.339 29.862 21.169 29.909 21.009 C 29.956 20.849 30.048 20.706 30.174 20.596 C 30.300 20.487 30.455 20.416 30.620 20.393 C 30.785 20.369 30.954 20.393 31.106 20.462 C 31.258 20.532 31.386 20.643 31.477 20.784 C 31.567 20.924 31.615 21.087 31.615 21.254 Z" stroke="rgb(0,0,255)" stroke-width="0.20"/>
  <path d="M 35.056 21.254 C 35.056 21.421 35.008 21.585 34.918 21.725 C 34.827 21.865 34.699 21.977 34.547 22.046 C 34.395 22.116 34.227 22.140 34.061 22.116 C 33.896 22.092 33.741 22.022 33.615 21.912 C 33.489 21.803 33.397 21.660 33.350 21.500 C 33.303 21.339 33.303 21.169 33.350 21.009 C 33.397 20.849 33.489 20.706 33.615 20.596 C 33.741 20.487 33.896 20.416 34.061 20.393 C 34.227 20.369 34.395 20.393 34.547 20.462 C 34.699 20.532 34.827 20.643 34.918 20.784 C 35.008 20.924 35.056 21.087 35.056 21.254 Z" stroke="rgb(0,0,255)" stroke-width="0.20"/>
  <path d="M 38.497 21.254 C 38.497 21.421 38.449 21.585 38.359 21.725 C 38.269 21.865 38.140 21.977 37.988 22.046 C 37.836 22.116 37.668 22.140 37.503 22.116 C 37.337 22.092 37.182 22.022 37.056 21.912 C 36.930 21.803 36.838 21.660 36.791 21.500 C 36.744 21.339 36.744 21.169 36.791 21.009 C 36.838 20.849 36.930 20.706 37.056 20.596 C 37.182 20.487 37.337 20.416 37.503 20.393 C 37.668 20.369 37.836 20.393 37.988 20.462 C 38.140 20.532 38.269 20.643 38.359 20.784 C 38.449 20.924 38.497 21.087 38.497 21.254 Z" stroke="rgb(0,0,255)" stroke-width="0.20"/>
  <path d="M 41.938 21.254 C 41.938 21.421 41.890 21.585 41.800 21.725 C 41.710 21.865 41.581 21.977 41.429 22.046 C 41.277 22.116 41.109 22.140 40.944 22.116 C 40.779 22.092 40.624 22.022 40.498 21.912 C 40.371 21.803 40.279 21.660 40.232 21.500 C 40.185 21.339 40.185 21.169 40.232 21.009 C 40.279 20.849 40.371 20.706 40.498 20.596 C 40.624 20.487 40.779 20.416 40.944 20.393 C 41.109 20.369 41.277 20.393 41.429 20.462 C 41.581 20.532 41.710 20.643 41.800 20.784 C 41.890 20.924 41.938 21.087 41.938 21.254 Z" stroke="rgb(0,0,255)" stroke-width="0.20"/>
  <path d="M 45.379 21.254 C 45.379 21.421 45.331 21.585 45.241 21.725 C 45.151 21.865 45.022 21.977 44.870 22.046 C 44.719 22.116 44.550 22.140 44.385 22.116 C 44.220 22.092 44.065 22.022 43.939 21.912 C 43.813 21.803 43.721 21.660 43.674 21.500 C 43.626 21.339 43.626 21.169 43.674 21.009 C 43.721 20.849 43.813 20.706 43.939 20.596 C 44.065 20.487 44.220 20.416 44.385 20.393 C 44.550 20.369 44.719 20.393 44.870 20.462 C 45.022 20.532 45.151 20.643 45.241 20.784 C 45.331 20.924 45.379 21.087 45.379 21.254 Z" stroke="rgb(0,0,255)" stroke-width="0.20"/>
  <path d="M 48.821 21.254 C 48.821 21.421 48.773 21.585 48.682 21.725 C 48.592 21.865 48.463 21.977 48.312 22.046 C 48.160 22.116 47.991 22.140 47.826 22.116 C 47.661 22.092 47.506 22.022 47.380 21.912 C 47.254 21.803 47.162 21.660 47.115 21.500 C 47.068 21.339 47.068 21.169 47.115 21.009 C 47.162 20.849 47.254 20.706 47.380 20.596 C 47.506 20.487 47.661 20.416 47.826 20.393 C 47.991 20.369 48.160 20.393 48.312 20.462 C 48.463 20.532 48.592 20.643 48.682 20.784 C 48.773 20.924 48.821 21.087 48.821 21.254 Z" stroke="rgb(0,0,255)" stroke-width="0.20"/>
  <path d="M 52.262 21.254 C 52.262 21.421 52.214 21.585 52.124 21.725 C 52.033 21.865 51.905 21.977 51.753 22.046 C 51.601 22.116 51.432 22.140 51.267 22.116 C 51.102 22.092 50.947 22.022 50.821 21.912 C 50.695 21.803 50.603 21.660 50.556 21.500 C 50.509 21.339 50.509 21.169 50.556 21.009 C 50.603 20.849 50.695 20.706 50.821 20.596 C 50.947 20.487 51.102 20.416 51.267 20.393 C 51.432 20.369 51.601 20.393 51.753 20.462 C 51.905 20.532 52.033 20.643 52.124 20.784 C 52.214 20.924 52.262 21.087 52.262 21.254 Z" stroke="rgb(0,0,255)" stroke-width="0.20"/>
  <path d="M 55.703 21.254 C 55.703 21.421 55.655 21.585 55.565 21.725 C 55.475 21.865 55.346 21.977 55.194 22.046 C 55.042 22.116 54.874 22.140 54.708 22.116 C 54.543 22.092 54.388 22.022 54.262 21.912 C 54.136 21.803 54.044 21.660 53.997 21.500 C 53.950 21.339 53.950 21.169 53.997 21.009 C 54.044 20.849 54.136 20.706 54.262 20.596 C 54.388 20.487 54.543 20.416 54.708 20.393 C 54.874 20.369 55.042 20.393 55.194 20.462 C 55.346 20.532 55.475 20.643 55.565 20.784 C 55.655 20.924 55.703 21.087 55.703 21.254 Z" stroke="rgb(0,0,255)" stroke-width="0.20"/>
  <path d="M 59.144 21.254 C 59.144 21.421 59.096 21.585 59.006 21.725 C 58.916 21.865 58.787 21.977 58.635 22.046 C 58.483 22.116 58.315 22.140 58.150 22.116 C 57.984 22.092 57.830 22.022 57.703 21.912 C 57.577 21.803 57.485 21.660 57.438 21.500 C 57.391 21.339 57.391 21.169 57.438 21.009 C 57.485 20.849 57.577 20.706 57.703 20.596 C 57.830 20.487 57.984 20.416 58.150 20.393 C 58.315 20.369 58.483 20.393 58.635 20.462 C 58.787 20.532 58.916 20.643 59.006 20.784 C 59.096 20.924 59.144 21.087 59.144 21.254 Z" stroke="rgb(0,0,255)" stroke-width="0.20"/>
  <path d="M 62.585 21.254 C 62.585 21.421 62.537 21.585 62.447 21.725 C 62.357 21.865 62.228 21.977 62.076 22.046 C 61.925 22.116 61.756 22.140 61.591 22.116 C 61.426 22.092 61.271 22.022 61.145 21.912 C 61.018 21.803 60.926 21.660 60.879 21.500 C 60.832 21.339 60.832 21.169 60.879 21.009 C 60.926 20.849 61.018 20.706 61.145 20.596 C 61.271 20.487 61.426 20.416 61.591 20.393 C 61.756 20.369 61.925 20.393 62.076 20.462 C 62.228 20.532 62.357 20.643 62.447 20.784 C 62.537 20.924 62.585 21.087 62.585 21.254 Z" stroke="rgb(0,0,255)" stroke-width="0.20"/>
  <path d="M 66.026 21.254 C 66.026 21.421 65.978 21.585 65.888 21.725 C 65.798 21.865 65.669 21.977 65.518 22.046 C 65.366 22.116 65.197 22.140 65.032 22.116 C 64.867 22.092 64.712 22.022 64.586 21.912 C 64.460 21.803 64.368 21.660 64.321 21.500 C 64.274 21.339 64.274 21.169 64.321 21.009 C 64.368 20.849 64.460 20.706 64.586 20.596 C 64.712 20.487 64.867 20.416 65.032 20.393 C 65.197 20.369 65.366 20.393 65.518 20.462 C 65.669 20.532 65.798 20.643 65.888 20.784 C 65.978 20.924 66.026 21.087 66.026 21.254 Z" stroke="rgb(0,0,255)" stroke-width="0.20"/>
  <path d="M 31.615 17.790 C 31.615 17.957 31.567 18.120 31.477 18.261 C 31.386 18.401 31.258 18.513 31.106 18.582 C 30.954 18.651 30.785 18.676 30.620 18.652 C 30.455 18.628 30.300 18.557 30.174 18.448 C 30.048 18.339 29.956 18.196 29.909 18.035 C 29.862 17.875 29.862 17.705 29.909 17.545 C 29.956 17.385 30.048 17.241 30.174 17.132 C 30.300 17.023 30.455 16.952 30.620 16.928 C 30.785 16.905 30.954 16.929 31.106 16.998 C 31.258 17.068 31.386 17.179 31.477 17.319 C 31.567 17.460 31.615 17.623 31.615 17.790 Z" stroke="rgb(0,0,255)" stroke-width="0.20"/>
  <path d="M 35.056 17.790 C 35.056 17.957 35.008 18.120 34.918 18.261 C 34.827 18.401 34.699 18.513 34.547 18.582 C 34.395 18.651 34.227 18.676 34.061 18.652 C 33.896 18.628 33.741 18.557 33.615 18.448 C 33.489 18.339 33.397 18.196 33.350 18.035 C 33.303 17.875 33.303 17.705 33.350 17.545 C 33.397 17.385 33.489 17.241 33.615 17.132 C 33.741 17.023 33.896 16.952 34.061 16.928 C 34.227 16.905 34.395 16.929 34.547 16.998 C 34.699 17.068 34.827 17.179 34.918 17.319 C 35.008 17.460 35.056 17.623 35.056 17.790 Z" stroke="rgb(0,0,255)" stroke-width="0.20"/>
  <path d="M 38.497 17.790 C 38.497 17.957 38.449 18.120 38.359 18.261 C 38.269 18.401 38.140 18.513 37.988 18.582 C 37.836 18.651 37.668 18.676 37.503 18.652 C 37.337 18.628 37.182 18.557 37.056 18.448 C 36.930 18.339 36.838 18.196 36.791 18.035 C 36.744 17.875 36.744 17.705 36.791 17.545 C 36.838 17.385 36.930 17.241 37.056 17.132 C 37.182 17.023 37.337 16.952 37.503 16.928 C 37.668 16.905 37.836 16.929 37.988 16.998 C 38.140 17.068 38.269 17.179 38.359 17.319 C 38.449 17.460 38.497 17.623 38.497 17.790 Z" stroke="rgb(0,0,255)" stroke-width="0.20"/>
  <path d="M 41.938 17.790 C 41.938 17.957 41.890 18.120 41.800 18.261 C 41.710 18.401 41.581 18.513 41.429 18.582 C 41.277 18.651 41.109 18.676 40.944 18.652 C 40.779 18.628 40.624 18.557 40.498 18.448 C 40.371 18.339 40.279 18.196 40.232 18.035 C 40.185 17.875 40.185 17.705 40.232 17.545 C 40.279 17.385 40.371 17.241 40.498 17.132 C 40.624 17.023 40.779 16.952 40.944 16.928 C 41.109 16.905 41.277 16.929 41.429 16.998 C 41.581 17.068 41.710 17.179 41.800 17.319 C 41.890 17.460 41.938 17.623 41.938 17.790 Z" stroke="rgb(0,0,255)" stroke-width="0.20"/>
  <path d="M 45.379 17.790 C 45.379 17.957 45.331 18.120 45.241 18.261 C 45.151 18.401 45.022 18.513 44.870 18.582 C 44.719 18.651 44.550 18.676 44.385 18.652 C 44.220 18.628 44.065 18.557 43.939 18.448 C 43.813 18.339 43.721 18.196 43.674 18.035 C 43.626 17.875 43.626 17.705 43.674 17.545 C 43.721 17.385 43.813 17.241 43.939 17.132 C 44.065 17.023 44.220 16.952 44.385 16.928 C 44.550 16.905 44.719 16.929 44.870 16.998 C 45.022 17.068 45.151 17.179 45.241 17.319 C 45.331 17.460 45.379 17.623 45.379 17.790 Z" stroke="rgb(0,0,255)" stroke-width="0.20"/>
  <path d="M 48.821 17.790 C 48.821 17.957 48.773 18.120 48.682 18.261 C 48.592 18.401 48.463 18.513 48.312 18.582 C 48.160 18.651 47.991 18.676 47.826 18.652 C 47.661 18.628 47.506 18.557 47.380 18.448 C 47.254 18.339 47.162 18.196 47.115 18.035 C 47.068 17.875 47.068 17.705 47.115 17.545 C 47.162 17.385 47.254 17.241 47.380 17.132 C 47.506 17.023 47.661 16.952 47.826 16.928 C 47.991 16.905 48.160 16.929 48.312 16.998 C 48.463 17.068 48.592 17.179 48.682 17.319 C 48.773 17.460 48.821 17.623 48.821 17.790 Z" stroke="rgb(0,0,255)" stroke-width="0.20"/>
  <path d="M 52.262 17.790 C 52.262 17.957 52.214 18.120 52.124 18.261 C 52.033 18.401 51.905 18.513 51.753 18.582 C 51.601 18.651 51.432 18.676 51.267 18.652 C 51.102 18.628 50.947 18.557 50.821 18.448 C 50.695 18.339 50.603 18.196 50.556 18.035 C 50.509 17.875 50.509 17.705 50.556 17.545 C 50.603 17.385 50.695 17.241 50.821 17.132 C 50.947 17.023 51.102 16.952 51.267 16.928 C 51.432 16.905 51.601 16.929 51.753 16.998 C 51.905 17.068 52.033 17.179 52.124 17.319 C 52.214 17.460 52.262 17.623 52.262 17.790 Z" stroke="rgb(0,0,255)" stroke-width="0.20"/>
  <path d="M 55.703 17.790 C 55.703 17.957 55.655 18.120 55.565 18.261 C 55.475 18.401 55.346 18.513 55.194 18.582 C 55.042 18.651 54.874 18.676 54.708 18.652 C 54.543 18.628 54.388 18.557 54.262 18.448 C 54.136 18.339 54.044 18.196 53.997 18.035 C 53.950 17.875 53.950 17.705 53.997 17.545 C 54.044 17.385 54.136 17.241 54.262 17.132 C 54.388 17.023 54.543 16.952 54.708 16.928 C 54.874 16.905 55.042 16.929 55.194 16.998 C 55.346 17.068 55.475 17.179 55.565 17.319 C 55.655 17.460 55.703 17.623 55.703 17.790 Z" stroke="rgb(0,0,255)" stroke-width="0.20"/>
  <path d="M 59.144 17.790 C 59.144 17.957 59.096 18.120 59.006 18.261 C 58.916 18.401 58.787 18.513 58.635 18.582 C 58.483 18.651 58.315 18.676 58.150 18.652 C 57.984 18.628 57.830 18.557 57.703 18.448 C 57.577 18.339 57.485 18.196 57.438 18.035 C 57.391 17.875 57.391 17.705 57.438 17.545 C 57.485 17.385 57.577 17.241 57.703 17.132 C 57.830 17.023 57.984 16.952 58.150 16.928 C 58.315 16.905 58.483 16.929 58.635 16.998 C 58.787 17.068 58.916 17.179 59.006 17.319 C 59.096 17.460 59.144 17.623 59.144 17.790 Z" stroke="rgb(0,0,255)" stroke-width="0.20"/>
  <path d="M 62.585 17.790 C 62.585 17.957 62.537 18.120 62.447 18.261 C 62.357 18.401 62.228 18.513 62.076 18.582 C 61.925 18.651 61.756 18.676 61.591 18.652 C 61.426 18.628 61.271 18.557 61.145 18.448 C 61.018 18.339 60.926 18.196 60.879 18.035 C 60.832 17.875 60.832 17.705 60.879 17.545 C 60.926 17.385 61.018 17.241 61.145 17.132 C 61.271 17.023 61.426 16.952 61.591 16.928 C 61.756 16.905 61.925 16.929 62.076 16.998 C 62.228 17.068 62.357 17.179 62.447 17.319 C 62.537 17.460 62.585 17.623 62.585 17.790 Z" stroke="rgb(0,0,255)" stroke-width="0.20"/>
  <path d="M 66.026 17.790 C 66.026 17.957 65.978 18.120 65.888 18.261 C 65.798 18.401 65.669 18.513 65.518 18.582 C 65.366 18.651 65.197 18.676 65.032 18.652 C 64.867 18.628 64.712 18.557 64.586 18.448 C 64.460 18.339 64.368 18.196 64.321 18.035 C 64.274 17.875 64.274 17.705 64.321 17.545 C 64.368 17.385 64.460 17.241 64.586 17.132 C 64.712 17.023 64.867 16.952 65.032 16.928 C 65.197 16.905 65.366 16.929 65.518 16.998 C 65.669 17.068 65.798 17.179 65.888 17.319 C 65.978 17.460 66.026 17.623 66.026 17.790 Z" stroke="rgb(0,0,255)" stroke-width="0.20"/>
  <path d="M 35.056 14.326 C 35.056 14.493 35.008 14.656 34.918 14.797 C 34.827 14.937 34.699 15.048 34.547 15.118 C 34.395 15.187 34.227 15.211 34.061 15.188 C 33.896 15.164 33.741 15.093 33.615 14.984 C 33.489 14.875 33.397 14.731 33.350 14.571 C 33.303 14.411 33.303 14.241 33.350 14.081 C 33.397 13.921 33.489 13.777 33.615 13.668 C 33.741 13.559 33.896 13.488 34.061 13.464 C 34.227 13.440 34.395 13.465 34.547 13.534 C 34.699 13.603 34.827 13.715 34.918 13.855 C 35.008 13.996 35.056 14.159 35.056 14.326 Z" stroke="rgb(0,0,255)" stroke-width="0.20"/>
  <path d="M 38.497 14.326 C 38.497 14.493 38.449 14.656 38.359 14.797 C 38.269 14.937 38.140 15.048 37.988 15.118 C 37.836 15.187 37.668 15.211 37.503 15.188 C 37.337 15.164 37.182 15.093 37.056 14.984 C 36.930 14.875 36.838 14.731 36.791 14.571 C 36.744 14.411 36.744 14.241 36.791 14.081 C 36.838 13.921 36.930 13.777 37.056 13.668 C 37.182 13.559 37.337 13.488 37.503 13.464 C 37.668 13.440 37.836 13.465 37.988 13.534 C 38.140 13.603 38.269 13.715 38.359 13.855 C 38.449 13.996 38.497 14.159 38.497 14.326 Z" stroke="rgb(0,0,255)" stroke-width="0.20"/>
  <path d="M 41.938 14.326 C 41.938 14.493 41.890 14.656 41.800 14.797 C 41.710 14.937 41.581 15.048 41.429 15.118 C 41.277 15.187 41.109 15.211 40.944 15.188 C 40.779 15.164 40.624 15.093 40.498 14.984 C 40.371 14.875 40.279 14.731 40.232 14.571 C 40.185 14.411 40.185 14.241 40.232 14.081 C 40.279 13.921 40.371 13.777 40.498 13.668 C 40.624 13.559 40.779 13.488 40.944 13.464 C 41.109 13.440 41.277 13.465 41.429 13.534 C 41.581 13.603 41.710 13.715 41.800 13.855 C 41.890 13.996 41.938 14.159 41.938 14.326 Z" stroke="rgb(0,0,255)" stroke-width="0.20"/>
  <path d="M 45.379 14.326 C 45.379 14.493 45.331 14.656 45.241 14.797 C 45.151 14.937 45.022 15.048 44.870 15.118 C 44.719 15.187 44.550 15.211 44.385 15.188 C 44.220 15.164 44.065 15.093 43.939 14.984 C 43.813 14.875 43.721 14.731 43.674 14.571 C 43.626 14.411 43.626 14.241 43.674 14.081 C 43.721 13.921 43.813 13.777 43.939 13.668 C 44.065 13.559 44.220 13.488 44.385 13.464 C 44.550 13.440 44.719 13.465 44.870 13.534 C 45.022 13.603 45.151 13.715 45.241 13.855 C 45.331 13.996 45.379 14.159 45.379 14.326 Z" stroke="rgb(0,0,255)" stroke-width="0.20"/>
  <path d="M 48.821 14.326 C 48.821 14.493 48.773 14.656 48.682 14.797 C 48.592 14.937 48.463 15.048 48.312 15.118 C 48.160 15.187 47.991 15.211 47.826 15.188 C 47.661 15.164 47.506 15.093 47.380 14.984 C 47.254 14.875 47.162 14.731 47.115 14.571 C 47.068 14.411 47.068 14.241 47.115 14.081 C 47.162 13.921 47.254 13.777 47.380 13.668 C 47.506 13.559 47.661 13.488 47.826 13.464 C 47.991 13.440 48.160 13.465 48.312 13.534 C 48.463 13.603 48.592 13.715 48.682 13.855 C 48.773 13.996 48.821 14.159 48.821 14.326 Z" stroke="rgb(0,0,255)" stroke-width="0.20"/>
  <path d="M 52.262 14.326 C 52.262 14.493 52.214 14.656 52.124 14.797 C 52.033 14.937 51.905 15.048 51.753 15.118 C 51.601 15.187 51.432 15.211 51.267 15.188 C 51.102 15.164 50.947 15.093 50.821 14.984 C 50.695 14.875 50.603 14.731 50.556 14.571 C 50.509 14.411 50.509 14.241 50.556 14.081 C 50.603 13.921 50.695 13.777 50.821 13.668 C 50.947 13.559 51.102 13.488 51.267 13.464 C 51.432 13.440 51.601 13.465 51.753 13.534 C 51.905 13.603 52.033 13.715 52.124 13.855 C 52.214 13.996 52.262 14.159 52.262 14.326 Z" stroke="rgb(0,0,255)" stroke-width="0.20"/>
  <path d="M 55.703 14.326 C 55.703 14.493 55.655 14.656 55.565 14.797 C 55.475 14.937 55.346 15.048 55.194 15.118 C 55.042 15.187 54.874 15.211 54.708 15.188 C 54.543 15.164 54.388 15.093 54.262 14.984 C 54.136 14.875 54.044 14.731 53.997 14.571 C 53.950 14.411 53.950 14.241 53.997 14.081 C 54.044 13.921 54.136 13.777 54.262 13.668 C 54.388 13.559 54.543 13.488 54.708 13.464 C 54.874 13.440 55.042 13.465 55.194 13.534 C 55.346 13.603 55.475 13.715 55.565 13.855 C 55.655 13.996 55.703 14.159 55.703 14.326 Z" stroke="rgb(0,0,255)" stroke-width="0.20"/>
  <path d="M 59.144 14.326 C 59.144 14.493 59.096 14.656 59.006 14.797 C 58.916 14.937 58.787 15.048 58.635 15.118 C 58.483 15.187 58.315 15.211 58.150 15.188 C 57.984 15.164 57.830 15.093 57.703 14.984 C 57.577 14.875 57.485 14.731 57.438 14.571 C 57.391 14.411 57.391 14.241 57.438 14.081 C 57.485 13.921 57.577 13.777 57.703 13.668 C 57.830 13.559 57.984 13.488 58.150 13.464 C 58.315 13.440 58.483 13.465 58.635 13.534 C 58.787 13.603 58.916 13.715 59.006 13.855 C 59.096 13.996 59.144 14.159 59.144 14.326 Z" stroke="rgb(0,0,255)" stroke-width="0.20"/>
  <path d="M 62.585 14.326 C 62.585 14.493 62.537 14.656 62.447 14.797 C 62.357 14.937 62.228 15.048 62.076 15.118 C 61.925 15.187 61.756 15.211 61.591 15.188 C 61.426 15.164 61.271 15.093 61.145 14.984 C 61.018 14.875 60.926 14.731 60.879 14.571 C 60.832 14.411 60.832 14.241 60.879 14.081 C 60.926 13.921 61.018 13.777 61.145 13.668 C 61.271 13.559 61.426 13.488 61.591 13.464 C 61.756 13.440 61.925 13.465 62.076 13.534 C 62.228 13.603 62.357 13.715 62.447 13.855 C 62.537 13.996 62.585 14.159 62.585 14.326 Z" stroke="rgb(0,0,255)" stroke-width="0.20"/>
  <path d="M 35.056 10.862 C 35.056 11.029 35.008 11.192 34.918 11.332 C 34.827 11.473 34.699 11.584 34.547 11.654 C 34.395 11.723 34.227 11.747 34.061 11.723 C 33.896 11.700 33.741 11.629 33.615 11.520 C 33.489 11.410 33.397 11.267 33.350 11.107 C 33.303 10.947 33.303 10.777 33.350 10.616 C 33.397 10.456 33.489 10.313 33.615 10.204 C 33.741 10.094 33.896 10.024 34.061 10.000 C 34.227 9.976 34.395 10.000 34.547 10.070 C 34.699 10.139 34.827 10.251 34.918 10.391 C 35.008 10.531 35.056 10.695 35.056 10.862 Z" stroke="rgb(0,0,255)" stroke-width="0.20"/>
  <path d="M 38.497 10.862 C 38.497 11.029 38.449 11.192 38.359 11.332 C 38.269 11.473 38.140 11.584 37.988 11.654 C 37.836 11.723 37.668 11.747 37.503 11.723 C 37.337 11.700 37.182 11.629 37.056 11.520 C 36.930 11.410 36.838 11.267 36.791 11.107 C 36.744 10.947 36.744 10.777 36.791 10.616 C 36.838 10.456 36.930 10.313 37.056 10.204 C 37.182 10.094 37.337 10.024 37.503 10.000 C 37.668 9.976 37.836 10.000 37.988 10.070 C 38.140 10.139 38.269 10.251 38.359 10.391 C 38.449 10.531 38.497 10.695 38.497 10.862 Z" stroke="rgb(0,0,255)" stroke-width="0.20"/>
  <path d="M 41.938 10.862 C 41.938 11.029 41.890 11.192 41.800 11.332 C 41.710 11.473 41.581 11.584 41.429 11.654 C 41.277 11.723 41.109 11.747 40.944 11.723 C 40.779 11.700 40.624 11.629 40.498 11.520 C 40.371 11.410 40.279 11.267 40.232 11.107 C 40.185 10.947 40.185 10.777 40.232 10.616 C 40.279 10.456 40.371 10.313 40.498 10.204 C 40.624 10.094 40.779 10.024 40.944 10.000 C 41.109 9.976 41.277 10.000 41.429 10.070 C 41.581 10.139 41.710 10.251 41.800 10.391 C 41.890 10.531 41.938 10.695 41.938 10.862 Z" stroke="rgb(0,0,255)" stroke-width="0.20"/>
  <path d="M 45.379 10.862 C 45.379 11.029 45.331 11.192 45.241 11.332 C 45.151 11.473 45.022 11.584 44.870 11.654 C 44.719 11.723 44.550 11.747 44.385 11.723 C 44.220 11.700 44.065 11.629 43.939 11.520 C 43.813 11.410 43.721 11.267 43.674 11.107 C 43.626 10.947 43.626 10.777 43.674 10.616 C 43.721 10.456 43.813 10.313 43.939 10.204 C 44.065 10.094 44.220 10.024 44.385 10.000 C 44.550 9.976 44.719 10.000 44.870 10.070 C 45.022 10.139 45.151 10.251 45.241 10.391 C 45.331 10.531 45.379 10.695 45.379 10.862 Z" stroke="rgb(0,0,255)" stroke-width="0.20"/>
  <path d="M 48.821 10.862 C 48.821 11.029 48.773 11.192 48.682 11.332 C 48.592 11.473 48.463 11.584 48.312 11.654 C 48.160 11.723 47.991 11.747 47.826 11.723 C 47.661 11.700 47.506 11.629 47.380 11.520 C 47.254 11.410 47.162 11.267 47.115 11.107 C 47.068 10.947 47.068 10.777 47.115 10.616 C 47.162 10.456 47.254 10.313 47.380 10.204 C 47.506 10.094 47.661 10.024 47.826 10.000 C 47.991 9.976 48.160 10.000 48.312 10.070 C 48.463 10.139 48.592 10.251 48.682 10.391 C 48.773 10.531 48.821 10.695 48.821 10.862 Z" stroke="rgb(0,0,255)" stroke-width="0.20"/>
  <path d="M 52.262 10.862 C 52.262 11.029 52.214 11.192 52.124 11.332 C 52.033 11.473 51.905 11.584 51.753 11.654 C 51.601 11.723 51.432 11.747 51.267 11.723 C 51.102 11.700 50.947 11.629 50.821 11.520 C 50.695 11.410 50.603 11.267 50.556 11.107 C 50.509 10.947 50.509 10.777 50.556 10.616 C 50.603 10.456 50.695 10.313 50.821 10.204 C 50.947 10.094 51.102 10.024 51.267 10.000 C 51.432 9.976 51.601 10.000 51.753 10.070 C 51.905 10.139 52.033 10.251 52.124 10.391 C 52.214 10.531 52.262 10.695 52.262 10.862 Z" stroke="rgb(0,0,255)" stroke-width="0.20"/>
  <path d="M 55.703 10.862 C 55.703 11.029 55.655 11.192 55.565 11.332 C 55.475 11.473 55.346 11.584 55.194 11.654 C 55.042 11.723 54.874 11.747 54.708 11.723 C 54.543 11.700 54.388 11.629 54.262 11.520 C 54.136 11.410 54.044 11.267 53.997 11.107 C 53.950 10.947 53.950 10.777 53.997 10.616 C 54.044 10.456 54.136 10.313 54.262 10.204 C 54.388 10.094 54.543 10.024 54.708 10.000 C 54.874 9.976 55.042 10.000 55.194 10.070 C 55.346 10.139 55.475 10.251 55.565 10.391 C 55.655 10.531 55.703 10.695 55.703 10.862 Z" stroke="rgb(0,0,255)" stroke-width="0.20"/>
  <path d="M 59.144 10.862 C 59.144 11.029 59.096 11.192 59.006 11.332 C 58.916 11.473 58.787 11.584 58.635 11.654 C 58.483 11.723 58.315 11.747 58.150 11.723 C 57.984 11.700 57.830 11.629 57.703 11.520 C 57.577 11.410 57.485 11.267 57.438 11.107 C 57.391 10.947 57.391 10.777 57.438 10.616 C 57.485 10.456 57.577 10.313 57.703 10.204 C 57.830 10.094 57.984 10.024 58.150 10.000 C 58.315 9.976 58.483 10.000 58.635 10.070 C 58.787 10.139 58.916 10.251 59.006 10.391 C 59.096 10.531 59.144 10.695 59.144 10.862 Z" stroke="rgb(0,0,255)" stroke-width="0.20"/>
  <path d="M 62.585 10.862 C 62.585 11.029 62.537 11.192 62.447 11.332 C 62.357 11.473 62.228 11.584 62.076 11.654 C 61.925 11.723 61.756 11.747 61.591 11.723 C 61.426 11.700 61.271 11.629 61.145 11.520 C 61.018 11.410 60.926 11.267 60.879 11.107 C 60.832 10.947 60.832 10.777 60.879 10.616 C 60.926 10.456 61.018 10.313 61.145 10.204 C 61.271 10.094 61.426 10.024 61.591 10.000 C 61.756 9.976 61.925 10.000 62.076 10.070 C 62.228 10.139 62.357 10.251 62.447 10.391 C 62.537 10.531 62.585 10.695 62.585 10.862 Z" stroke="rgb(0,0,255)" stroke-width="0.20"/>
</g>
<script xmlns="" id="bw-fido2-page-script"/></svg>